{
.appVersion = "1352";
classes = (
{
automatic = 1;

glyphs = (
{
color = 6;
glyphname = .notdef;
lastChange = "2022-04-05 22:58:18 +0000";
layers = (
{
layerId = "9AA098C0-EDBC-463F-BC21-AFCD07A070D0";
paths = (
{
closed = 1;
nodes = (
"479 0 LINE",
"488 8 LINE",
"488 621 LINE",
"479 630 LINE",
"58 630 LINE",
"50 620 LINE",
"50 9 LINE",
"58 0 LINE"
);
},
{
closed = 1;
nodes = (
"154 150 LINE",
"244 316 LINE",
"154 479 LINE",
"173 514 LINE",
"263 350 LINE",
"354 514 LINE",
"373 479 LINE",
"283 314 LINE",
"373 150 LINE",
"354 116 LINE",
"263 279 LINE",
"173 116 LINE"
);
},
{
closed = 1;
nodes = (
"67 613 LINE",
"471 613 LINE",
"471 16 LINE",
"67 16 LINE"
);
},
{
closed = 1;
nodes = (
"437 49 LINE",
"437 577 LINE",
"102 577 LINE",
"102 49 LINE"
);
}
);
userData = {
assembly = "SVTCA[0]	/* SetFreedomAndProjectionVectorToAxis */\012PUSHW[ ]	/* 1 value pushed */\0122 \012MDAP[1]	/* MoveDirectAbsPt */\012PUSHW[ ]	/* 1 value pushed */\0120 \012RCVT[ ]	/* ReadCVT */\012IF[ ]	/* If */\012PUSHW[ ]	/* 1 value pushed */\0126 \012MDAP[1]	/* MoveDirectAbsPt */\012ELSE[ ]	/* Else */\012PUSHW[ ]	/* 2 values pushed */\0126 5 \012MIAP[0]	/* MoveIndirectAbsPt */\012EIF[ ]	/* EndIf */\012PUSHW[ ]	/* 3 values pushed */\01216 6 2 \012SRP1[ ]	/* SetRefPoint1 */\012SRP2[ ]	/* SetRefPoint2 */\012IP[ ]	/* InterpolatePts */\012PUSHW[ ]	/* 3 values pushed */\01217 6 2 \012SRP1[ ]	/* SetRefPoint1 */\012SRP2[ ]	/* SetRefPoint2 */\012IP[ ]	/* InterpolatePts */\012PUSHW[ ]	/* 3 values pushed */\01218 6 2 \012SRP1[ ]	/* SetRefPoint1 */\012SRP2[ ]	/* SetRefPoint2 */\012IP[ ]	/* InterpolatePts */\012PUSHW[ ]	/* 3 values pushed */\01222 6 2 \012SRP1[ ]	/* SetRefPoint1 */\012SRP2[ ]	/* SetRefPoint2 */\012IP[ ]	/* InterpolatePts */\012PUSHW[ ]	/* 3 values pushed */\01223 6 2 \012SRP1[ ]	/* SetRefPoint1 */\012SRP2[ ]	/* SetRefPoint2 */\012IP[ ]	/* InterpolatePts */\012PUSHW[ ]	/* 3 values pushed */\01224 6 2 \012SRP1[ ]	/* SetRefPoint1 */\012SRP2[ ]	/* SetRefPoint2 */\012IP[ ]	/* InterpolatePts */\012IUP[0]	/* InterpolateUntPts */\012IUP[1]	/* InterpolateUntPts */";
};
width = 538;
}
);
note = .notdef;
},
{
glyphname = A;
lastChange = "2022-04-04 13:03:21 +0000";
layers = (
{
anchors = (
{
name = bottom;
position = "{140, 0}";
},
{
name = ogonek;
position = "{306, 0}";
},
{
name = top;
position = "{223, 591}";
}
);
layerId = "9AA098C0-EDBC-463F-BC21-AFCD07A070D0";
paths = (
{
closed = 1;
nodes = (
"-2 0 LINE",
"60 160 LINE",
"262 160 LINE",
"279 0 LINE",
"296 0 LINE",
"229 591 LINE",
"216 591 LINE",
"-19 0 LINE"
);
},
{
closed = 1;
nodes = (
"210 532 LINE",
"217 549 LINE",
"218 532 LINE",
"260 176 LINE",
"66 176 LINE"
);
}
);
width = 350;
}
);
leftKerningGroup = A;
note = A;
rightKerningGroup = A;
unicode = 0041;
},
{
glyphname = AE;
lastChange = "2022-04-05 22:57:46 +0000";
layers = (
{
anchors = (
{
name = bottom;
position = "{215, 0}";
},
{
name = top;
position = "{297, 591}";
}
);
layerId = "9AA098C0-EDBC-463F-BC21-AFCD07A070D0";
paths = (
{
closed = 1;
nodes = (
"-5 0 LINE",
"79 160 LINE",
"292 160 LINE",
"292 176 LINE",
"87 176 LINE",
"300 588 LINE",
"285 591 LINE",
"-23 0 LINE"
);
},
{
closed = 1;
nodes = (
"458 0 LINE",
"461 16 LINE",
"301 16 LINE",
"301 303 LINE",
"450 303 LINE",
"452 319 LINE",
"301 319 LINE",
"301 575 LINE",
"479 575 LINE",
"482 591 LINE",
"285 591 LINE",
"284 0 LINE"
);
}
);
width = 509;
}
);
leftKerningGroup = A;
note = AE;
rightKerningGroup = E;
unicode = 00C6;
},
{
glyphname = B;
lastChange = "2022-04-05 22:44:37 +0000";
layers = (
{
background = {
paths = (
{
closed = 1;
nodes = (
"199 0 LINE SMOOTH",
"278 0 OFFCURVE",
"323 22 OFFCURVE",
"336 120 CURVE SMOOTH",
"349 209 LINE SMOOTH",
"350 216 OFFCURVE",
"350 223 OFFCURVE",
"350 229 CURVE SMOOTH",
"350 278 OFFCURVE",
"323 312 OFFCURVE",
"270 312 CURVE",
"329 321 OFFCURVE",
"366 363 OFFCURVE",
"373 419 CURVE SMOOTH",
"384 494 LINE SMOOTH",
"385 501 OFFCURVE",
"386 507 OFFCURVE",
"386 513 CURVE SMOOTH",
"386 568 OFFCURVE",
"346 591 OFFCURVE",
"291 591 CURVE SMOOTH",
"130 591 LINE",
"47 0 LINE"
);
},
{
closed = 1;
nodes = (
"102 306 LINE",
"235 306 LINE SMOOTH",
"295 306 OFFCURVE",
"339 289 OFFCURVE",
"339 233 CURVE SMOOTH",
"339 227 OFFCURVE",
"339 221 OFFCURVE",
"338 214 CURVE SMOOTH",
"325 125 LINE SMOOTH",
"313 33 OFFCURVE",
"273 11 OFFCURVE",
"197 11 CURVE SMOOTH",
"60 11 LINE"
);
},
{
closed = 1;
nodes = (
"140 580 LINE",
"289 580 LINE SMOOTH",
"339 580 OFFCURVE",
"373 558 OFFCURVE",
"373 511 CURVE SMOOTH",
"373 506 OFFCURVE",
"373 501 OFFCURVE",
"372 496 CURVE SMOOTH",
"362 420 LINE SMOOTH",
"351 355 OFFCURVE",
"308 317 OFFCURVE",
"231 317 CURVE SMOOTH",
"103 317 LINE"
);
}
);
};
layerId = "9AA098C0-EDBC-463F-BC21-AFCD07A070D0";
paths = (
{
closed = 1;
nodes = (
"198 0 LINE SMOOTH",
"271 0 OFFCURVE",
"324 16 OFFCURVE",
"338 120 CURVE SMOOTH",
"351 209 LINE SMOOTH",
"352 216 OFFCURVE",
"352 222 OFFCURVE",
"352 228 CURVE SMOOTH",
"352 278 OFFCURVE",
"323 312 OFFCURVE",
"270 312 CURVE",
"328 321 OFFCURVE",
"367 363 OFFCURVE",
"375 419 CURVE SMOOTH",
"386 494 LINE SMOOTH",
"387 501 OFFCURVE",
"387 507 OFFCURVE",
"387 513 CURVE SMOOTH",
"387 571 OFFCURVE",
"346 591 OFFCURVE",
"291 591 CURVE SMOOTH",
"128 591 LINE",
"44 0 LINE"
);
},
{
closed = 1;
nodes = (
"103 303 LINE",
"234 303 LINE SMOOTH",
"293 303 OFFCURVE",
"337 287 OFFCURVE",
"337 230 CURVE SMOOTH",
"337 225 OFFCURVE",
"337 220 OFFCURVE",
"336 214 CURVE SMOOTH",
"323 125 LINE SMOOTH",
"310 31 OFFCURVE",
"268 16 OFFCURVE",
"198 16 CURVE SMOOTH",
"63 16 LINE"
);
},
{
closed = 1;
nodes = (
"141 575 LINE",
"288 575 LINE SMOOTH",
"337 575 OFFCURVE",
"371 552 OFFCURVE",
"371 509 CURVE SMOOTH",
"371 505 OFFCURVE",
"371 500 OFFCURVE",
"370 496 CURVE SMOOTH",
"359 420 LINE SMOOTH",
"351 357 OFFCURVE",
"306 319 OFFCURVE",
"231 319 CURVE SMOOTH",
"105 319 LINE"
);
}
);
userData = {
assembly = "PUSHW[ ]	/* 4 values pushed */\01219 4 13 4 \012CALL[ ]	/* CallFunction */\012PUSHW[ ]	/* 3 values pushed */\01233 13 19 \012SRP1[ ]	/* SetRefPoint1 */\012SRP2[ ]	/* SetRefPoint2 */\012IP[ ]	/* InterpolatePts */\012PUSHW[ ]	/* 1 value pushed */\01219 \012SRP0[ ]	/* SetRefPoint0 */\012PUSHW[ ]	/* 1 value pushed */\01246 \012MDRP[11100]	/* MoveDirectRelPt */\012IUP[0]	/* InterpolateUntPts */\012IUP[1]	/* InterpolateUntPts */";
};
width = 416;
}
);
leftMetricsKey = H;
note = B;
unicode = 0042;
},
{
glyphname = C;
lastChange = "2022-04-05 22:44:37 +0000";
layers = (
{
anchors = (
{
name = bottom;
position = "{167, -12}";
},
{
name = top;
position = "{253, 591}";
}
);
layerId = "9AA098C0-EDBC-463F-BC21-AFCD07A070D0";
paths = (
{
closed = 1;
nodes = (
"246 -12 OFFCURVE",
"306 2 OFFCURVE",
"322 118 CURVE SMOOTH",
"332 189 LINE",
"316 189 LINE",
"306 116 LINE SMOOTH",
"292 19 OFFCURVE",
"239 4 OFFCURVE",
"169 4 CURVE SMOOTH",
"111 4 OFFCURVE",
"63 16 OFFCURVE",
"63 87 CURVE SMOOTH",
"63 96 OFFCURVE",
"63 105 OFFCURVE",
"65 116 CURVE SMOOTH",
"114 467 LINE SMOOTH",
"128 566 OFFCURVE",
"176 583 OFFCURVE",
"251 583 CURVE SMOOTH",
"314 583 OFFCURVE",
"358 571 OFFCURVE",
"358 503 CURVE SMOOTH",
"358 494 OFFCURVE",
"358 484 OFFCURVE",
"356 473 CURVE SMOOTH",
"343 381 LINE",
"359 381 LINE",
"372 469 LINE SMOOTH",
"374 482 OFFCURVE",
"375 494 OFFCURVE",
"375 504 CURVE SMOOTH",
"375 586 OFFCURVE",
"322 599 OFFCURVE",
"254 599 CURVE SMOOTH",
"177 599 OFFCURVE",
"115 585 OFFCURVE",
"99 469 CURVE SMOOTH",
"49 118 LINE SMOOTH",
"47 105 OFFCURVE",
"46 93 OFFCURVE",
"46 83 CURVE SMOOTH",
"46 1 OFFCURVE",
"99 -12 OFFCURVE",
"166 -12 CURVE SMOOTH"
);
}
);
width = 408;
}
);
leftKerningGroup = O;
leftMetricsKey = O;
note = C;
rightKerningGroup = C;
rightMetricsKey = O;
unicode = 0043;
},
{
glyphname = D;
lastChange = "2022-04-05 22:44:37 +0000";
layers = (
{
anchors = (
{
name = bottom;
position = "{182, 0}";
},
{
name = center;
position = "{141, 296}";
},
{
name = top;
position = "{249, 591}";
}
);
layerId = "9AA098C0-EDBC-463F-BC21-AFCD07A070D0";
paths = (
{
closed = 1;
nodes = (
"200 0 LINE SMOOTH",
"276 0 OFFCURVE",
"329 25 OFFCURVE",
"344 130 CURVE SMOOTH",
"390 461 LINE SMOOTH",
"392 474 OFFCURVE",
"393 485 OFFCURVE",
"393 496 CURVE SMOOTH",
"393 572 OFFCURVE",
"346 591 OFFCURVE",
"284 591 CURVE SMOOTH",
"128 591 LINE",
"44 0 LINE"
);
},
{
closed = 1;
nodes = (
"141 576 LINE",
"281 576 LINE SMOOTH",
"341 576 OFFCURVE",
"376 554 OFFCURVE",
"376 489 CURVE SMOOTH",
"376 479 OFFCURVE",
"375 467 OFFCURVE",
"373 455 CURVE SMOOTH",
"328 135 LINE SMOOTH",
"315 39 OFFCURVE",
"271 16 OFFCURVE",
"203 16 CURVE SMOOTH",
"63 16 LINE"
);
}
);
width = 428;
}
);
leftKerningGroup = H;
leftMetricsKey = H;
note = D;
rightKerningGroup = O;
rightMetricsKey = O;
unicode = 0044;
},
{
glyphname = E;
lastChange = "2022-04-05 22:15:45 +0000";
layers = (
{
anchors = (
{
name = bottom;
position = "{163, 0}";
},
{
name = ogonek;
position = "{275, 0}";
},
{
name = top;
position = "{247, 591}";
},
{
name = topleft;
position = "{100, 591}";
}
);
background = {
paths = (
{
closed = 1;
nodes = (
"288 0 LINE",
"289 11 LINE",
"60 11 LINE",
"102 306 LINE",
"280 306 LINE",
"281 317 LINE",
"103 317 LINE",
"140 580 LINE",
"369 580 LINE",
"371 591 LINE",
"130 591 LINE",
"47 0 LINE"
);
}
);
};
layerId = "9AA098C0-EDBC-463F-BC21-AFCD07A070D0";
paths = (
{
closed = 1;
nodes = (
"289 0 LINE",
"292 16 LINE",
"63 16 LINE",
"103 303 LINE",
"281 303 LINE",
"283 319 LINE",
"105 319 LINE",
"141 575 LINE",
"370 575 LINE",
"373 591 LINE",
"128 591 LINE",
"44 0 LINE"
);
}
);
width = 352;
}
);
leftKerningGroup = H;
leftMetricsKey = H;
note = E;
rightKerningGroup = E;
unicode = 0045;
},
{
glyphname = F;
lastChange = "2022-04-05 22:15:45 +0000";
layers = (
{
background = {
paths = (
{
closed = 1;
nodes = (
"61 0 LINE",
"104 306 LINE",
"282 306 LINE",
"283 317 LINE",
"105 317 LINE",
"142 580 LINE",
"371 580 LINE",
"373 591 LINE",
"132 591 LINE",
"49 0 LINE"
);
}
);
};
layerId = "9AA098C0-EDBC-463F-BC21-AFCD07A070D0";
paths = (
{
closed = 1;
nodes = (
"60 0 LINE",
"103 303 LINE",
"281 303 LINE",
"283 319 LINE",
"105 319 LINE",
"141 575 LINE",
"370 575 LINE",
"373 591 LINE",
"128 591 LINE",
"44 0 LINE"
);
}
);
userData = {
assembly = "SVTCA[0]	/* SetFreedomAndProjectionVectorToAxis */\012PUSHW[ ]	/* 1 value pushed */\0120 \012RCVT[ ]	/* ReadCVT */\012IF[ ]	/* If */\012PUSHW[ ]	/* 1 value pushed */\0128 \012MDAP[1]	/* MoveDirectAbsPt */\012ELSE[ ]	/* Else */\012PUSHW[ ]	/* 2 values pushed */\0128 5 \012MIAP[0]	/* MoveIndirectAbsPt */\012EIF[ ]	/* EndIf */\012IUP[0]	/* InterpolateUntPts */\012IUP[1]	/* InterpolateUntPts */";
};
width = 341;
}
);
leftKerningGroup = H;
leftMetricsKey = H;
note = F;
rightKerningGroup = F;
unicode = 0046;
},
{
glyphname = G;
lastChange = "2022-04-05 22:57:46 +0000";
layers = (
{
anchors = (
{
name = bottom;
position = "{170, -10}";
},
{
name = top;
position = "{253, 591}";
}
);
layerId = "9AA098C0-EDBC-463F-BC21-AFCD07A070D0";
paths = (
{
closed = 1;
nodes = (
"231 -12 OFFCURVE",
"287 27 OFFCURVE",
"303 63 CURVE",
"294 0 LINE",
"310 0 LINE",
"348 271 LINE",
"225 271 LINE",
"223 256 LINE",
"330 256 LINE",
"311 125 LINE SMOOTH",
"301 49 OFFCURVE",
"241 4 OFFCURVE",
"173 4 CURVE SMOOTH",
"112 4 OFFCURVE",
"63 15 OFFCURVE",
"63 92 CURVE SMOOTH",
"63 102 OFFCURVE",
"64 113 OFFCURVE",
"66 125 CURVE SMOOTH",
"115 468 LINE SMOOTH",
"128 566 OFFCURVE",
"178 583 OFFCURVE",
"255 583 CURVE SMOOTH",
"323 583 OFFCURVE",
"362 570 OFFCURVE",
"362 501 CURVE SMOOTH",
"362 491 OFFCURVE",
"362 480 OFFCURVE",
"360 468 CURVE SMOOTH",
"350 401 LINE",
"366 401 LINE",
"376 469 LINE SMOOTH",
"378 483 OFFCURVE",
"379 495 OFFCURVE",
"379 506 CURVE SMOOTH",
"379 587 OFFCURVE",
"329 599 OFFCURVE",
"259 599 CURVE SMOOTH",
"180 599 OFFCURVE",
"115 585 OFFCURVE",
"99 469 CURVE SMOOTH",
"49 118 LINE SMOOTH",
"47 106 OFFCURVE",
"46 94 OFFCURVE",
"46 84 CURVE SMOOTH",
"46 1 OFFCURVE",
"102 -12 OFFCURVE",
"170 -12 CURVE SMOOTH"
);
}
);
userData = {
assembly = "SVTCA[0]	/* SetFreedomAndProjectionVectorToAxis */\012PUSHW[ ]	/* 1 value pushed */\0120 \012RCVT[ ]	/* ReadCVT */\012IF[ ]	/* If */\012PUSHW[ ]	/* 1 value pushed */\01238 \012MDAP[1]	/* MoveDirectAbsPt */\012ELSE[ ]	/* Else */\012PUSHW[ ]	/* 2 values pushed */\01238 5 \012MIAP[0]	/* MoveIndirectAbsPt */\012EIF[ ]	/* EndIf */\012PUSHW[ ]	/* 1 value pushed */\0120 \012RCVT[ ]	/* ReadCVT */\012IF[ ]	/* If */\012PUSHW[ ]	/* 1 value pushed */\01248 \012MDAP[1]	/* MoveDirectAbsPt */\012ELSE[ ]	/* Else */\012PUSHW[ ]	/* 2 values pushed */\01248 5 \012MIAP[0]	/* MoveIndirectAbsPt */\012EIF[ ]	/* EndIf */\012IUP[0]	/* InterpolateUntPts */\012IUP[1]	/* InterpolateUntPts */";
};
width = 410;
}
);
leftKerningGroup = O;
leftMetricsKey = O;
note = G;
rightKerningGroup = G;
rightMetricsKey = "=O-2";
unicode = 0047;
},
{
glyphname = H;
lastChange = "2022-04-05 22:44:37 +0000";
layers = (
{
anchors = (
{
name = bottom;
position = "{183, 0}";
},
{
name = center;
position = "{225, 296}";
},
{
name = top;
position = "{266, 591}";
},
{
name = topleft;
position = "{99, 591}";
}
);
layerId = "9AA098C0-EDBC-463F-BC21-AFCD07A070D0";
paths = (
{
closed = 1;
nodes = (
"60 0 LINE",
"103 302 LINE",
"352 302 LINE",
"309 0 LINE",
"325 0 LINE",
"409 591 LINE",
"393 591 LINE",
"354 318 LINE",
"105 318 LINE",
"144 591 LINE",
"128 591 LINE",
"44 0 LINE"
);
}
);
userData = {
assembly = "SVTCA[0]	/* SetFreedomAndProjectionVectorToAxis */\012PUSHW[ ]	/* 1 value pushed */\0120 \012RCVT[ ]	/* ReadCVT */\012IF[ ]	/* If */\012PUSHW[ ]	/* 1 value pushed */\0120 \012MDAP[1]	/* MoveDirectAbsPt */\012ELSE[ ]	/* Else */\012PUSHW[ ]	/* 2 values pushed */\0120 5 \012MIAP[0]	/* MoveIndirectAbsPt */\012EIF[ ]	/* EndIf */\012PUSHW[ ]	/* 1 value pushed */\0120 \012RCVT[ ]	/* ReadCVT */\012IF[ ]	/* If */\012PUSHW[ ]	/* 1 value pushed */\0124 \012MDAP[1]	/* MoveDirectAbsPt */\012ELSE[ ]	/* Else */\012PUSHW[ ]	/* 2 values pushed */\0124 5 \012MIAP[0]	/* MoveIndirectAbsPt */\012EIF[ ]	/* EndIf */\012IUP[0]	/* InterpolateUntPts */\012IUP[1]	/* InterpolateUntPts */";
};
width = 438;
}
);
leftKerningGroup = H;
note = H;
rightKerningGroup = H;
unicode = 0048;
},
{
glyphname = I;
lastChange = "2022-04-05 22:57:46 +0000";
layers = (
{
anchors = (
{
name = bottom;
position = "{39, 0}";
},
{
name = ogonek;
position = "{56, 0}";
},
{
name = top;
position = "{122, 591}";
},
{
name = topleft;
position = "{86, 591}";
}
);
layerId = "9AA098C0-EDBC-463F-BC21-AFCD07A070D0";
paths = (
{
closed = 1;
nodes = (
"45 0 LINE",
"129 591 LINE",
"113 591 LINE",
"29 0 LINE"
);
}
);
userData = {
assembly = "SVTCA[0]	/* SetFreedomAndProjectionVectorToAxis */\012PUSHW[ ]	/* 1 value pushed */\0120 \012RCVT[ ]	/* ReadCVT */\012IF[ ]	/* If */\012PUSHW[ ]	/* 1 value pushed */\0120 \012MDAP[1]	/* MoveDirectAbsPt */\012ELSE[ ]	/* Else */\012PUSHW[ ]	/* 2 values pushed */\0120 5 \012MIAP[0]	/* MoveIndirectAbsPt */\012EIF[ ]	/* EndIf */\012IUP[0]	/* InterpolateUntPts */\012IUP[1]	/* InterpolateUntPts */";
};
width = 135;
}
);
leftKerningGroup = H;
leftMetricsKey = h;
note = I;
rightKerningGroup = H;
rightMetricsKey = h;
unicode = 0049;
},
{
glyphname = J;
lastChange = "2022-04-05 22:57:46 +0000";
layers = (
{
anchors = (
{
name = bottom;
position = "{66, 0}";
},
{
name = top;
position = "{169, 591}";
}
);
layerId = "9AA098C0-EDBC-463F-BC21-AFCD07A070D0";
paths = (
{
closed = 1;
nodes = (
"-6 0 LINE SMOOTH",
"29 0 OFFCURVE",
"54 4 OFFCURVE",
"71 15 CURVE SMOOTH",
"98 32 OFFCURVE",
"103 57 OFFCURVE",
"112 117 CURVE SMOOTH",
"179 591 LINE",
"163 591 LINE",
"92 92 LINE SMOOTH",
"88 62 OFFCURVE",
"78 36 OFFCURVE",
"61 26 CURVE SMOOTH",
"47 17 OFFCURVE",
"27 16 OFFCURVE",
"0 16 CURVE SMOOTH",
"-23 16 LINE",
"-26 0 LINE"
);
}
);
width = 208;
}
);
leftKerningGroup = J;
note = J;
rightKerningGroup = J;
rightMetricsKey = H;
unicode = 004A;
},
{
glyphname = K;
lastChange = "2022-04-05 22:44:37 +0000";
layers = (
{
anchors = (
{
name = bottom;
position = "{142, 0}";
},
{
name = top;
position = "{225, 591}";
}
);
layerId = "9AA098C0-EDBC-463F-BC21-AFCD07A070D0";
paths = (
{
closed = 1;
nodes = (
"291 0 LINE",
"149 306 LINE",
"371 591 LINE",
"352 591 LINE",
"131 306 LINE",
"272 0 LINE"
);
},
{
closed = 1;
nodes = (
"60 0 LINE",
"144 591 LINE",
"128 591 LINE",
"44 0 LINE"
);
}
);
userData = {
assembly = "SVTCA[0]	/* SetFreedomAndProjectionVectorToAxis */\012PUSHW[ ]	/* 1 value pushed */\0120 \012RCVT[ ]	/* ReadCVT */\012IF[ ]	/* If */\012PUSHW[ ]	/* 1 value pushed */\0124 \012MDAP[1]	/* MoveDirectAbsPt */\012ELSE[ ]	/* Else */\012PUSHW[ ]	/* 2 values pushed */\0124 5 \012MIAP[0]	/* MoveIndirectAbsPt */\012EIF[ ]	/* EndIf */\012PUSHW[ ]	/* 1 value pushed */\0120 \012RCVT[ ]	/* ReadCVT */\012IF[ ]	/* If */\012PUSHW[ ]	/* 1 value pushed */\0126 \012MDAP[1]	/* MoveDirectAbsPt */\012ELSE[ ]	/* Else */\012PUSHW[ ]	/* 2 values pushed */\0126 5 \012MIAP[0]	/* MoveIndirectAbsPt */\012EIF[ ]	/* EndIf */\012IUP[0]	/* InterpolateUntPts */\012IUP[1]	/* InterpolateUntPts */";
};
width = 342;
}
);
leftKerningGroup = H;
leftMetricsKey = H;
note = K;
rightKerningGroup = K;
unicode = 004B;
},
{
glyphname = L;
lastChange = "2022-04-05 22:44:37 +0000";
layers = (
{
anchors = (
{
name = bottom;
position = "{148, 0}";
},
{
name = center;
position = "{172, 296}";
},
{
name = top;
position = "{142, 591}";
},
{
name = topright;
position = "{241, 481}";
}
);
layerId = "9AA098C0-EDBC-463F-BC21-AFCD07A070D0";
paths = (
{
closed = 1;
nodes = (
"258 0 LINE",
"261 16 LINE",
"63 16 LINE",
"144 591 LINE",
"128 591 LINE",
"44 0 LINE"
);
}
);
width = 300;
}
);
leftKerningGroup = H;
leftMetricsKey = H;
note = L;
rightKerningGroup = L;
unicode = 004C;
},
{
glyphname = Lslash;
lastChange = "2022-04-05 22:44:37 +0000";
layers = (
{
layerId = "9AA098C0-EDBC-463F-BC21-AFCD07A070D0";
paths = (
{
closed = 1;
nodes = (
"265 0 LINE",
"268 16 LINE",
"70 16 LINE",
"91 163 LINE",
"177 201 LINE",
"179 218 LINE",
"93 181 LINE",
"151 591 LINE",
"135 591 LINE",
"76 173 LINE",
"6 143 LINE",
"3 125 LINE",
"73 156 LINE",
"51 0 LINE"
);
}
);
userData = {
assembly = "PUSHW[ ]	/* 4 values pushed */\0122 4 12 4 \012CALL[ ]	/* CallFunction */\012IUP[0]	/* InterpolateUntPts */\012IUP[1]	/* InterpolateUntPts */";
};
width = 306;
}
);
leftKerningGroup = H;
note = Lslash;
rightKerningGroup = L;
unicode = 0141;
},
{
glyphname = M;
lastChange = "2022-04-05 22:44:37 +0000";
layers = (
{
layerId = "9AA098C0-EDBC-463F-BC21-AFCD07A070D0";
paths = (
{
closed = 1;
nodes = (
"60 0 LINE",
"136 537 LINE",
"224 0 LINE",
"238 0 LINE",
"478 537 LINE",
"402 0 LINE",
"418 0 LINE",
"502 591 LINE",
"486 591 LINE",
"236 32 LINE",
"145 591 LINE",
"128 591 LINE",
"44 0 LINE"
);
}
);
userData = {
assembly = "SVTCA[0]	/* SetFreedomAndProjectionVectorToAxis */\012PUSHW[ ]	/* 1 value pushed */\0120 \012RCVT[ ]	/* ReadCVT */\012IF[ ]	/* If */\012PUSHW[ ]	/* 1 value pushed */\0120 \012MDAP[1]	/* MoveDirectAbsPt */\012ELSE[ ]	/* Else */\012PUSHW[ ]	/* 2 values pushed */\0120 5 \012MIAP[0]	/* MoveIndirectAbsPt */\012EIF[ ]	/* EndIf */\012PUSHW[ ]	/* 1 value pushed */\0120 \012RCVT[ ]	/* ReadCVT */\012IF[ ]	/* If */\012PUSHW[ ]	/* 1 value pushed */\0125 \012MDAP[1]	/* MoveDirectAbsPt */\012ELSE[ ]	/* Else */\012PUSHW[ ]	/* 2 values pushed */\0125 5 \012MIAP[0]	/* MoveIndirectAbsPt */\012EIF[ ]	/* EndIf */\012PUSHW[ ]	/* 1 value pushed */\0120 \012RCVT[ ]	/* ReadCVT */\012IF[ ]	/* If */\012PUSHW[ ]	/* 1 value pushed */\0128 \012MDAP[1]	/* MoveDirectAbsPt */\012ELSE[ ]	/* Else */\012PUSHW[ ]	/* 2 values pushed */\0128 5 \012MIAP[0]	/* MoveIndirectAbsPt */\012EIF[ ]	/* EndIf */\012IUP[0]	/* InterpolateUntPts */\012IUP[1]	/* InterpolateUntPts */";
};
width = 531;
}
);
leftKerningGroup = H;
leftMetricsKey = H;
note = M;
rightKerningGroup = H;
rightMetricsKey = H;
unicode = 004D;
},
{
glyphname = N;
lastChange = "2022-04-05 22:44:37 +0000";
layers = (
{
anchors = (
{
name = bottom;
position = "{185, 0}";
},
{
name = top;
position = "{268, 591}";
}
);
layerId = "9AA098C0-EDBC-463F-BC21-AFCD07A070D0";
paths = (
{
closed = 1;
nodes = (
"60 0 LINE",
"140 565 LINE",
"305 0 LINE",
"325 0 LINE",
"409 591 LINE",
"394 591 LINE",
"315 29 LINE",
"150 591 LINE",
"128 591 LINE",
"44 0 LINE"
);
}
);
userData = {
assembly = "SVTCA[0]	/* SetFreedomAndProjectionVectorToAxis */\012PUSHW[ ]	/* 1 value pushed */\0120 \012RCVT[ ]	/* ReadCVT */\012IF[ ]	/* If */\012PUSHW[ ]	/* 1 value pushed */\0123 \012MDAP[1]	/* MoveDirectAbsPt */\012ELSE[ ]	/* Else */\012PUSHW[ ]	/* 2 values pushed */\0123 5 \012MIAP[0]	/* MoveIndirectAbsPt */\012EIF[ ]	/* EndIf */\012PUSHW[ ]	/* 1 value pushed */\0120 \012RCVT[ ]	/* ReadCVT */\012IF[ ]	/* If */\012PUSHW[ ]	/* 1 value pushed */\0126 \012MDAP[1]	/* MoveDirectAbsPt */\012ELSE[ ]	/* Else */\012PUSHW[ ]	/* 2 values pushed */\0126 5 \012MIAP[0]	/* MoveIndirectAbsPt */\012EIF[ ]	/* EndIf */\012IUP[0]	/* InterpolateUntPts */\012IUP[1]	/* InterpolateUntPts */";
};
width = 438;
}
);
leftKerningGroup = H;
leftMetricsKey = H;
note = N;
rightKerningGroup = H;
rightMetricsKey = H;
unicode = 004E;
},
{
glyphname = Eng;
lastChange = "2022-04-05 22:44:37 +0000";
layers = (
{
layerId = "9AA098C0-EDBC-463F-BC21-AFCD07A070D0";
paths = (
{
closed = 1;
nodes = (
"324 0 LINE",
"407 591 LINE",
"392 591 LINE",
"313 29 LINE",
"148 591 LINE",
"126 591 LINE",
"43 0 LINE",
"59 0 LINE",
"138 565 LINE",
"310 -23 LINE"
);
},
{
closed = 1;
nodes = (
"265 -245 OFFCURVE",
"293 -215 OFFCURVE",
"301 -162 CURVE SMOOTH",
"324 0 LINE",
"308 0 LINE",
"285 -161 LINE SMOOTH",
"280 -197 OFFCURVE",
"262 -230 OFFCURVE",
"219 -230 CURVE SMOOTH",
"200 -230 OFFCURVE",
"184 -228 OFFCURVE",
"170 -226 CURVE",
"168 -242 LINE",
"167 -242 OFFCURVE",
"191 -245 OFFCURVE",
"216 -245 CURVE SMOOTH"
);
}
);
userData = {
assembly = "SVTCA[0]	/* SetFreedomAndProjectionVectorToAxis */\012PUSHW[ ]	/* 1 value pushed */\0120 \012RCVT[ ]	/* ReadCVT */\012IF[ ]	/* If */\012PUSHW[ ]	/* 1 value pushed */\0127 \012MDAP[1]	/* MoveDirectAbsPt */\012ELSE[ ]	/* Else */\012PUSHW[ ]	/* 2 values pushed */\0127 5 \012MIAP[0]	/* MoveIndirectAbsPt */\012EIF[ ]	/* EndIf */\012IUP[0]	/* InterpolateUntPts */\012IUP[1]	/* InterpolateUntPts */";
};
width = 437;
}
);
leftKerningGroup = H;
note = Eng;
rightKerningGroup = H;
unicode = 014A;
},
{
glyphname = O;
lastChange = "2022-04-05 22:44:37 +0000";
layers = (
{
anchors = (
{
name = bottom;
position = "{173, 0}";
},
{
name = center;
position = "{215, 296}";
},
{
name = ogonek;
position = "{190, -9}";
},
{
name = top;
position = "{256, 591}";
},
{
name = topleft;
position = "{95, 591}";
},
{
name = topright;
position = "{314, 591}";
}
);
layerId = "9AA098C0-EDBC-463F-BC21-AFCD07A070D0";
paths = (
{
closed = 1;
nodes = (
"250 -12 OFFCURVE",
"314 2 OFFCURVE",
"330 118 CURVE SMOOTH",
"380 469 LINE SMOOTH",
"382 481 OFFCURVE",
"383 493 OFFCURVE",
"383 503 CURVE SMOOTH",
"383 586 OFFCURVE",
"327 599 OFFCURVE",
"258 599 CURVE SMOOTH",
"181 599 OFFCURVE",
"115 585 OFFCURVE",
"99 469 CURVE SMOOTH",
"49 118 LINE SMOOTH",
"47 106 OFFCURVE",
"46 94 OFFCURVE",
"46 84 CURVE SMOOTH",
"46 1 OFFCURVE",
"102 -12 OFFCURVE",
"170 -12 CURVE SMOOTH"
);
},
{
closed = 1;
nodes = (
"112 4 OFFCURVE",
"63 14 OFFCURVE",
"63 89 CURVE SMOOTH",
"63 98 OFFCURVE",
"64 109 OFFCURVE",
"66 121 CURVE SMOOTH",
"114 466 LINE SMOOTH",
"129 570 OFFCURVE",
"186 583 OFFCURVE",
"255 583 CURVE SMOOTH",
"315 583 OFFCURVE",
"365 573 OFFCURVE",
"365 498 CURVE SMOOTH",
"365 488 OFFCURVE",
"365 478 OFFCURVE",
"363 466 CURVE SMOOTH",
"315 121 LINE SMOOTH",
"300 17 OFFCURVE",
"243 4 OFFCURVE",
"173 4 CURVE SMOOTH"
);
}
);
width = 416;
}
);
leftKerningGroup = O;
note = O;
rightKerningGroup = O;
unicode = 004F;
},
{
glyphname = Oslash;
lastChange = "2022-04-05 22:44:37 +0000";
layers = (
{
anchors = (
{
name = bottom;
position = "{156, 0}";
},
{
name = center;
position = "{215, 296}";
},
{
name = ogonek;
position = "{190, -9}";
},
{
name = top;
position = "{229, 591}";
},
{
name = topleft;
position = "{95, 591}";
},
{
name = topright;
position = "{314, 591}";
}
);
layerId = "9AA098C0-EDBC-463F-BC21-AFCD07A070D0";
paths = (
{
closed = 1;
nodes = (
"-9 -56 LINE",
"53 40 LINE",
"70 -4 OFFCURVE",
"117 -12 OFFCURVE",
"170 -12 CURVE SMOOTH",
"250 -12 OFFCURVE",
"314 2 OFFCURVE",
"330 118 CURVE SMOOTH",
"380 469 LINE SMOOTH",
"382 482 OFFCURVE",
"382 493 OFFCURVE",
"382 503 CURVE SMOOTH",
"382 517 OFFCURVE",
"381 530 OFFCURVE",
"378 540 CURVE",
"430 621 LINE",
"413 621 LINE",
"371 556 LINE",
"351 592 OFFCURVE",
"308 599 OFFCURVE",
"258 599 CURVE SMOOTH",
"181 599 OFFCURVE",
"115 585 OFFCURVE",
"99 469 CURVE SMOOTH",
"49 118 LINE SMOOTH",
"47 105 OFFCURVE",
"47 94 OFFCURVE",
"47 83 CURVE SMOOTH",
"47 75 OFFCURVE",
"47 67 OFFCURVE",
"48 60 CURVE",
"-27 -56 LINE"
);
},
{
closed = 1;
nodes = (
"121 4 OFFCURVE",
"78 11 OFFCURVE",
"66 60 CURVE",
"364 519 LINE",
"365 513 OFFCURVE",
"365 506 OFFCURVE",
"365 498 CURVE SMOOTH",
"365 488 OFFCURVE",
"365 478 OFFCURVE",
"363 466 CURVE SMOOTH",
"315 121 LINE SMOOTH",
"300 17 OFFCURVE",
"243 4 OFFCURVE",
"173 4 CURVE SMOOTH"
);
},
{
closed = 1;
nodes = (
"63 94 OFFCURVE",
"64 107 OFFCURVE",
"66 121 CURVE SMOOTH",
"114 466 LINE SMOOTH",
"129 570 OFFCURVE",
"186 583 OFFCURVE",
"255 583 CURVE SMOOTH",
"302 583 OFFCURVE",
"343 577 OFFCURVE",
"359 538 CURVE",
"64 83 LINE"
);
}
);
width = 414;
}
);
leftKerningGroup = O;
note = Oslash;
rightKerningGroup = O;
unicode = 00D8;
},
{
glyphname = OE;
lastChange = "2022-04-05 22:44:37 +0000";
layers = (
{
anchors = (
{
name = bottom;
position = "{420, 0}";
},
{
name = center;
position = "{214, 296}";
},
{
name = ogonek;
position = "{524, 0}";
},
{
name = top;
position = "{503, 591}";
},
{
name = topleft;
position = "{352, 591}";
},
{
name = topright;
position = "{310, 591}";
}
);
layerId = "9AA098C0-EDBC-463F-BC21-AFCD07A070D0";
paths = (
{
closed = 1;
nodes = (
"226 -12 OFFCURVE",
"274 -5 OFFCURVE",
"303 38 CURVE",
"298 0 LINE",
"543 0 LINE",
"545 16 LINE",
"316 16 LINE",
"356 303 LINE",
"534 303 LINE",
"537 319 LINE",
"359 319 LINE",
"395 575 LINE",
"624 575 LINE",
"626 591 LINE",
"381 591 LINE",
"375 548 LINE",
"358 591 OFFCURVE",
"312 599 OFFCURVE",
"258 599 CURVE SMOOTH",
"181 599 OFFCURVE",
"115 585 OFFCURVE",
"99 469 CURVE SMOOTH",
"49 118 LINE SMOOTH",
"47 106 OFFCURVE",
"46 94 OFFCURVE",
"46 84 CURVE SMOOTH",
"46 1 OFFCURVE",
"102 -12 OFFCURVE",
"170 -12 CURVE SMOOTH"
);
},
{
closed = 1;
nodes = (
"112 4 OFFCURVE",
"63 14 OFFCURVE",
"63 89 CURVE SMOOTH",
"63 98 OFFCURVE",
"64 109 OFFCURVE",
"66 121 CURVE SMOOTH",
"114 466 LINE SMOOTH",
"129 570 OFFCURVE",
"186 583 OFFCURVE",
"255 583 CURVE SMOOTH",
"315 583 OFFCURVE",
"365 573 OFFCURVE",
"365 498 CURVE SMOOTH",
"365 488 OFFCURVE",
"365 478 OFFCURVE",
"363 466 CURVE SMOOTH",
"315 121 LINE SMOOTH",
"300 17 OFFCURVE",
"243 4 OFFCURVE",
"173 4 CURVE SMOOTH"
);
}
);
width = 605;
}
);
leftKerningGroup = O;
leftMetricsKey = O;
note = OE;
rightKerningGroup = E;
rightMetricsKey = E;
unicode = 0152;
},
{
glyphname = P;
lastChange = "2022-04-05 22:44:37 +0000";
layers = (
{
layerId = "9AA098C0-EDBC-463F-BC21-AFCD07A070D0";
paths = (
{
closed = 1;
nodes = (
"60 0 LINE",
"99 271 LINE",
"210 271 LINE SMOOTH",
"332 271 OFFCURVE",
"364 313 OFFCURVE",
"379 418 CURVE SMOOTH",
"390 494 LINE SMOOTH",
"391 502 OFFCURVE",
"392 509 OFFCURVE",
"392 515 CURVE SMOOTH",
"392 573 OFFCURVE",
"352 591 OFFCURVE",
"280 591 CURVE SMOOTH",
"128 591 LINE",
"44 0 LINE"
);
},
{
closed = 1;
nodes = (
"141 575 LINE",
"276 575 LINE SMOOTH",
"347 575 OFFCURVE",
"374 558 OFFCURVE",
"374 505 CURVE SMOOTH",
"374 495 OFFCURVE",
"373 484 OFFCURVE",
"371 471 CURVE SMOOTH",
"363 417 LINE SMOOTH",
"349 320 OFFCURVE",
"321 287 OFFCURVE",
"212 287 CURVE SMOOTH",
"101 287 LINE"
);
}
);
userData = {
assembly = "SVTCA[0]	/* SetFreedomAndProjectionVectorToAxis */\012PUSHW[ ]	/* 1 value pushed */\0120 \012RCVT[ ]	/* ReadCVT */\012IF[ ]	/* If */\012PUSHW[ ]	/* 1 value pushed */\0121 \012MDAP[1]	/* MoveDirectAbsPt */\012ELSE[ ]	/* Else */\012PUSHW[ ]	/* 2 values pushed */\0121 5 \012MIAP[0]	/* MoveIndirectAbsPt */\012EIF[ ]	/* EndIf */\012IUP[0]	/* InterpolateUntPts */\012IUP[1]	/* InterpolateUntPts */";
};
width = 385;
}
);
leftKerningGroup = H;
leftMetricsKey = H;
note = P;
rightKerningGroup = P;
unicode = 0050;
},
{
glyphname = Thorn;
lastChange = "2022-04-05 22:44:37 +0000";
layers = (
{
layerId = "9AA098C0-EDBC-463F-BC21-AFCD07A070D0";
paths = (
{
closed = 1;
nodes = (
"31 0 LINE",
"53 151 LINE",
"187 151 LINE SMOOTH",
"281 151 OFFCURVE",
"315 211 OFFCURVE",
"323 270 CURVE SMOOTH",
"338 374 LINE SMOOTH",
"339 381 OFFCURVE",
"339 387 OFFCURVE",
"339 393 CURVE SMOOTH",
"339 450 OFFCURVE",
"298 471 OFFCURVE",
"246 471 CURVE SMOOTH",
"98 471 LINE",
"115 591 LINE",
"99 591 LINE",
"15 0 LINE"
);
},
{
closed = 1;
nodes = (
"95 455 LINE",
"247 455 LINE SMOOTH",
"288 455 OFFCURVE",
"323 433 OFFCURVE",
"323 386 CURVE SMOOTH",
"323 381 OFFCURVE",
"323 376 OFFCURVE",
"322 371 CURVE SMOOTH",
"307 270 LINE SMOOTH",
"298 202 OFFCURVE",
"250 167 OFFCURVE",
"185 167 CURVE SMOOTH",
"55 167 LINE"
);
}
);
userData = {
assembly = "SVTCA[0]	/* SetFreedomAndProjectionVectorToAxis */\012PUSHW[ ]	/* 1 value pushed */\0120 \012RCVT[ ]	/* ReadCVT */\012IF[ ]	/* If */\012PUSHW[ ]	/* 1 value pushed */\0121 \012MDAP[1]	/* MoveDirectAbsPt */\012ELSE[ ]	/* Else */\012PUSHW[ ]	/* 2 values pushed */\0121 5 \012MIAP[0]	/* MoveIndirectAbsPt */\012EIF[ ]	/* EndIf */\012IUP[0]	/* InterpolateUntPts */\012IUP[1]	/* InterpolateUntPts */";
};
width = 370;
}
);
note = Thorn;
unicode = 00DE;
},
{
glyphname = Q;
lastChange = "2022-04-05 22:44:37 +0000";
layers = (
{
layerId = "9AA098C0-EDBC-463F-BC21-AFCD07A070D0";
paths = (
{
closed = 1;
nodes = (
"281 -101 LINE",
"240 -5 LINE",
"286 7 OFFCURVE",
"319 38 OFFCURVE",
"330 118 CURVE SMOOTH",
"380 469 LINE SMOOTH",
"382 481 OFFCURVE",
"383 493 OFFCURVE",
"383 503 CURVE SMOOTH",
"383 586 OFFCURVE",
"327 599 OFFCURVE",
"258 599 CURVE SMOOTH",
"181 599 OFFCURVE",
"115 585 OFFCURVE",
"99 469 CURVE SMOOTH",
"49 118 LINE SMOOTH",
"47 106 OFFCURVE",
"46 94 OFFCURVE",
"46 84 CURVE SMOOTH",
"46 1 OFFCURVE",
"102 -12 OFFCURVE",
"170 -12 CURVE SMOOTH",
"189 -12 OFFCURVE",
"206 -11 OFFCURVE",
"222 -9 CURVE",
"267 -110 LINE"
);
},
{
closed = 1;
nodes = (
"112 4 OFFCURVE",
"63 14 OFFCURVE",
"63 89 CURVE SMOOTH",
"63 98 OFFCURVE",
"64 109 OFFCURVE",
"66 121 CURVE SMOOTH",
"114 466 LINE SMOOTH",
"129 570 OFFCURVE",
"186 583 OFFCURVE",
"255 583 CURVE SMOOTH",
"315 583 OFFCURVE",
"365 573 OFFCURVE",
"365 498 CURVE SMOOTH",
"365 488 OFFCURVE",
"365 478 OFFCURVE",
"363 466 CURVE SMOOTH",
"315 121 LINE SMOOTH",
"300 17 OFFCURVE",
"243 4 OFFCURVE",
"173 4 CURVE SMOOTH"
);
}
);
userData = {
assembly = "PUSHW[ ]	/* 4 values pushed */\01225 4 6 4 \012CALL[ ]	/* CallFunction */\012PUSHW[ ]	/* 1 value pushed */\01225 \012SRP0[ ]	/* SetRefPoint0 */\012PUSHW[ ]	/* 1 value pushed */\01249 \012MDRP[11100]	/* MoveDirectRelPt */\012SVTCA[0]	/* SetFreedomAndProjectionVectorToAxis */\012PUSHW[ ]	/* 1 value pushed */\0120 \012RCVT[ ]	/* ReadCVT */\012IF[ ]	/* If */\012PUSHW[ ]	/* 1 value pushed */\0123 \012MDAP[1]	/* MoveDirectAbsPt */\012ELSE[ ]	/* Else */\012PUSHW[ ]	/* 2 values pushed */\0123 5 \012MIAP[0]	/* MoveIndirectAbsPt */\012EIF[ ]	/* EndIf */\012PUSHW[ ]	/* 1 value pushed */\0120 \012RCVT[ ]	/* ReadCVT */\012IF[ ]	/* If */\012PUSHW[ ]	/* 1 value pushed */\0126 \012MDAP[1]	/* MoveDirectAbsPt */\012ELSE[ ]	/* Else */\012PUSHW[ ]	/* 2 values pushed */\0126 5 \012MIAP[0]	/* MoveIndirectAbsPt */\012EIF[ ]	/* EndIf */\012PUSHW[ ]	/* 1 value pushed */\0120 \012RCVT[ ]	/* ReadCVT */\012IF[ ]	/* If */\012PUSHW[ ]	/* 1 value pushed */\01242 \012MDAP[1]	/* MoveDirectAbsPt */\012ELSE[ ]	/* Else */\012PUSHW[ ]	/* 2 values pushed */\01242 5 \012MIAP[0]	/* MoveIndirectAbsPt */\012EIF[ ]	/* EndIf */\012IUP[0]	/* InterpolateUntPts */\012IUP[1]	/* InterpolateUntPts */";
};
width = 416;
}
);
leftKerningGroup = O;
leftMetricsKey = O;
note = Q;
rightKerningGroup = O;
rightMetricsKey = O;
unicode = 0051;
},
{
glyphname = R;
lastChange = "2022-04-05 22:44:37 +0000";
layers = (
{
anchors = (
{
name = bottom;
position = "{190, 0}";
},
{
name = top;
position = "{257, 591}";
}
);
background = {
paths = (
{
closed = 1;
nodes = (
"58 0 LINE",
"99 292 LINE",
"218 292 LINE SMOOTH",
"259 292 OFFCURVE",
"280 257 OFFCURVE",
"288 205 CURVE SMOOTH",
"321 0 LINE",
"335 0 LINE",
"297 224 LINE SMOOTH",
"290 256 OFFCURVE",
"273 293 OFFCURVE",
"241 296 CURVE",
"308 296 OFFCURVE",
"361 333 OFFCURVE",
"371 411 CURVE SMOOTH",
"383 494 LINE SMOOTH",
"384 501 OFFCURVE",
"385 507 OFFCURVE",
"385 513 CURVE SMOOTH",
"385 568 OFFCURVE",
"345 591 OFFCURVE",
"291 591 CURVE SMOOTH",
"129 591 LINE",
"46 0 LINE"
);
},
{
closed = 1;
nodes = (
"139 580 LINE",
"297 580 LINE SMOOTH",
"338 580 OFFCURVE",
"372 558 OFFCURVE",
"372 511 CURVE SMOOTH",
"372 506 OFFCURVE",
"372 501 OFFCURVE",
"371 496 CURVE SMOOTH",
"359 409 LINE SMOOTH",
"349 333 OFFCURVE",
"295 303 OFFCURVE",
"225 303 CURVE SMOOTH",
"100 303 LINE"
);
}
);
};
layerId = "9AA098C0-EDBC-463F-BC21-AFCD07A070D0";
paths = (
{
closed = 1;
nodes = (
"60 0 LINE",
"101 287 LINE",
"212 287 LINE SMOOTH",
"261 287 OFFCURVE",
"282 252 OFFCURVE",
"291 200 CURVE SMOOTH",
"323 0 LINE",
"340 0 LINE",
"303 224 LINE SMOOTH",
"297 256 OFFCURVE",
"278 288 OFFCURVE",
"257 291 CURVE",
"307 297 OFFCURVE",
"363 328 OFFCURVE",
"374 411 CURVE SMOOTH",
"386 494 LINE SMOOTH",
"387 501 OFFCURVE",
"387 507 OFFCURVE",
"387 513 CURVE SMOOTH",
"387 570 OFFCURVE",
"346 591 OFFCURVE",
"294 591 CURVE SMOOTH",
"128 591 LINE",
"44 0 LINE"
);
},
{
closed = 1;
nodes = (
"141 575 LINE",
"295 575 LINE SMOOTH",
"336 575 OFFCURVE",
"370 553 OFFCURVE",
"370 506 CURVE SMOOTH",
"370 501 OFFCURVE",
"370 496 OFFCURVE",
"369 491 CURVE SMOOTH",
"358 409 LINE SMOOTH",
"347 331 OFFCURVE",
"292 303 OFFCURVE",
"224 303 CURVE SMOOTH",
"103 303 LINE"
);
}
);
userData = {
assembly = "SVTCA[0]	/* SetFreedomAndProjectionVectorToAxis */\012PUSHW[ ]	/* 1 value pushed */\0120 \012RCVT[ ]	/* ReadCVT */\012IF[ ]	/* If */\012PUSHW[ ]	/* 1 value pushed */\0121 \012MDAP[1]	/* MoveDirectAbsPt */\012ELSE[ ]	/* Else */\012PUSHW[ ]	/* 2 values pushed */\0121 5 \012MIAP[0]	/* MoveIndirectAbsPt */\012EIF[ ]	/* EndIf */\012PUSHW[ ]	/* 1 value pushed */\0120 \012RCVT[ ]	/* ReadCVT */\012IF[ ]	/* If */\012PUSHW[ ]	/* 1 value pushed */\01219 \012MDAP[1]	/* MoveDirectAbsPt */\012ELSE[ ]	/* Else */\012PUSHW[ ]	/* 2 values pushed */\01219 5 \012MIAP[0]	/* MoveIndirectAbsPt */\012EIF[ ]	/* EndIf */\012PUSHW[ ]	/* 4 values pushed */\01215 1 18 4 \012CALL[ ]	/* CallFunction */\012PUSHW[ ]	/* 1 value pushed */\01215 \012SRP0[ ]	/* SetRefPoint0 */\012PUSHW[ ]	/* 1 value pushed */\0120 \012MDRP[10000]	/* MoveDirectRelPt */\012PUSHW[ ]	/* 1 value pushed */\0120 \012MDAP[1]	/* MoveDirectAbsPt */\012PUSHW[ ]	/* 1 value pushed */\01215 \012SRP0[ ]	/* SetRefPoint0 */\012PUSHW[ ]	/* 1 value pushed */\01225 \012MDRP[10000]	/* MoveDirectRelPt */\012PUSHW[ ]	/* 1 value pushed */\01225 \012MDAP[1]	/* MoveDirectAbsPt */\012IUP[0]	/* InterpolateUntPts */\012IUP[1]	/* InterpolateUntPts */";
};
width = 415;
}
);
leftKerningGroup = H;
leftMetricsKey = H;
note = R;
rightKerningGroup = R;
unicode = 0052;
},
{
glyphname = S;
lastChange = "2022-04-05 22:44:37 +0000";
layers = (
{
anchors = (
{
name = bottom;
position = "{140, 0}";
},
{
name = top;
position = "{220, 591}";
}
);
layerId = "9AA098C0-EDBC-463F-BC21-AFCD07A070D0";
paths = (
{
closed = 1;
nodes = (
"207 -9 OFFCURVE",
"275 31 OFFCURVE",
"291 146 CURVE SMOOTH",
"293 161 OFFCURVE",
"294 174 OFFCURVE",
"294 185 CURVE SMOOTH",
"294 256 OFFCURVE",
"255 277 OFFCURVE",
"177 310 CURVE SMOOTH",
"128 330 OFFCURVE",
"84 351 OFFCURVE",
"84 420 CURVE SMOOTH",
"84 429 OFFCURVE",
"85 438 OFFCURVE",
"86 448 CURVE SMOOTH",
"96 523 OFFCURVE",
"133 579 OFFCURVE",
"216 579 CURVE SMOOTH",
"280 579 OFFCURVE",
"316 546 OFFCURVE",
"316 488 CURVE SMOOTH",
"316 480 OFFCURVE",
"315 473 OFFCURVE",
"314 465 CURVE SMOOTH",
"309 429 LINE",
"325 429 LINE",
"331 469 LINE SMOOTH",
"332 478 OFFCURVE",
"333 486 OFFCURVE",
"333 494 CURVE SMOOTH",
"333 558 OFFCURVE",
"289 595 OFFCURVE",
"218 595 CURVE SMOOTH",
"126 595 OFFCURVE",
"82 537 OFFCURVE",
"70 448 CURVE SMOOTH",
"68 436 OFFCURVE",
"68 426 OFFCURVE",
"68 416 CURVE SMOOTH",
"68 347 OFFCURVE",
"106 321 OFFCURVE",
"166 296 CURVE SMOOTH",
"226 272 OFFCURVE",
"276 254 OFFCURVE",
"276 178 CURVE SMOOTH",
"276 168 OFFCURVE",
"276 158 OFFCURVE",
"274 146 CURVE SMOOTH",
"260 42 OFFCURVE",
"202 7 OFFCURVE",
"132 7 CURVE SMOOTH",
"75 7 OFFCURVE",
"41 34 OFFCURVE",
"41 125 CURVE SMOOTH",
"41 136 OFFCURVE",
"42 149 OFFCURVE",
"43 163 CURVE SMOOTH",
"44 175 LINE",
"28 175 LINE",
"27 163 LINE SMOOTH",
"26 148 OFFCURVE",
"25 134 OFFCURVE",
"25 121 CURVE SMOOTH",
"25 22 OFFCURVE",
"62 -9 OFFCURVE",
"130 -9 CURVE SMOOTH"
);
}
);
width = 343;
}
);
leftKerningGroup = S;
note = S;
rightKerningGroup = S;
unicode = 0053;
},
{
glyphname = Germandbls;
lastChange = "2022-04-05 22:57:46 +0000";
layers = (
{
associatedMasterId = "9AA098C0-EDBC-463F-BC21-AFCD07A070D0";
background = {
paths = (
{
closed = 1;
nodes = (
"718 -8 OFFCURVE",
"794 36 OFFCURVE",
"794 171 CURVE SMOOTH",
"794 290 OFFCURVE",
"757 313 OFFCURVE",
"669 345 CURVE SMOOTH",
"626 361 OFFCURVE",
"587 368 OFFCURVE",
"587 427 CURVE SMOOTH",
"587 456 OFFCURVE",
"590 467 OFFCURVE",
"607 467 CURVE SMOOTH",
"628 467 OFFCURVE",
"628 453 OFFCURVE",
"628 399 CURVE SMOOTH",
"628 373 LINE",
"681 373 OFFCURVE",
"734 373 OFFCURVE",
"787 373 CURVE",
"787 449 LINE SMOOTH",
"787 546 OFFCURVE",
"725 593 OFFCURVE",
"605 593 CURVE SMOOTH",
"465 593 OFFCURVE",
"422 548 OFFCURVE",
"422 422 CURVE SMOOTH",
"422 332 OFFCURVE",
"443 279 OFFCURVE",
"518 246 CURVE SMOOTH",
"598 211 OFFCURVE",
"625 211 OFFCURVE",
"625 147 CURVE SMOOTH",
"625 101 OFFCURVE",
"620 92 OFFCURVE",
"605 92 CURVE SMOOTH",
"591 92 OFFCURVE",
"584 101 OFFCURVE",
"584 155 CURVE SMOOTH",
"584 206 LINE",
"528 206 OFFCURVE",
"473 206 OFFCURVE",
"417 206 CURVE",
"417 169 LINE SMOOTH",
"417 26 OFFCURVE",
"480 -8 OFFCURVE",
"599 -8 CURVE SMOOTH"
);
},
{
closed = 1;
nodes = (
"321 -8 OFFCURVE",
"397 36 OFFCURVE",
"397 171 CURVE SMOOTH",
"397 290 OFFCURVE",
"360 313 OFFCURVE",
"272 345 CURVE SMOOTH",
"229 361 OFFCURVE",
"190 368 OFFCURVE",
"190 427 CURVE SMOOTH",
"190 456 OFFCURVE",
"193 467 OFFCURVE",
"210 467 CURVE SMOOTH",
"231 467 OFFCURVE",
"231 453 OFFCURVE",
"231 399 CURVE SMOOTH",
"231 373 LINE",
"284 373 OFFCURVE",
"337 373 OFFCURVE",
"390 373 CURVE",
"390 449 LINE SMOOTH",
"390 546 OFFCURVE",
"328 593 OFFCURVE",
"208 593 CURVE SMOOTH",
"68 593 OFFCURVE",
"25 548 OFFCURVE",
"25 422 CURVE SMOOTH",
"25 332 OFFCURVE",
"46 279 OFFCURVE",
"121 246 CURVE SMOOTH",
"201 211 OFFCURVE",
"228 211 OFFCURVE",
"228 147 CURVE SMOOTH",
"228 101 OFFCURVE",
"223 92 OFFCURVE",
"208 92 CURVE SMOOTH",
"194 92 OFFCURVE",
"187 101 OFFCURVE",
"187 155 CURVE SMOOTH",
"187 206 LINE",
"131 206 OFFCURVE",
"76 206 OFFCURVE",
"20 206 CURVE",
"20 169 LINE SMOOTH",
"20 26 OFFCURVE",
"83 -8 OFFCURVE",
"202 -8 CURVE SMOOTH"
);
}
);
};
layerId = "6ADAA0BD-4310-4C3A-8DC7-22C991837926";
name = Black;
paths = (
{
closed = 1;
nodes = (
"215 -25 LINE",
"214 542 LINE SMOOTH",
"214 556 OFFCURVE",
"221 558 OFFCURVE",
"258 558 CURVE SMOOTH",
"302 558 OFFCURVE",
"302 538 OFFCURVE",
"302 483 CURVE SMOOTH",
"302 435 LINE SMOOTH",
"302 396 OFFCURVE",
"298 373 OFFCURVE",
"276 373 CURVE SMOOTH",
"239 373 LINE",
"238 293 LINE",
"256 293 LINE SMOOTH",
"301 293 OFFCURVE",
"301 270 OFFCURVE",
"301 239 CURVE SMOOTH",
"301 186 LINE SMOOTH",
"301 94 OFFCURVE",
"298 78 OFFCURVE",
"261 78 CURVE SMOOTH",
"241 78 LINE",
"241 0 LINE",
"285 0 LINE SMOOTH",
"398 0 OFFCURVE",
"474 16 OFFCURVE",
"474 121 CURVE SMOOTH",
"474 244 LINE SMOOTH",
"474 303 OFFCURVE",
"419 334 OFFCURVE",
"371 338 CURVE",
"371 342 LINE",
"413 345 OFFCURVE",
"456 382 OFFCURVE",
"456 438 CURVE SMOOTH",
"456 533 LINE SMOOTH",
"456 606 OFFCURVE",
"385 631 OFFCURVE",
"256 631 CURVE SMOOTH",
"89 631 OFFCURVE",
"58 624 OFFCURVE",
"58 584 CURVE",
"58 -25 LINE"
);
}
);
width = 499;
},
{
layerId = "9AA098C0-EDBC-463F-BC21-AFCD07A070D0";
paths = (
{
closed = 1;
nodes = (
"40 -59 LINE",
"121 519 LINE SMOOTH",
"126 552 OFFCURVE",
"126 577 OFFCURVE",
"234 577 CURVE SMOOTH",
"298 577 OFFCURVE",
"328 558 OFFCURVE",
"328 511 CURVE SMOOTH",
"328 505 OFFCURVE",
"327 498 OFFCURVE",
"326 491 CURVE SMOOTH",
"320 448 LINE SMOOTH",
"312 385 OFFCURVE",
"286 346 OFFCURVE",
"215 346 CURVE SMOOTH",
"161 346 LINE",
"159 333 LINE",
"202 333 LINE SMOOTH",
"257 333 OFFCURVE",
"304 315 OFFCURVE",
"304 254 CURVE SMOOTH",
"304 249 OFFCURVE",
"304 242 OFFCURVE",
"303 236 CURVE SMOOTH",
"287 123 LINE SMOOTH",
"274 31 OFFCURVE",
"231 15 OFFCURVE",
"172 15 CURVE SMOOTH",
"95 15 LINE",
"92 0 LINE",
"169 0 LINE SMOOTH",
"234 0 OFFCURVE",
"286 15 OFFCURVE",
"300 119 CURVE SMOOTH",
"318 244 LINE SMOOTH",
"319 249 OFFCURVE",
"319 255 OFFCURVE",
"319 260 CURVE SMOOTH",
"319 306 OFFCURVE",
"287 335 OFFCURVE",
"246 340 CURVE",
"290 344 OFFCURVE",
"327 385 OFFCURVE",
"334 441 CURVE SMOOTH",
"342 498 LINE SMOOTH",
"343 506 OFFCURVE",
"344 513 OFFCURVE",
"344 519 CURVE SMOOTH",
"344 575 OFFCURVE",
"303 593 OFFCURVE",
"236 593 CURVE SMOOTH",
"129 593 OFFCURVE",
"113 573 OFFCURVE",
"107 527 CURVE SMOOTH",
"24 -59 LINE"
);
}
);
width = 345;
}
);
unicode = 1E9E;
},
{
glyphname = Schwa;
lastChange = "2022-04-05 22:44:37 +0000";
layers = (
{
layerId = "9AA098C0-EDBC-463F-BC21-AFCD07A070D0";
paths = (
{
closed = 1;
nodes = (
"218 -8 OFFCURVE",
"280 6 OFFCURVE",
"296 122 CURVE SMOOTH",
"346 473 LINE SMOOTH",
"348 486 OFFCURVE",
"349 498 OFFCURVE",
"349 508 CURVE SMOOTH",
"349 590 OFFCURVE",
"296 603 OFFCURVE",
"229 603 CURVE SMOOTH",
"156 603 OFFCURVE",
"89 589 OFFCURVE",
"73 473 CURVE SMOOTH",
"63 402 LINE",
"79 402 LINE",
"88 468 LINE SMOOTH",
"103 572 OFFCURVE",
"160 587 OFFCURVE",
"226 587 CURVE SMOOTH",
"283 587 OFFCURVE",
"332 575 OFFCURVE",
"332 501 CURVE SMOOTH",
"332 491 OFFCURVE",
"331 480 OFFCURVE",
"329 468 CURVE SMOOTH",
"281 130 LINE SMOOTH",
"267 25 OFFCURVE",
"215 8 OFFCURVE",
"144 8 CURVE SMOOTH",
"82 8 OFFCURVE",
"37 20 OFFCURVE",
"37 90 CURVE SMOOTH",
"37 100 OFFCURVE",
"38 111 OFFCURVE",
"40 124 CURVE SMOOTH",
"57 247 LINE",
"41 247 LINE",
"23 122 LINE SMOOTH",
"21 109 OFFCURVE",
"20 97 OFFCURVE",
"20 87 CURVE SMOOTH",
"20 5 OFFCURVE",
"73 -8 OFFCURVE",
"141 -8 CURVE SMOOTH"
);
},
{
closed = 1;
nodes = (
"304 231 LINE",
"306 247 LINE",
"41 247 LINE",
"39 231 LINE"
);
}
);
width = 363;
},
{
anchors = (
{
name = bottom;
position = "{197, 0}";
},
{
name = top;
position = "{197, 591}";
}
);
associatedMasterId = "9AA098C0-EDBC-463F-BC21-AFCD07A070D0";
layerId = "EEA0EE5D-DDBE-4C62-9355-9D48BAED48A9";
name = Black;
paths = (
{
closed = 1;
nodes = (
"302 -12 OFFCURVE",
"375 14 OFFCURVE",
"375 173 CURVE SMOOTH",
"375 465 LINE SMOOTH",
"375 564 OFFCURVE",
"302 600 OFFCURVE",
"193 600 CURVE SMOOTH",
"84 600 OFFCURVE",
"18 564 OFFCURVE",
"18 465 CURVE SMOOTH",
"18 327 LINE",
"177 327 LINE",
"177 473 LINE SMOOTH",
"177 496 OFFCURVE",
"184 503 OFFCURVE",
"193 503 CURVE SMOOTH",
"203 503 OFFCURVE",
"209 496 OFFCURVE",
"209 473 CURVE SMOOTH",
"209 110 LINE SMOOTH",
"209 87 OFFCURVE",
"203 80 OFFCURVE",
"193 80 CURVE SMOOTH",
"184 80 OFFCURVE",
"177 87 OFFCURVE",
"177 110 CURVE SMOOTH",
"177 248 LINE",
"18 248 LINE",
"18 174 LINE SMOOTH",
"18 14 OFFCURVE",
"84 -12 OFFCURVE",
"193 -12 CURVE SMOOTH"
);
},
{
closed = 1;
nodes = (
"230 216 LINE",
"230 289 LINE",
"18 289 LINE",
"18 216 LINE"
);
}
);
width = 395;
}
);
leftMetricsKey = "=o-8";
rightKerningGroup = o;
rightMetricsKey = o;
unicode = 018F;
},
{
glyphname = T;
lastChange = "2022-04-05 22:44:37 +0000";
layers = (
{
anchors = (
{
name = bottom;
position = "{96, 0}";
},
{
name = center;
position = "{154, 411}";
},
{
name = top;
position = "{179, 591}";
}
);
layerId = "9AA098C0-EDBC-463F-BC21-AFCD07A070D0";
paths = (
{
closed = 1;
nodes = (
"104 0 LINE",
"185 575 LINE",
"297 575 LINE",
"300 591 LINE",
"61 591 LINE",
"58 575 LINE",
"169 575 LINE",
"88 0 LINE"
);
}
);
userData = {
assembly = "SVTCA[0]	/* SetFreedomAndProjectionVectorToAxis */\012PUSHW[ ]	/* 1 value pushed */\0120 \012RCVT[ ]	/* ReadCVT */\012IF[ ]	/* If */\012PUSHW[ ]	/* 1 value pushed */\0123 \012MDAP[1]	/* MoveDirectAbsPt */\012ELSE[ ]	/* Else */\012PUSHW[ ]	/* 2 values pushed */\0123 5 \012MIAP[0]	/* MoveIndirectAbsPt */\012EIF[ ]	/* EndIf */\012IUP[0]	/* InterpolateUntPts */\012IUP[1]	/* InterpolateUntPts */";
};
width = 264;
}
);
leftKerningGroup = T;
note = T;
rightKerningGroup = T;
unicode = 0054;
},
{
glyphname = U;
lastChange = "2022-04-05 22:57:46 +0000";
layers = (
{
anchors = (
{
name = bottom;
position = "{183, 0}";
},
{
name = ogonek;
position = "{195, -10}";
},
{
name = top;
position = "{266, 591}";
},
{
name = topright;
position = "{383, 591}";
}
);
layerId = "9AA098C0-EDBC-463F-BC21-AFCD07A070D0";
paths = (
{
closed = 1;
nodes = (
"252 -9 OFFCURVE",
"324 9 OFFCURVE",
"339 113 CURVE SMOOTH",
"406 591 LINE",
"390 591 LINE",
"323 116 LINE SMOOTH",
"310 24 OFFCURVE",
"239 7 OFFCURVE",
"178 7 CURVE SMOOTH",
"123 7 OFFCURVE",
"72 21 OFFCURVE",
"72 91 CURVE SMOOTH",
"72 99 OFFCURVE",
"73 107 OFFCURVE",
"74 116 CURVE SMOOTH",
"141 591 LINE",
"125 591 LINE",
"58 113 LINE SMOOTH",
"56 102 OFFCURVE",
"56 92 OFFCURVE",
"56 82 CURVE SMOOTH",
"56 5 OFFCURVE",
"109 -9 OFFCURVE",
"176 -9 CURVE SMOOTH"
);
},
{
closed = 1;
nodes = (
"258 -12 OFFCURVE",
"321 13 OFFCURVE",
"335 110 CURVE SMOOTH",
"402 591 LINE",
"390 591 LINE",
"322 106 LINE SMOOTH",
"310 19 OFFCURVE",
"247 -3 OFFCURVE",
"177 -3 CURVE SMOOTH",
"115 -3 OFFCURVE",
"71 15 OFFCURVE",
"71 81 CURVE SMOOTH",
"71 88 OFFCURVE",
"72 97 OFFCURVE",
"73 106 CURVE SMOOTH",
"141 591 LINE",
"129 591 LINE",
"62 110 LINE SMOOTH",
"60 99 OFFCURVE",
"59 88 OFFCURVE",
"59 79 CURVE SMOOTH",
"59 8 OFFCURVE",
"106 -12 OFFCURVE",
"176 -12 CURVE SMOOTH"
);
}
);
width = 433;
}
);
leftKerningGroup = U;
leftMetricsKey = "=H-2";
note = U;
rightKerningGroup = U;
rightMetricsKey = "=H-2";
unicode = 0055;
},
{
glyphname = V;
lastChange = "2022-04-05 22:44:37 +0000";
layers = (
{
layerId = "9AA098C0-EDBC-463F-BC21-AFCD07A070D0";
paths = (
{
closed = 1;
nodes = (
"130 0 LINE",
"335 591 LINE",
"319 591 LINE",
"129 44 LINE",
"89 591 LINE",
"73 591 LINE",
"116 0 LINE"
);
}
);
userData = {
assembly = "SVTCA[0]	/* SetFreedomAndProjectionVectorToAxis */\012PUSHW[ ]	/* 1 value pushed */\0120 \012RCVT[ ]	/* ReadCVT */\012IF[ ]	/* If */\012PUSHW[ ]	/* 1 value pushed */\0126 \012MDAP[1]	/* MoveDirectAbsPt */\012ELSE[ ]	/* Else */\012PUSHW[ ]	/* 2 values pushed */\0126 5 \012MIAP[0]	/* MoveIndirectAbsPt */\012EIF[ ]	/* EndIf */\012IUP[0]	/* InterpolateUntPts */\012IUP[1]	/* InterpolateUntPts */";
};
width = 312;
}
);
leftKerningGroup = V;
note = V;
rightKerningGroup = V;
unicode = 0056;
},
{
glyphname = W;
lastChange = "2022-04-05 22:44:37 +0000";
layers = (
{
anchors = (
{
name = bottom;
position = "{228, 0}";
},
{
name = top;
position = "{311, 591}";
}
);
background = {
paths = (
{
closed = 1;
nodes = (
"106 0 LINE",
"306 565 LINE",
"344 0 LINE",
"359 0 LINE",
"389 101 OFFCURVE",
"419 199 OFFCURVE",
"450 296 CURVE SMOOTH",
"481 392 OFFCURVE",
"511 490 OFFCURVE",
"542 591 CURVE",
"529 591 LINE",
"356 38 LINE",
"317 591 LINE",
"303 591 LINE",
"107 38 LINE",
"90 591 LINE",
"77 591 LINE",
"79 491 OFFCURVE",
"82 393 OFFCURVE",
"86 296 CURVE SMOOTH",
"89 199 OFFCURVE",
"92 101 OFFCURVE",
"94 0 CURVE"
);
},
{
closed = 1;
nodes = (
"106 0 LINE",
"307 569 LINE",
"344 0 LINE",
"359 0 LINE",
"420 201 OFFCURVE",
"482 390 OFFCURVE",
"543 591 CURVE",
"532 591 LINE",
"355 26 LINE",
"318 591 LINE",
"305 591 LINE",
"104 26 LINE",
"90 591 LINE",
"78 591 LINE",
"94 0 LINE"
);
}
);
};
layerId = "9AA098C0-EDBC-463F-BC21-AFCD07A070D0";
paths = (
{
closed = 1;
nodes = (
"106 0 LINE",
"300 553 LINE",
"335 0 LINE",
"354 0 LINE",
"540 591 LINE",
"524 591 LINE",
"349 35 LINE",
"314 591 LINE",
"297 591 LINE",
"105 45 LINE",
"89 591 LINE",
"73 591 LINE",
"89 0 LINE"
);
}
);
userData = {
assembly = "SVTCA[0]	/* SetFreedomAndProjectionVectorToAxis */\012PUSHW[ ]	/* 1 value pushed */\0120 \012RCVT[ ]	/* ReadCVT */\012IF[ ]	/* If */\012PUSHW[ ]	/* 1 value pushed */\0129 \012MDAP[1]	/* MoveDirectAbsPt */\012ELSE[ ]	/* Else */\012PUSHW[ ]	/* 2 values pushed */\0129 5 \012MIAP[0]	/* MoveIndirectAbsPt */\012EIF[ ]	/* EndIf */\012PUSHW[ ]	/* 1 value pushed */\0120 \012RCVT[ ]	/* ReadCVT */\012IF[ ]	/* If */\012PUSHW[ ]	/* 1 value pushed */\01212 \012MDAP[1]	/* MoveDirectAbsPt */\012ELSE[ ]	/* Else */\012PUSHW[ ]	/* 2 values pushed */\01212 5 \012MIAP[0]	/* MoveIndirectAbsPt */\012EIF[ ]	/* EndIf */\012IUP[0]	/* InterpolateUntPts */\012IUP[1]	/* InterpolateUntPts */";
};
width = 517;
}
);
leftKerningGroup = W;
note = W;
rightKerningGroup = W;
unicode = 0057;
},
{
glyphname = X;
lastChange = "2022-04-05 22:44:37 +0000";
layers = (
{
layerId = "9AA098C0-EDBC-463F-BC21-AFCD07A070D0";
paths = (
{
closed = 1;
nodes = (
"4 0 LINE",
"144 290 LINE",
"160 290 LINE",
"215 0 LINE",
"233 0 LINE",
"175 298 LINE",
"319 591 LINE",
"302 591 LINE",
"162 306 LINE",
"145 306 LINE",
"98 591 LINE",
"82 591 LINE",
"130 298 LINE",
"-13 0 LINE"
);
}
);
userData = {
assembly = "SVTCA[0]	/* SetFreedomAndProjectionVectorToAxis */\012PUSHW[ ]	/* 1 value pushed */\0120 \012RCVT[ ]	/* ReadCVT */\012IF[ ]	/* If */\012PUSHW[ ]	/* 1 value pushed */\0120 \012MDAP[1]	/* MoveDirectAbsPt */\012ELSE[ ]	/* Else */\012PUSHW[ ]	/* 2 values pushed */\0120 5 \012MIAP[0]	/* MoveIndirectAbsPt */\012EIF[ ]	/* EndIf */\012PUSHW[ ]	/* 1 value pushed */\0120 \012RCVT[ ]	/* ReadCVT */\012IF[ ]	/* If */\012PUSHW[ ]	/* 1 value pushed */\0129 \012MDAP[1]	/* MoveDirectAbsPt */\012ELSE[ ]	/* Else */\012PUSHW[ ]	/* 2 values pushed */\0129 5 \012MIAP[0]	/* MoveIndirectAbsPt */\012EIF[ ]	/* EndIf */\012IUP[0]	/* InterpolateUntPts */\012IUP[1]	/* InterpolateUntPts */";
};
width = 293;
}
);
note = X;
unicode = 0058;
},
{
glyphname = Y;
lastChange = "2022-04-05 22:57:46 +0000";
layers = (
{
anchors = (
{
name = bottom;
position = "{105, 0}";
},
{
name = top;
position = "{188, 591}";
},
{
name = topleft;
position = "{81, 591}";
}
);
layerId = "9AA098C0-EDBC-463F-BC21-AFCD07A070D0";
paths = (
{
closed = 1;
nodes = (
"111 0 LINE",
"147 253 LINE",
"318 591 LINE",
"301 591 LINE",
"143 275 LINE",
"87 591 LINE",
"70 591 LINE",
"131 253 LINE",
"95 0 LINE"
);
}
);
userData = {
assembly = "SVTCA[0]	/* SetFreedomAndProjectionVectorToAxis */\012PUSHW[ ]	/* 1 value pushed */\0120 \012RCVT[ ]	/* ReadCVT */\012IF[ ]	/* If */\012PUSHW[ ]	/* 1 value pushed */\0120 \012MDAP[1]	/* MoveDirectAbsPt */\012ELSE[ ]	/* Else */\012PUSHW[ ]	/* 2 values pushed */\0120 5 \012MIAP[0]	/* MoveIndirectAbsPt */\012EIF[ ]	/* EndIf */\012IUP[0]	/* InterpolateUntPts */\012IUP[1]	/* InterpolateUntPts */";
};
width = 292;
}
);
leftKerningGroup = Y;
note = Y;
rightKerningGroup = Y;
unicode = 0059;
},
{
glyphname = Z;
lastChange = "2022-04-05 22:57:46 +0000";
layers = (
{
anchors = (
{
name = bottom;
position = "{98, 0}";
},
{
name = center;
position = "{140, 296}";
},
{
name = top;
position = "{181, 591}";
}
);
layerId = "9AA098C0-EDBC-463F-BC21-AFCD07A070D0";
paths = (
{
closed = 1;
nodes = (
"208 0 LINE",
"211 16 LINE",
"7 16 LINE",
"284 577 LINE",
"286 591 LINE",
"84 591 LINE",
"81 575 LINE",
"268 577 LINE",
"-13 10 LINE",
"-15 0 LINE"
);
}
);
userData = {
assembly = "SVTCA[0]	/* SetFreedomAndProjectionVectorToAxis */\012PUSHW[ ]	/* 1 value pushed */\0120 \012RCVT[ ]	/* ReadCVT */\012IF[ ]	/* If */\012PUSHW[ ]	/* 1 value pushed */\0125 \012MDAP[1]	/* MoveDirectAbsPt */\012ELSE[ ]	/* Else */\012PUSHW[ ]	/* 2 values pushed */\0125 5 \012MIAP[0]	/* MoveIndirectAbsPt */\012EIF[ ]	/* EndIf */\012IUP[0]	/* InterpolateUntPts */\012IUP[1]	/* InterpolateUntPts */";
};
width = 264;
}
);
leftKerningGroup = Z;
note = Z;
rightKerningGroup = Z;
unicode = 005A;
},
{
glyphname = a;
lastChange = "2022-04-05 22:44:37 +0000";
layers = (
{
anchors = (
{
name = bottom;
position = "{129, 0}";
},
{
name = ogonek;
position = "{262, 0}";
},
{
name = top;
position = "{215, 495}";
}
);
layerId = "9AA098C0-EDBC-463F-BC21-AFCD07A070D0";
paths = (
{
closed = 1;
nodes = (
"192 -7 OFFCURVE",
"234 49 OFFCURVE",
"246 76 CURVE",
"237 0 LINE",
"254 0 LINE",
"324 494 LINE",
"308 494 LINE",
"304 466 LINE",
"294 490 OFFCURVE",
"249 503 OFFCURVE",
"206 503 CURVE SMOOTH",
"104 503 OFFCURVE",
"79 446 OFFCURVE",
"68 372 CURVE SMOOTH",
"32 124 LINE SMOOTH",
"30 108 OFFCURVE",
"28 92 OFFCURVE",
"28 78 CURVE SMOOTH",
"28 29 OFFCURVE",
"45 -7 OFFCURVE",
"108 -7 CURVE SMOOTH"
);
},
{
closed = 1;
nodes = (
"58 9 OFFCURVE",
"44 38 OFFCURVE",
"44 78 CURVE SMOOTH",
"44 93 OFFCURVE",
"46 110 OFFCURVE",
"49 127 CURVE SMOOTH",
"84 369 LINE SMOOTH",
"95 445 OFFCURVE",
"123 487 OFFCURVE",
"205 487 CURVE SMOOTH",
"284 487 OFFCURVE",
"297 451 OFFCURVE",
"300 439 CURVE",
"264 186 LINE SMOOTH",
"255 124 OFFCURVE",
"227 9 OFFCURVE",
"113 9 CURVE SMOOTH"
);
}
);
userData = {
assembly = "SVTCA[0]	/* SetFreedomAndProjectionVectorToAxis */\012PUSHW[ ]	/* 1 value pushed */\0120 \012RCVT[ ]	/* ReadCVT */\012IF[ ]	/* If */\012PUSHW[ ]	/* 1 value pushed */\01222 \012MDAP[1]	/* MoveDirectAbsPt */\012ELSE[ ]	/* Else */\012PUSHW[ ]	/* 2 values pushed */\01222 9 \012MIAP[0]	/* MoveIndirectAbsPt */\012EIF[ ]	/* EndIf */\012PUSHW[ ]	/* 1 value pushed */\0120 \012RCVT[ ]	/* ReadCVT */\012IF[ ]	/* If */\012PUSHW[ ]	/* 1 value pushed */\01240 \012MDAP[1]	/* MoveDirectAbsPt */\012ELSE[ ]	/* Else */\012PUSHW[ ]	/* 2 values pushed */\01240 9 \012MIAP[0]	/* MoveIndirectAbsPt */\012EIF[ ]	/* EndIf */\012PUSHW[ ]	/* 1 value pushed */\0120 \012RCVT[ ]	/* ReadCVT */\012IF[ ]	/* If */\012PUSHW[ ]	/* 1 value pushed */\0120 \012MDAP[1]	/* MoveDirectAbsPt */\012ELSE[ ]	/* Else */\012PUSHW[ ]	/* 2 values pushed */\0120 5 \012MIAP[0]	/* MoveIndirectAbsPt */\012EIF[ ]	/* EndIf */\012PUSHW[ ]	/* 1 value pushed */\0120 \012RCVT[ ]	/* ReadCVT */\012IF[ ]	/* If */\012PUSHW[ ]	/* 1 value pushed */\0127 \012MDAP[1]	/* MoveDirectAbsPt */\012ELSE[ ]	/* Else */\012PUSHW[ ]	/* 2 values pushed */\0127 5 \012MIAP[0]	/* MoveIndirectAbsPt */\012EIF[ ]	/* EndIf */\012PUSHW[ ]	/* 1 value pushed */\0120 \012RCVT[ ]	/* ReadCVT */\012IF[ ]	/* If */\012PUSHW[ ]	/* 1 value pushed */\01229 \012MDAP[1]	/* MoveDirectAbsPt */\012ELSE[ ]	/* Else */\012PUSHW[ ]	/* 2 values pushed */\01229 5 \012MIAP[0]	/* MoveIndirectAbsPt */\012EIF[ ]	/* EndIf */\012PUSHW[ ]	/* 3 values pushed */\0122 7 22 \012SRP1[ ]	/* SetRefPoint1 */\012SRP2[ ]	/* SetRefPoint2 */\012IP[ ]	/* InterpolatePts */\012PUSHW[ ]	/* 3 values pushed */\01221 7 22 \012SRP1[ ]	/* SetRefPoint1 */\012SRP2[ ]	/* SetRefPoint2 */\012IP[ ]	/* InterpolatePts */\012IUP[0]	/* InterpolateUntPts */\012IUP[1]	/* InterpolateUntPts */";
};
width = 346;
}
);
leftKerningGroup = o;
leftMetricsKey = o;
note = a;
rightKerningGroup = n;
unicode = 0061;
},
{
glyphname = ae;
lastChange = "2022-04-05 22:44:37 +0000";
layers = (
{
anchors = (
{
name = bottom;
position = "{292, 0}";
},
{
name = top;
position = "{362, 495}";
}
);
layerId = "9AA098C0-EDBC-463F-BC21-AFCD07A070D0";
paths = (
{
closed = 1;
nodes = (
"192 -7 OFFCURVE",
"234 49 OFFCURVE",
"246 76 CURVE",
"237 0 LINE",
"254 0 LINE",
"259 37 LINE",
"271 11 OFFCURVE",
"298 -7 OFFCURVE",
"357 -7 CURVE SMOOTH",
"470 -7 OFFCURVE",
"486 62 OFFCURVE",
"495 124 CURVE SMOOTH",
"501 167 LINE",
"485 167 LINE",
"479 127 LINE SMOOTH",
"470 66 OFFCURVE",
"457 9 OFFCURVE",
"359 9 CURVE SMOOTH",
"284 9 OFFCURVE",
"268 42 OFFCURVE",
"268 84 CURVE SMOOTH",
"268 98 OFFCURVE",
"270 112 OFFCURVE",
"272 127 CURVE SMOOTH",
"272 128 LINE",
"286 228 LINE",
"402 241 OFFCURVE",
"513 263 OFFCURVE",
"529 372 CURVE SMOOTH",
"531 387 OFFCURVE",
"533 403 OFFCURVE",
"533 417 CURVE SMOOTH",
"533 465 OFFCURVE",
"514 503 OFFCURVE",
"429 503 CURVE SMOOTH",
"372 503 OFFCURVE",
"339 484 OFFCURVE",
"319 458 CURVE",
"324 494 LINE",
"308 494 LINE",
"304 466 LINE",
"294 490 OFFCURVE",
"249 503 OFFCURVE",
"206 503 CURVE SMOOTH",
"104 503 OFFCURVE",
"79 446 OFFCURVE",
"68 372 CURVE SMOOTH",
"32 124 LINE SMOOTH",
"30 108 OFFCURVE",
"28 92 OFFCURVE",
"28 78 CURVE SMOOTH",
"28 29 OFFCURVE",
"45 -7 OFFCURVE",
"108 -7 CURVE SMOOTH"
);
},
{
closed = 1;
nodes = (
"58 9 OFFCURVE",
"44 38 OFFCURVE",
"44 78 CURVE SMOOTH",
"44 93 OFFCURVE",
"46 110 OFFCURVE",
"49 127 CURVE SMOOTH",
"84 369 LINE SMOOTH",
"95 445 OFFCURVE",
"123 487 OFFCURVE",
"205 487 CURVE SMOOTH",
"284 487 OFFCURVE",
"297 451 OFFCURVE",
"300 439 CURVE",
"294 396 LINE",
"292 388 OFFCURVE",
"291 380 OFFCURVE",
"290 372 CURVE SMOOTH",
"278 282 LINE",
"264 186 LINE SMOOTH",
"255 124 OFFCURVE",
"227 9 OFFCURVE",
"113 9 CURVE SMOOTH"
);
},
{
closed = 1;
nodes = (
"308 381 LINE SMOOTH",
"320 446 OFFCURVE",
"345 487 OFFCURVE",
"427 487 CURVE SMOOTH",
"501 487 OFFCURVE",
"517 458 OFFCURVE",
"517 418 CURVE SMOOTH",
"517 403 OFFCURVE",
"515 388 OFFCURVE",
"513 372 CURVE SMOOTH",
"502 293 OFFCURVE",
"412 252 OFFCURVE",
"289 244 CURVE"
);
}
);
userData = {
assembly = "SVTCA[0]	/* SetFreedomAndProjectionVectorToAxis */\012PUSHW[ ]	/* 1 value pushed */\0120 \012RCVT[ ]	/* ReadCVT */\012IF[ ]	/* If */\012PUSHW[ ]	/* 1 value pushed */\01235 \012MDAP[1]	/* MoveDirectAbsPt */\012ELSE[ ]	/* Else */\012PUSHW[ ]	/* 2 values pushed */\01235 9 \012MIAP[0]	/* MoveIndirectAbsPt */\012EIF[ ]	/* EndIf */\012PUSHW[ ]	/* 1 value pushed */\0120 \012RCVT[ ]	/* ReadCVT */\012IF[ ]	/* If */\012PUSHW[ ]	/* 1 value pushed */\01240 \012MDAP[1]	/* MoveDirectAbsPt */\012ELSE[ ]	/* Else */\012PUSHW[ ]	/* 2 values pushed */\01240 9 \012MIAP[0]	/* MoveIndirectAbsPt */\012EIF[ ]	/* EndIf */\012PUSHW[ ]	/* 1 value pushed */\0120 \012RCVT[ ]	/* ReadCVT */\012IF[ ]	/* If */\012PUSHW[ ]	/* 1 value pushed */\01281 \012MDAP[1]	/* MoveDirectAbsPt */\012ELSE[ ]	/* Else */\012PUSHW[ ]	/* 2 values pushed */\01281 9 \012MIAP[0]	/* MoveIndirectAbsPt */\012EIF[ ]	/* EndIf */\012PUSHW[ ]	/* 1 value pushed */\0120 \012RCVT[ ]	/* ReadCVT */\012IF[ ]	/* If */\012PUSHW[ ]	/* 1 value pushed */\01210 \012MDAP[1]	/* MoveDirectAbsPt */\012ELSE[ ]	/* Else */\012PUSHW[ ]	/* 2 values pushed */\01210 5 \012MIAP[0]	/* MoveIndirectAbsPt */\012EIF[ ]	/* EndIf */\012PUSHW[ ]	/* 1 value pushed */\0120 \012RCVT[ ]	/* ReadCVT */\012IF[ ]	/* If */\012PUSHW[ ]	/* 1 value pushed */\01220 \012MDAP[1]	/* MoveDirectAbsPt */\012ELSE[ ]	/* Else */\012PUSHW[ ]	/* 2 values pushed */\01220 5 \012MIAP[0]	/* MoveIndirectAbsPt */\012EIF[ ]	/* EndIf */\012PUSHW[ ]	/* 1 value pushed */\0120 \012RCVT[ ]	/* ReadCVT */\012IF[ ]	/* If */\012PUSHW[ ]	/* 1 value pushed */\01258 \012MDAP[1]	/* MoveDirectAbsPt */\012ELSE[ ]	/* Else */\012PUSHW[ ]	/* 2 values pushed */\01258 5 \012MIAP[0]	/* MoveIndirectAbsPt */\012EIF[ ]	/* EndIf */\012PUSHW[ ]	/* 1 value pushed */\0120 \012RCVT[ ]	/* ReadCVT */\012IF[ ]	/* If */\012PUSHW[ ]	/* 1 value pushed */\01270 \012MDAP[1]	/* MoveDirectAbsPt */\012ELSE[ ]	/* Else */\012PUSHW[ ]	/* 2 values pushed */\01270 5 \012MIAP[0]	/* MoveIndirectAbsPt */\012EIF[ ]	/* EndIf */\012PUSHW[ ]	/* 3 values pushed */\0129 20 40 \012SRP1[ ]	/* SetRefPoint1 */\012SRP2[ ]	/* SetRefPoint2 */\012IP[ ]	/* InterpolatePts */\012PUSHW[ ]	/* 3 values pushed */\01215 20 40 \012SRP1[ ]	/* SetRefPoint1 */\012SRP2[ ]	/* SetRefPoint2 */\012IP[ ]	/* InterpolatePts */\012PUSHW[ ]	/* 3 values pushed */\01234 20 40 \012SRP1[ ]	/* SetRefPoint1 */\012SRP2[ ]	/* SetRefPoint2 */\012IP[ ]	/* InterpolatePts */\012PUSHW[ ]	/* 3 values pushed */\01237 20 40 \012SRP1[ ]	/* SetRefPoint1 */\012SRP2[ ]	/* SetRefPoint2 */\012IP[ ]	/* InterpolatePts */\012IUP[0]	/* InterpolateUntPts */\012IUP[1]	/* InterpolateUntPts */";
};
width = 558;
}
);
leftKerningGroup = o;
leftMetricsKey = a;
note = ae;
rightKerningGroup = e;
rightMetricsKey = e;
unicode = 00E6;
},
{
glyphname = b;
lastChange = "2022-04-05 22:44:37 +0000";
layers = (
{
layerId = "9AA098C0-EDBC-463F-BC21-AFCD07A070D0";
paths = (
{
closed = 1;
nodes = (
"252 -7 OFFCURVE",
"272 48 OFFCURVE",
"283 124 CURVE SMOOTH",
"319 372 LINE SMOOTH",
"321 387 OFFCURVE",
"323 401 OFFCURVE",
"323 414 CURVE SMOOTH",
"323 468 OFFCURVE",
"300 503 OFFCURVE",
"219 503 CURVE SMOOTH",
"152 503 OFFCURVE",
"122 477 OFFCURVE",
"107 451 CURVE",
"132 630 LINE",
"116 630 LINE",
"44 124 LINE SMOOTH",
"42 110 OFFCURVE",
"41 97 OFFCURVE",
"41 85 CURVE SMOOTH",
"41 29 OFFCURVE",
"64 -7 OFFCURVE",
"147 -7 CURVE SMOOTH"
);
},
{
closed = 1;
nodes = (
"73 9 OFFCURVE",
"57 43 OFFCURVE",
"57 84 CURVE SMOOTH",
"57 99 OFFCURVE",
"60 116 OFFCURVE",
"62 133 CURVE SMOOTH",
"95 366 LINE SMOOTH",
"105 434 OFFCURVE",
"135 487 OFFCURVE",
"216 487 CURVE SMOOTH",
"290 487 OFFCURVE",
"306 451 OFFCURVE",
"306 410 CURVE SMOOTH",
"306 397 OFFCURVE",
"304 383 OFFCURVE",
"302 369 CURVE SMOOTH",
"269 133 LINE SMOOTH",
"261 74 OFFCURVE",
"246 9 OFFCURVE",
"148 9 CURVE SMOOTH"
);
}
);
userData = {
assembly = "SVTCA[0]	/* SetFreedomAndProjectionVectorToAxis */\012PUSHW[ ]	/* 1 value pushed */\01238 \012MDAP[1]	/* MoveDirectAbsPt */\012IUP[0]	/* InterpolateUntPts */\012IUP[1]	/* InterpolateUntPts */";
};
width = 351;
}
);
leftKerningGroup = b;
leftMetricsKey = "=n-3";
note = b;
rightKerningGroup = o;
rightMetricsKey = o;
unicode = 0062;
},
{
glyphname = c;
lastChange = "2022-04-05 22:44:37 +0000";
layers = (
{
anchors = (
{
name = bottom;
position = "{130, 0}";
},
{
name = top;
position = "{201, 495}";
}
);
layerId = "9AA098C0-EDBC-463F-BC21-AFCD07A070D0";
paths = (
{
closed = 1;
nodes = (
"247 -7 OFFCURVE",
"263 62 OFFCURVE",
"272 124 CURVE SMOOTH",
"278 167 LINE",
"262 167 LINE",
"256 127 LINE SMOOTH",
"248 74 OFFCURVE",
"234 9 OFFCURVE",
"136 9 CURVE SMOOTH",
"61 9 OFFCURVE",
"45 43 OFFCURVE",
"45 84 CURVE SMOOTH",
"45 98 OFFCURVE",
"47 112 OFFCURVE",
"49 127 CURVE SMOOTH",
"83 369 LINE SMOOTH",
"90 422 OFFCURVE",
"105 487 OFFCURVE",
"204 487 CURVE SMOOTH",
"265 487 OFFCURVE",
"288 462 OFFCURVE",
"288 430 CURVE SMOOTH",
"288 409 OFFCURVE",
"278 385 OFFCURVE",
"263 363 CURVE SMOOTH",
"229 315 LINE",
"249 315 LINE",
"288 373 LINE SMOOTH",
"300 390 OFFCURVE",
"307 411 OFFCURVE",
"307 431 CURVE SMOOTH",
"307 468 OFFCURVE",
"280 503 OFFCURVE",
"206 503 CURVE SMOOTH",
"91 503 OFFCURVE",
"75 433 OFFCURVE",
"67 372 CURVE SMOOTH",
"33 124 LINE SMOOTH",
"31 109 OFFCURVE",
"29 93 OFFCURVE",
"29 78 CURVE SMOOTH",
"29 32 OFFCURVE",
"47 -7 OFFCURVE",
"135 -7 CURVE SMOOTH"
);
}
);
width = 328;
}
);
leftKerningGroup = o;
leftMetricsKey = o;
note = c;
rightKerningGroup = c;
rightMetricsKey = "=o-10";
unicode = 0063;
},
{
glyphname = d;
lastChange = "2022-04-05 18:05:07 +0000";
layers = (
{
anchors = (
{
name = bottom;
position = "{132, 0}";
},
{
name = center;
position = "{291, 553}";
},
{
name = top;
position = "{336, 630}";
},
{
name = topright;
position = "{379, 503}";
}
);
layerId = "9AA098C0-EDBC-463F-BC21-AFCD07A070D0";
paths = (
{
closed = 1;
nodes = (
"242 -7 OFFCURVE",
"261 48 OFFCURVE",
"272 124 CURVE SMOOTH",
"345 630 LINE",
"329 630 LINE",
"304 462 LINE",
"299 476 OFFCURVE",
"273 503 OFFCURVE",
"210 503 CURVE SMOOTH",
"108 503 OFFCURVE",
"80 447 OFFCURVE",
"69 372 CURVE SMOOTH",
"32 124 LINE SMOOTH",
"30 110 OFFCURVE",
"29 97 OFFCURVE",
"29 85 CURVE SMOOTH",
"29 29 OFFCURVE",
"55 -7 OFFCURVE",
"138 -7 CURVE SMOOTH"
);
},
{
closed = 1;
nodes = (
"65 9 OFFCURVE",
"47 40 OFFCURVE",
"47 88 CURVE SMOOTH",
"47 106 OFFCURVE",
"49 125 OFFCURVE",
"52 146 CURVE SMOOTH",
"82 354 LINE SMOOTH",
"92 422 OFFCURVE",
"108 487 OFFCURVE",
"203 487 CURVE SMOOTH",
"277 487 OFFCURVE",
"298 451 OFFCURVE",
"298 417 CURVE SMOOTH",
"298 414 OFFCURVE",
"298 410 OFFCURVE",
"297 406 CURVE SMOOTH",
"256 127 LINE SMOOTH",
"244 48 OFFCURVE",
"219 9 OFFCURVE",
"140 9 CURVE SMOOTH"
);
}
);
userData = {
assembly = "SVTCA[0]	/* SetFreedomAndProjectionVectorToAxis */\012PUSHW[ ]	/* 1 value pushed */\01227 \012MDAP[1]	/* MoveDirectAbsPt */\012IUP[0]	/* InterpolateUntPts */\012IUP[1]	/* InterpolateUntPts */";
};
width = 345;
}
);
leftKerningGroup = o;
leftMetricsKey = o;
note = d;
rightKerningGroup = d;
rightMetricsKey = n;
unicode = 0064;
},
{
glyphname = eth;
lastChange = "2021-12-09 03:28:43 +0000";
layers = (
{
layerId = "9AA098C0-EDBC-463F-BC21-AFCD07A070D0";
paths = (
{
closed = 1;
nodes = (
"226 -7 OFFCURVE",
"260 39 OFFCURVE",
"271 123 CURVE SMOOTH",
"317 449 LINE SMOOTH",
"323 493 OFFCURVE",
"327 531 OFFCURVE",
"327 561 CURVE SMOOTH",
"327 576 OFFCURVE",
"326 588 OFFCURVE",
"324 599 CURVE SMOOTH",
"313 646 OFFCURVE",
"284 658 OFFCURVE",
"249 661 CURVE",
"281 707 LINE",
"269 707 LINE",
"238 661 LINE",
"199 660 OFFCURVE",
"167 653 OFFCURVE",
"148 646 CURVE",
"147 636 LINE",
"166 642 OFFCURVE",
"207 651 OFFCURVE",
"227 651 CURVE SMOOTH",
"231 651 LINE",
"192 591 LINE",
"204 591 LINE",
"243 650 LINE",
"299 646 OFFCURVE",
"314 613 OFFCURVE",
"314 557 CURVE SMOOTH",
"314 530 OFFCURVE",
"311 499 OFFCURVE",
"307 463 CURVE",
"290 486 OFFCURVE",
"259 503 OFFCURVE",
"204 503 CURVE SMOOTH",
"100 503 OFFCURVE",
"77 447 OFFCURVE",
"67 372 CURVE SMOOTH",
"32 124 LINE SMOOTH",
"30 109 OFFCURVE",
"29 94 OFFCURVE",
"29 81 CURVE SMOOTH",
"29 27 OFFCURVE",
"50 -7 OFFCURVE",
"133 -7 CURVE SMOOTH"
);
},
{
closed = 1;
nodes = (
"59 3 OFFCURVE",
"40 36 OFFCURVE",
"40 85 CURVE SMOOTH",
"40 98 OFFCURVE",
"41 112 OFFCURVE",
"43 127 CURVE SMOOTH",
"77 369 LINE SMOOTH",
"87 439 OFFCURVE",
"109 493 OFFCURVE",
"203 493 CURVE SMOOTH",
"269 493 OFFCURVE",
"275 475 OFFCURVE",
"305 445 CURVE",
"260 127 LINE SMOOTH",
"250 59 OFFCURVE",
"232 3 OFFCURVE",
"134 3 CURVE SMOOTH"
);
}
);
userData = {
assembly = "PUSHW[ ]	/* 3 values pushed */\01268 47 3 \012CALL[ ]	/* CallFunction */\012SVTCA[0]	/* SetFreedomAndProjectionVectorToAxis */\012PUSHW[ ]	/* 1 value pushed */\01252 \012MDAP[1]	/* MoveDirectAbsPt */\012IUP[0]	/* InterpolateUntPts */\012IUP[1]	/* InterpolateUntPts */";
};
width = 338;
}
);
leftKerningGroup = o;
note = eth;
rightKerningGroup = d;
unicode = 00F0;
},
{
glyphname = e;
lastChange = "2022-04-05 22:44:37 +0000";
layers = (
{
anchors = (
{
name = bottom;
position = "{135, 0}";
},
{
name = ogonek;
position = "{226, 10}";
},
{
name = top;
position = "{205, 495}";
}
);
layerId = "9AA098C0-EDBC-463F-BC21-AFCD07A070D0";
paths = (
{
closed = 1;
nodes = (
"247 -7 OFFCURVE",
"263 62 OFFCURVE",
"272 124 CURVE SMOOTH",
"278 167 LINE",
"262 167 LINE",
"256 127 LINE SMOOTH",
"247 66 OFFCURVE",
"234 9 OFFCURVE",
"136 9 CURVE SMOOTH",
"61 9 OFFCURVE",
"45 42 OFFCURVE",
"45 84 CURVE SMOOTH",
"45 98 OFFCURVE",
"47 112 OFFCURVE",
"49 127 CURVE SMOOTH",
"63 228 LINE",
"179 241 OFFCURVE",
"290 263 OFFCURVE",
"306 372 CURVE SMOOTH",
"308 387 OFFCURVE",
"310 403 OFFCURVE",
"310 417 CURVE SMOOTH",
"310 465 OFFCURVE",
"291 503 OFFCURVE",
"206 503 CURVE SMOOTH",
"95 503 OFFCURVE",
"75 433 OFFCURVE",
"67 372 CURVE SMOOTH",
"33 124 LINE SMOOTH",
"31 109 OFFCURVE",
"29 93 OFFCURVE",
"29 78 CURVE SMOOTH",
"29 32 OFFCURVE",
"47 -7 OFFCURVE",
"134 -7 CURVE SMOOTH"
);
},
{
closed = 1;
nodes = (
"82 363 LINE SMOOTH",
"93 438 OFFCURVE",
"115 487 OFFCURVE",
"204 487 CURVE SMOOTH",
"278 487 OFFCURVE",
"294 458 OFFCURVE",
"294 418 CURVE SMOOTH",
"294 403 OFFCURVE",
"292 388 OFFCURVE",
"290 372 CURVE SMOOTH",
"279 293 OFFCURVE",
"189 252 OFFCURVE",
"65 244 CURVE"
);
}
);
width = 335;
}
);
leftKerningGroup = o;
leftMetricsKey = o;
note = e;
rightKerningGroup = e;
rightMetricsKey = "=o-3";
unicode = 0065;
},
{
glyphname = f;
lastChange = "2022-04-05 22:44:37 +0000";
layers = (
{
background = {
paths = (
{
closed = 1;
nodes = (
"-67 -116 OFFCURVE",
"-63 -115 OFFCURVE",
"-59 -115 CURVE SMOOTH",
"-12 -112 OFFCURVE",
"25 -91 OFFCURVE",
"34 -31 CURVE SMOOTH",
"103 461 LINE",
"221 461 LINE",
"222 471 LINE",
"104 471 LINE",
"116 552 LINE SMOOTH",
"122 590 OFFCURVE",
"140 627 OFFCURVE",
"185 627 CURVE SMOOTH",
"202 627 OFFCURVE",
"217 626 OFFCURVE",
"228 625 CURVE SMOOTH",
"245 623 LINE",
"245 632 LINE",
"233 635 OFFCURVE",
"212 636 OFFCURVE",
"187 636 CURVE SMOOTH",
"135 636 OFFCURVE",
"112 603 OFFCURVE",
"104 547 CURVE SMOOTH",
"93 471 LINE",
"62 471 LINE",
"61 461 LINE",
"92 461 LINE",
"22 -32 LINE SMOOTH",
"15 -79 OFFCURVE",
"-16 -101 OFFCURVE",
"-57 -105 CURVE SMOOTH",
"-62 -106 OFFCURVE",
"-68 -106 OFFCURVE",
"-74 -106 CURVE SMOOTH",
"-80 -106 OFFCURVE",
"-86 -105 OFFCURVE",
"-93 -104 CURVE",
"-95 -114 LINE",
"-87 -115 OFFCURVE",
"-79 -116 OFFCURVE",
"-71 -116 CURVE SMOOTH"
);
}
);
};
layerId = "9AA098C0-EDBC-463F-BC21-AFCD07A070D0";
paths = (
{
closed = 1;
nodes = (
"9 -117 OFFCURVE",
"28 -86 OFFCURVE",
"40 0 CURVE SMOOTH",
"105 458 LINE",
"221 458 LINE",
"223 474 LINE",
"107 474 LINE",
"117 548 LINE SMOOTH",
"122 585 OFFCURVE",
"139 621 OFFCURVE",
"184 621 CURVE SMOOTH",
"203 621 OFFCURVE",
"219 619 OFFCURVE",
"243 616 CURVE",
"245 632 LINE",
"236 633 OFFCURVE",
"212 636 OFFCURVE",
"187 636 CURVE SMOOTH",
"135 636 OFFCURVE",
"109 605 OFFCURVE",
"101 543 CURVE SMOOTH",
"91 474 LINE",
"60 474 LINE",
"58 458 LINE",
"89 458 LINE",
"24 0 LINE SMOOTH",
"13 -73 OFFCURVE",
"2 -103 OFFCURVE",
"-47 -103 CURVE SMOOTH",
"-66 -103 OFFCURVE",
"-87 -101 OFFCURVE",
"-93 -100 CURVE",
"-95 -114 LINE",
"-89 -115 OFFCURVE",
"-75 -118 OFFCURVE",
"-50 -118 CURVE SMOOTH"
);
}
);
userData = {
assembly = "SVTCA[0]	/* SetFreedomAndProjectionVectorToAxis */\012PUSHW[ ]	/* 4 values pushed */\0127 3 21 4 \012CALL[ ]	/* CallFunction */\012IUP[0]	/* InterpolateUntPts */\012IUP[1]	/* InterpolateUntPts */";
};
width = 179;
}
);
note = f;
unicode = 0066;
},
{
glyphname = g;
lastChange = "2022-04-05 22:44:37 +0000";
layers = (
{
anchors = (
{
name = bottom;
position = "{117, -116}";
},
{
name = top;
position = "{203, 495}";
}
);
layerId = "9AA098C0-EDBC-463F-BC21-AFCD07A070D0";
paths = (
{
closed = 1;
nodes = (
"198 -115 OFFCURVE",
"242 -71 OFFCURVE",
"253 5 CURVE SMOOTH",
"322 495 LINE",
"309 495 LINE",
"302 466 LINE",
"295 474 OFFCURVE",
"272 503 OFFCURVE",
"203 503 CURVE SMOOTH",
"90 503 OFFCURVE",
"75 433 OFFCURVE",
"66 372 CURVE SMOOTH",
"36 155 LINE SMOOTH",
"34 140 OFFCURVE",
"32 125 OFFCURVE",
"32 111 CURVE SMOOTH",
"32 64 OFFCURVE",
"51 24 OFFCURVE",
"137 24 CURVE SMOOTH",
"191 24 OFFCURVE",
"234 51 OFFCURVE",
"248 78 CURVE",
"237 3 LINE SMOOTH",
"226 -78 OFFCURVE",
"171 -99 OFFCURVE",
"117 -99 CURVE SMOOTH",
"87 -99 OFFCURVE",
"45 -99 OFFCURVE",
"40 -65 CURVE",
"24 -65 LINE",
"23 -104 OFFCURVE",
"61 -115 OFFCURVE",
"115 -115 CURVE SMOOTH"
);
},
{
closed = 1;
nodes = (
"64 40 OFFCURVE",
"49 74 OFFCURVE",
"49 113 CURVE SMOOTH",
"49 128 OFFCURVE",
"51 144 OFFCURVE",
"53 158 CURVE SMOOTH",
"82 369 LINE SMOOTH",
"89 422 OFFCURVE",
"98 487 OFFCURVE",
"201 487 CURVE SMOOTH",
"283 487 OFFCURVE",
"294 450 OFFCURVE",
"298 437 CURVE",
"260 158 LINE SMOOTH",
"251 96 OFFCURVE",
"223 40 OFFCURVE",
"139 40 CURVE SMOOTH"
);
}
);
userData = {
assembly = "SVTCA[0]	/* SetFreedomAndProjectionVectorToAxis */\012PUSHW[ ]	/* 1 value pushed */\0120 \012RCVT[ ]	/* ReadCVT */\012IF[ ]	/* If */\012PUSHW[ ]	/* 1 value pushed */\01238 \012MDAP[1]	/* MoveDirectAbsPt */\012ELSE[ ]	/* Else */\012PUSHW[ ]	/* 2 values pushed */\01238 9 \012MIAP[0]	/* MoveIndirectAbsPt */\012EIF[ ]	/* EndIf */\012PUSHW[ ]	/* 1 value pushed */\0120 \012RCVT[ ]	/* ReadCVT */\012IF[ ]	/* If */\012PUSHW[ ]	/* 1 value pushed */\01256 \012MDAP[1]	/* MoveDirectAbsPt */\012ELSE[ ]	/* Else */\012PUSHW[ ]	/* 2 values pushed */\01256 9 \012MIAP[0]	/* MoveIndirectAbsPt */\012EIF[ ]	/* EndIf */\012PUSHW[ ]	/* 1 value pushed */\0120 \012RCVT[ ]	/* ReadCVT */\012IF[ ]	/* If */\012PUSHW[ ]	/* 1 value pushed */\0120 \012MDAP[1]	/* MoveDirectAbsPt */\012ELSE[ ]	/* Else */\012PUSHW[ ]	/* 2 values pushed */\0120 5 \012MIAP[0]	/* MoveIndirectAbsPt */\012EIF[ ]	/* EndIf */\012PUSHW[ ]	/* 3 values pushed */\01220 0 38 \012SRP1[ ]	/* SetRefPoint1 */\012SRP2[ ]	/* SetRefPoint2 */\012IP[ ]	/* InterpolatePts */\012PUSHW[ ]	/* 3 values pushed */\01237 0 38 \012SRP1[ ]	/* SetRefPoint1 */\012SRP2[ ]	/* SetRefPoint2 */\012IP[ ]	/* InterpolatePts */\012IUP[0]	/* InterpolateUntPts */\012IUP[1]	/* InterpolateUntPts */";
};
width = 341;
}
);
leftKerningGroup = o;
leftMetricsKey = o;
note = g;
rightKerningGroup = g;
rightMetricsKey = d;
unicode = 0067;
},
{
glyphname = h;
lastChange = "2022-04-05 22:44:37 +0000";
layers = (
{
anchors = (
{
name = bottom;
position = "{149, 0}";
},
{
name = center;
position = "{153, 560}";
},
{
name = top;
position = "{125, 630}";
}
);
layerId = "9AA098C0-EDBC-463F-BC21-AFCD07A070D0";
paths = (
{
closed = 1;
nodes = (
"46 0 LINE",
"94 348 LINE",
"105 409 OFFCURVE",
"145 487 OFFCURVE",
"223 487 CURVE SMOOTH",
"297 487 OFFCURVE",
"313 451 OFFCURVE",
"313 409 CURVE SMOOTH",
"313 394 OFFCURVE",
"311 378 OFFCURVE",
"309 363 CURVE SMOOTH",
"258 0 LINE",
"274 0 LINE",
"326 372 LINE SMOOTH",
"328 386 OFFCURVE",
"330 401 OFFCURVE",
"330 416 CURVE SMOOTH",
"330 462 OFFCURVE",
"311 503 OFFCURVE",
"225 503 CURVE SMOOTH",
"162 503 OFFCURVE",
"127 465 OFFCURVE",
"106 426 CURVE",
"134 630 LINE",
"118 630 LINE",
"30 0 LINE"
);
}
);
userData = {
assembly = "SVTCA[0]	/* SetFreedomAndProjectionVectorToAxis */\012PUSHW[ ]	/* 1 value pushed */\0120 \012RCVT[ ]	/* ReadCVT */\012IF[ ]	/* If */\012PUSHW[ ]	/* 1 value pushed */\01212 \012MDAP[1]	/* MoveDirectAbsPt */\012ELSE[ ]	/* Else */\012PUSHW[ ]	/* 2 values pushed */\01212 5 \012MIAP[0]	/* MoveIndirectAbsPt */\012EIF[ ]	/* EndIf */\012PUSHW[ ]	/* 1 value pushed */\0120 \012RCVT[ ]	/* ReadCVT */\012IF[ ]	/* If */\012PUSHW[ ]	/* 1 value pushed */\01225 \012MDAP[1]	/* MoveDirectAbsPt */\012ELSE[ ]	/* Else */\012PUSHW[ ]	/* 2 values pushed */\01225 5 \012MIAP[0]	/* MoveIndirectAbsPt */\012EIF[ ]	/* EndIf */\012IUP[0]	/* InterpolateUntPts */\012IUP[1]	/* InterpolateUntPts */";
};
width = 363;
}
);
leftKerningGroup = n;
leftMetricsKey = n;
note = h;
rightKerningGroup = n;
rightMetricsKey = n;
unicode = 0068;
},
{
glyphname = idotless;
lastChange = "2022-04-05 22:44:37 +0000";
layers = (
{
anchors = (
{
name = bottom;
position = "{44, 0}";
},
{
name = ogonek;
position = "{56, 0}";
},
{
name = top;
position = "{109, 495}";
}
);
layerId = "9AA098C0-EDBC-463F-BC21-AFCD07A070D0";
paths = (
{
closed = 1;
nodes = (
"46 0 LINE",
"115 495 LINE",
"99 495 LINE",
"30 0 LINE"
);
}
);
userData = {
assembly = "SVTCA[0]	/* SetFreedomAndProjectionVectorToAxis */\012PUSHW[ ]	/* 1 value pushed */\0120 \012RCVT[ ]	/* ReadCVT */\012IF[ ]	/* If */\012PUSHW[ ]	/* 1 value pushed */\0121 \012MDAP[1]	/* MoveDirectAbsPt */\012ELSE[ ]	/* Else */\012PUSHW[ ]	/* 2 values pushed */\0121 9 \012MIAP[0]	/* MoveIndirectAbsPt */\012EIF[ ]	/* EndIf */\012PUSHW[ ]	/* 1 value pushed */\0120 \012RCVT[ ]	/* ReadCVT */\012IF[ ]	/* If */\012PUSHW[ ]	/* 1 value pushed */\0120 \012MDAP[1]	/* MoveDirectAbsPt */\012ELSE[ ]	/* Else */\012PUSHW[ ]	/* 2 values pushed */\0120 5 \012MIAP[0]	/* MoveIndirectAbsPt */\012EIF[ ]	/* EndIf */\012IUP[0]	/* InterpolateUntPts */\012IUP[1]	/* InterpolateUntPts */";
};
width = 145;
}
);
note = dotlessi;
unicode = 0131;
},
{
glyphname = jdotless;
lastChange = "2022-04-05 22:44:37 +0000";
layers = (
{
anchors = (
{
name = bottom;
position = "{11, -116}";
},
{
name = top;
position = "{101, 495}";
}
);
layerId = "9AA098C0-EDBC-463F-BC21-AFCD07A070D0";
paths = (
{
closed = 1;
nodes = (
"0 -116 OFFCURVE",
"28 -86 OFFCURVE",
"36 -33 CURVE SMOOTH",
"110 495 LINE",
"94 495 LINE",
"20 -32 LINE SMOOTH",
"15 -68 OFFCURVE",
"-3 -101 OFFCURVE",
"-46 -101 CURVE SMOOTH",
"-65 -101 OFFCURVE",
"-82 -99 OFFCURVE",
"-95 -97 CURVE",
"-98 -113 LINE",
"-99 -113 OFFCURVE",
"-74 -116 OFFCURVE",
"-49 -116 CURVE SMOOTH"
);
}
);
width = 127;
}
);
leftKerningGroup = j;
rightKerningGroup = j;
unicode = 0237;
},
{
glyphname = k;
lastChange = "2022-04-05 22:57:46 +0000";
layers = (
{
anchors = (
{
name = bottom;
position = "{137, 0}";
},
{
name = top;
position = "{204, 630}";
}
);
layerId = "9AA098C0-EDBC-463F-BC21-AFCD07A070D0";
paths = (
{
closed = 1;
nodes = (
"46 0 LINE",
"85 280 LINE",
"108 280 LINE SMOOTH",
"153 280 OFFCURVE",
"216 103 OFFCURVE",
"229 0 CURVE",
"246 0 LINE",
"236 75 OFFCURVE",
"207 210 OFFCURVE",
"137 287 CURVE",
"165 290 OFFCURVE",
"273 392 OFFCURVE",
"308 495 CURVE",
"292 495 LINE",
"258 404 OFFCURVE",
"155 296 OFFCURVE",
"111 296 CURVE SMOOTH",
"87 296 LINE",
"134 630 LINE",
"118 630 LINE",
"30 0 LINE"
);
}
);
userData = {
assembly = "SVTCA[0]	/* SetFreedomAndProjectionVectorToAxis */\012PUSHW[ ]	/* 1 value pushed */\0120 \012RCVT[ ]	/* ReadCVT */\012IF[ ]	/* If */\012PUSHW[ ]	/* 1 value pushed */\0129 \012MDAP[1]	/* MoveDirectAbsPt */\012ELSE[ ]	/* Else */\012PUSHW[ ]	/* 2 values pushed */\0129 9 \012MIAP[0]	/* MoveIndirectAbsPt */\012EIF[ ]	/* EndIf */\012PUSHW[ ]	/* 1 value pushed */\0120 \012RCVT[ ]	/* ReadCVT */\012IF[ ]	/* If */\012PUSHW[ ]	/* 1 value pushed */\0120 \012MDAP[1]	/* MoveDirectAbsPt */\012ELSE[ ]	/* Else */\012PUSHW[ ]	/* 2 values pushed */\0120 5 \012MIAP[0]	/* MoveIndirectAbsPt */\012EIF[ ]	/* EndIf */\012PUSHW[ ]	/* 1 value pushed */\0120 \012RCVT[ ]	/* ReadCVT */\012IF[ ]	/* If */\012PUSHW[ ]	/* 1 value pushed */\01220 \012MDAP[1]	/* MoveDirectAbsPt */\012ELSE[ ]	/* Else */\012PUSHW[ ]	/* 2 values pushed */\01220 5 \012MIAP[0]	/* MoveIndirectAbsPt */\012EIF[ ]	/* EndIf */\012PUSHW[ ]	/* 3 values pushed */\01215 0 9 \012SRP1[ ]	/* SetRefPoint1 */\012SRP2[ ]	/* SetRefPoint2 */\012IP[ ]	/* InterpolatePts */\012IUP[0]	/* InterpolateUntPts */\012IUP[1]	/* InterpolateUntPts */";
};
width = 290;
}
);
leftKerningGroup = b;
leftMetricsKey = n;
note = k;
rightKerningGroup = k;
unicode = 006B;
},
{
glyphname = kgreenlandic;
lastChange = "2022-04-05 22:44:37 +0000";
layers = (
{
layerId = "9AA098C0-EDBC-463F-BC21-AFCD07A070D0";
paths = (
{
closed = 1;
nodes = (
"46 0 LINE",
"75 208 LINE",
"88 232 OFFCURVE",
"106 262 OFFCURVE",
"129 293 CURVE",
"239 0 LINE",
"256 0 LINE",
"142 309 LINE",
"193 376 OFFCURVE",
"261 444 OFFCURVE",
"325 467 CURVE",
"328 483 LINE",
"235 453 OFFCURVE",
"129 328 OFFCURVE",
"80 244 CURVE",
"134 630 LINE",
"118 630 LINE",
"30 0 LINE"
);
}
);
userData = {
assembly = "SVTCA[0]	/* SetFreedomAndProjectionVectorToAxis */\012PUSHW[ ]	/* 1 value pushed */\0120 \012RCVT[ ]	/* ReadCVT */\012IF[ ]	/* If */\012PUSHW[ ]	/* 1 value pushed */\0120 \012MDAP[1]	/* MoveDirectAbsPt */\012ELSE[ ]	/* Else */\012PUSHW[ ]	/* 2 values pushed */\0120 5 \012MIAP[0]	/* MoveIndirectAbsPt */\012EIF[ ]	/* EndIf */\012PUSHW[ ]	/* 1 value pushed */\0120 \012RCVT[ ]	/* ReadCVT */\012IF[ ]	/* If */\012PUSHW[ ]	/* 1 value pushed */\01215 \012MDAP[1]	/* MoveDirectAbsPt */\012ELSE[ ]	/* Else */\012PUSHW[ ]	/* 2 values pushed */\01215 5 \012MIAP[0]	/* MoveIndirectAbsPt */\012EIF[ ]	/* EndIf */\012IUP[0]	/* InterpolateUntPts */\012IUP[1]	/* InterpolateUntPts */";
};
width = 317;
}
);
leftKerningGroup = b;
leftMetricsKey = n;
note = kgreenlandic;
rightKerningGroup = k;
unicode = 0138;
},
{
glyphname = l;
lastChange = "2022-04-05 22:44:37 +0000";
layers = (
{
anchors = (
{
name = bottom;
position = "{37, 0}";
},
{
name = center;
position = "{81, 315}";
},
{
name = top;
position = "{126, 630}";
},
{
name = topright;
position = "{153, 514}";
}
);
layerId = "9AA098C0-EDBC-463F-BC21-AFCD07A070D0";
paths = (
{
closed = 1;
nodes = (
"46 0 LINE",
"134 630 LINE",
"118 630 LINE",
"30 0 LINE"
);
}
);
userData = {
assembly = "SVTCA[0]	/* SetFreedomAndProjectionVectorToAxis */\012PUSHW[ ]	/* 1 value pushed */\0120 \012RCVT[ ]	/* ReadCVT */\012IF[ ]	/* If */\012PUSHW[ ]	/* 1 value pushed */\0120 \012MDAP[1]	/* MoveDirectAbsPt */\012ELSE[ ]	/* Else */\012PUSHW[ ]	/* 2 values pushed */\0120 5 \012MIAP[0]	/* MoveIndirectAbsPt */\012EIF[ ]	/* EndIf */\012IUP[0]	/* InterpolateUntPts */\012IUP[1]	/* InterpolateUntPts */";
};
width = 135;
}
);
leftKerningGroup = b;
leftMetricsKey = n;
note = l;
rightKerningGroup = d;
rightMetricsKey = d;
unicode = 006C;
},
{
glyphname = lslash;
lastChange = "2021-12-09 03:28:43 +0000";
layers = (
{
layerId = "9AA098C0-EDBC-463F-BC21-AFCD07A070D0";
paths = (
{
closed = 1;
nodes = (
"93 0 LINE",
"121 200 LINE",
"206 237 LINE",
"207 247 LINE",
"122 211 LINE",
"181 630 LINE",
"170 630 LINE",
"110 206 LINE",
"29 171 LINE",
"27 160 LINE",
"109 195 LINE",
"82 0 LINE"
);
}
);
userData = {
assembly = "SVTCA[0]	/* SetFreedomAndProjectionVectorToAxis */\012PUSHW[ ]	/* 1 value pushed */\0120 \012RCVT[ ]	/* ReadCVT */\012IF[ ]	/* If */\012PUSHW[ ]	/* 1 value pushed */\0120 \012MDAP[1]	/* MoveDirectAbsPt */\012ELSE[ ]	/* Else */\012PUSHW[ ]	/* 2 values pushed */\0120 5 \012MIAP[0]	/* MoveIndirectAbsPt */\012EIF[ ]	/* EndIf */\012IUP[0]	/* InterpolateUntPts */\012IUP[1]	/* InterpolateUntPts */";
};
width = 266;
}
);
leftKerningGroup = b;
note = lslash;
rightKerningGroup = lslash;
unicode = 0142;
},
{
glyphname = m;
lastChange = "2022-04-05 22:57:46 +0000";
layers = (
{
layerId = "9AA098C0-EDBC-463F-BC21-AFCD07A070D0";
paths = (
{
closed = 1;
nodes = (
"46 0 LINE",
"86 293 LINE SMOOTH",
"100 392 OFFCURVE",
"166 487 OFFCURVE",
"243 487 CURVE SMOOTH",
"300 487 OFFCURVE",
"313 455 OFFCURVE",
"313 416 CURVE SMOOTH",
"313 400 OFFCURVE",
"311 384 OFFCURVE",
"309 367 CURVE SMOOTH",
"258 0 LINE",
"274 0 LINE",
"317 301 LINE SMOOTH",
"332 407 OFFCURVE",
"399 487 OFFCURVE",
"469 487 CURVE SMOOTH",
"528 487 OFFCURVE",
"541 454 OFFCURVE",
"541 413 CURVE SMOOTH",
"541 397 OFFCURVE",
"539 380 OFFCURVE",
"537 363 CURVE SMOOTH",
"486 0 LINE",
"502 0 LINE",
"554 372 LINE SMOOTH",
"556 388 OFFCURVE",
"558 404 OFFCURVE",
"558 419 CURVE SMOOTH",
"558 464 OFFCURVE",
"542 503 OFFCURVE",
"472 503 CURVE SMOOTH",
"403 503 OFFCURVE",
"350 449 OFFCURVE",
"329 394 CURVE",
"330 402 OFFCURVE",
"330 410 OFFCURVE",
"330 418 CURVE SMOOTH",
"330 463 OFFCURVE",
"315 503 OFFCURVE",
"248 503 CURVE SMOOTH",
"177 503 OFFCURVE",
"128 449 OFFCURVE",
"103 395 CURVE",
"115 495 LINE",
"99 495 LINE",
"30 0 LINE"
);
}
);
userData = {
assembly = "SVTCA[0]	/* SetFreedomAndProjectionVectorToAxis */\012PUSHW[ ]	/* 1 value pushed */\0120 \012RCVT[ ]	/* ReadCVT */\012IF[ ]	/* If */\012PUSHW[ ]	/* 1 value pushed */\01222 \012MDAP[1]	/* MoveDirectAbsPt */\012ELSE[ ]	/* Else */\012PUSHW[ ]	/* 2 values pushed */\01222 5 \012MIAP[0]	/* MoveIndirectAbsPt */\012EIF[ ]	/* EndIf */\012PUSHW[ ]	/* 1 value pushed */\0120 \012RCVT[ ]	/* ReadCVT */\012IF[ ]	/* If */\012PUSHW[ ]	/* 1 value pushed */\01235 \012MDAP[1]	/* MoveDirectAbsPt */\012ELSE[ ]	/* Else */\012PUSHW[ ]	/* 2 values pushed */\01235 5 \012MIAP[0]	/* MoveIndirectAbsPt */\012EIF[ ]	/* EndIf */\012PUSHW[ ]	/* 1 value pushed */\0120 \012RCVT[ ]	/* ReadCVT */\012IF[ ]	/* If */\012PUSHW[ ]	/* 1 value pushed */\01248 \012MDAP[1]	/* MoveDirectAbsPt */\012ELSE[ ]	/* Else */\012PUSHW[ ]	/* 2 values pushed */\01248 5 \012MIAP[0]	/* MoveIndirectAbsPt */\012EIF[ ]	/* EndIf */\012IUP[0]	/* InterpolateUntPts */\012IUP[1]	/* InterpolateUntPts */";
};
width = 594;
}
);
leftKerningGroup = n;
leftMetricsKey = n;
note = m;
rightKerningGroup = n;
rightMetricsKey = a;
unicode = 006D;
},
{
glyphname = n;
lastChange = "2022-04-05 22:44:37 +0000";
layers = (
{
anchors = (
{
name = bottom;
position = "{147, 0}";
},
{
name = top;
position = "{218, 495}";
}
);
background = {
paths = (
{
closed = 1;
nodes = (
"30 0 LINE",
"46 0 LINE",
"86 293 LINE SMOOTH",
"100 392 OFFCURVE",
"166 487 OFFCURVE",
"237 487 CURVE SMOOTH",
"299 487 OFFCURVE",
"313 453 OFFCURVE",
"313 412 CURVE SMOOTH",
"313 396 OFFCURVE",
"311 379 OFFCURVE",
"309 363 CURVE SMOOTH",
"258 0 LINE",
"274 0 LINE",
"326 372 LINE SMOOTH",
"328 387 OFFCURVE",
"330 403 OFFCURVE",
"330 419 CURVE SMOOTH",
"330 464 OFFCURVE",
"314 503 OFFCURVE",
"241 503 CURVE SMOOTH",
"177 503 OFFCURVE",
"123 452 OFFCURVE",
"103 395 CURVE",
"115 495 LINE",
"99 495 LINE"
);
}
);
};
layerId = "9AA098C0-EDBC-463F-BC21-AFCD07A070D0";
paths = (
{
closed = 1;
nodes = (
"46 0 LINE",
"88 305 LINE SMOOTH",
"100 392 OFFCURVE",
"166 487 OFFCURVE",
"240 487 CURVE SMOOTH",
"293 487 OFFCURVE",
"313 460 OFFCURVE",
"313 412 CURVE SMOOTH",
"313 396 OFFCURVE",
"311 379 OFFCURVE",
"309 363 CURVE SMOOTH",
"258 0 LINE",
"274 0 LINE",
"326 372 LINE SMOOTH",
"328 387 OFFCURVE",
"330 403 OFFCURVE",
"330 419 CURVE SMOOTH",
"330 472 OFFCURVE",
"305 503 OFFCURVE",
"241 503 CURVE SMOOTH",
"177 503 OFFCURVE",
"126 452 OFFCURVE",
"103 395 CURVE",
"115 495 LINE",
"99 495 LINE",
"30 0 LINE"
);
}
);
userData = {
assembly = "SVTCA[0]	/* SetFreedomAndProjectionVectorToAxis */\012PUSHW[ ]	/* 1 value pushed */\0120 \012RCVT[ ]	/* ReadCVT */\012IF[ ]	/* If */\012PUSHW[ ]	/* 1 value pushed */\01212 \012MDAP[1]	/* MoveDirectAbsPt */\012ELSE[ ]	/* Else */\012PUSHW[ ]	/* 2 values pushed */\01212 5 \012MIAP[0]	/* MoveIndirectAbsPt */\012EIF[ ]	/* EndIf */\012PUSHW[ ]	/* 1 value pushed */\0120 \012RCVT[ ]	/* ReadCVT */\012IF[ ]	/* If */\012PUSHW[ ]	/* 1 value pushed */\01225 \012MDAP[1]	/* MoveDirectAbsPt */\012ELSE[ ]	/* Else */\012PUSHW[ ]	/* 2 values pushed */\01225 5 \012MIAP[0]	/* MoveIndirectAbsPt */\012EIF[ ]	/* EndIf */\012IUP[0]	/* InterpolateUntPts */\012IUP[1]	/* InterpolateUntPts */";
};
width = 363;
}
);
leftKerningGroup = n;
note = n;
rightKerningGroup = n;
unicode = 006E;
},
{
glyphname = eng;
lastChange = "2021-12-09 03:28:43 +0000";
layers = (
{
layerId = "9AA098C0-EDBC-463F-BC21-AFCD07A070D0";
paths = (
{
closed = 1;
nodes = (
"163 -116 OFFCURVE",
"166 -115 OFFCURVE",
"170 -115 CURVE SMOOTH",
"219 -112 OFFCURVE",
"257 -91 OFFCURVE",
"265 -31 CURVE SMOOTH",
"322 372 LINE SMOOTH",
"324 387 OFFCURVE",
"325 401 OFFCURVE",
"325 414 CURVE SMOOTH",
"325 467 OFFCURVE",
"304 503 OFFCURVE",
"221 503 CURVE SMOOTH",
"158 503 OFFCURVE",
"123 476 OFFCURVE",
"104 445 CURVE",
"108 495 LINE",
"99 495 LINE",
"30 0 LINE",
"42 0 LINE",
"100 417 LINE",
"113 458 OFFCURVE",
"154 493 OFFCURVE",
"220 493 CURVE SMOOTH",
"295 493 OFFCURVE",
"314 461 OFFCURVE",
"314 413 CURVE SMOOTH",
"314 399 OFFCURVE",
"312 385 OFFCURVE",
"310 369 CURVE SMOOTH",
"253 -32 LINE SMOOTH",
"246 -84 OFFCURVE",
"209 -106 OFFCURVE",
"157 -106 CURVE SMOOTH",
"150 -106 OFFCURVE",
"142 -105 OFFCURVE",
"135 -104 CURVE",
"134 -114 LINE",
"142 -115 OFFCURVE",
"151 -116 OFFCURVE",
"159 -116 CURVE SMOOTH"
);
}
);
userData = {
assembly = "SVTCA[0]	/* SetFreedomAndProjectionVectorToAxis */\012PUSHW[ ]	/* 1 value pushed */\0120 \012RCVT[ ]	/* ReadCVT */\012IF[ ]	/* If */\012PUSHW[ ]	/* 1 value pushed */\01218 \012MDAP[1]	/* MoveDirectAbsPt */\012ELSE[ ]	/* Else */\012PUSHW[ ]	/* 2 values pushed */\01218 9 \012MIAP[0]	/* MoveIndirectAbsPt */\012EIF[ ]	/* EndIf */\012PUSHW[ ]	/* 1 value pushed */\0120 \012RCVT[ ]	/* ReadCVT */\012IF[ ]	/* If */\012PUSHW[ ]	/* 1 value pushed */\01226 \012MDAP[1]	/* MoveDirectAbsPt */\012ELSE[ ]	/* Else */\012PUSHW[ ]	/* 2 values pushed */\01226 9 \012MIAP[0]	/* MoveIndirectAbsPt */\012EIF[ ]	/* EndIf */\012PUSHW[ ]	/* 1 value pushed */\0120 \012RCVT[ ]	/* ReadCVT */\012IF[ ]	/* If */\012PUSHW[ ]	/* 1 value pushed */\01224 \012MDAP[1]	/* MoveDirectAbsPt */\012ELSE[ ]	/* Else */\012PUSHW[ ]	/* 2 values pushed */\01224 5 \012MIAP[0]	/* MoveIndirectAbsPt */\012EIF[ ]	/* EndIf */\012PUSHW[ ]	/* 4 values pushed */\01231 3 23 4 \012CALL[ ]	/* CallFunction */\012PUSHW[ ]	/* 3 values pushed */\01228 23 31 \012SRP1[ ]	/* SetRefPoint1 */\012SRP2[ ]	/* SetRefPoint2 */\012IP[ ]	/* InterpolatePts */\012IUP[0]	/* InterpolateUntPts */\012IUP[1]	/* InterpolateUntPts */";
};
width = 359;
}
);
leftKerningGroup = n;
leftMetricsKey = n;
note = eng;
rightKerningGroup = n;
rightMetricsKey = n;
unicode = 014B;
},
{
glyphname = o;
lastChange = "2022-04-05 22:42:51 +0000";
layers = (
{
anchors = (
{
name = bottom;
position = "{133, 0}";
},
{
name = center;
position = "{168, 248}";
},
{
name = ogonek;
position = "{162, 0}";
},
{
name = top;
position = "{206, 495}";
},
{
name = topright;
position = "{236, 495}";
}
);
layerId = "9AA098C0-EDBC-463F-BC21-AFCD07A070D0";
paths = (
{
closed = 1;
nodes = (
"246 -7 OFFCURVE",
"267 62 OFFCURVE",
"276 124 CURVE SMOOTH",
"310 372 LINE SMOOTH",
"312 385 OFFCURVE",
"313 399 OFFCURVE",
"313 412 CURVE SMOOTH",
"313 460 OFFCURVE",
"294 503 OFFCURVE",
"209 503 CURVE SMOOTH",
"90 503 OFFCURVE",
"75 433 OFFCURVE",
"66 372 CURVE SMOOTH",
"32 124 LINE SMOOTH",
"30 109 OFFCURVE",
"28 93 OFFCURVE",
"28 78 CURVE SMOOTH",
"28 32 OFFCURVE",
"46 -7 OFFCURVE",
"133 -7 CURVE SMOOTH"
);
},
{
closed = 1;
nodes = (
"59 9 OFFCURVE",
"44 43 OFFCURVE",
"44 83 CURVE SMOOTH",
"44 97 OFFCURVE",
"46 113 OFFCURVE",
"48 127 CURVE SMOOTH",
"82 369 LINE SMOOTH",
"89 422 OFFCURVE",
"99 487 OFFCURVE",
"207 487 CURVE SMOOTH",
"282 487 OFFCURVE",
"297 450 OFFCURVE",
"297 409 CURVE SMOOTH",
"297 395 OFFCURVE",
"296 382 OFFCURVE",
"294 369 CURVE SMOOTH",
"260 127 LINE SMOOTH",
"253 74 OFFCURVE",
"238 9 OFFCURVE",
"135 9 CURVE SMOOTH"
);
}
);
width = 342;
}
);
leftKerningGroup = o;
note = o;
rightKerningGroup = o;
unicode = 006F;
},
{
glyphname = oslash;
lastChange = "2022-04-05 22:44:37 +0000";
layers = (
{
anchors = (
{
name = top;
position = "{209, 495}";
}
);
layerId = "9AA098C0-EDBC-463F-BC21-AFCD07A070D0";
paths = (
{
closed = 1;
nodes = (
"-6 -46 LINE",
"43 31 LINE",
"57 8 OFFCURVE",
"84 -7 OFFCURVE",
"138 -7 CURVE SMOOTH",
"251 -7 OFFCURVE",
"272 62 OFFCURVE",
"281 124 CURVE SMOOTH",
"315 372 LINE SMOOTH",
"317 385 OFFCURVE",
"318 398 OFFCURVE",
"318 411 CURVE SMOOTH",
"318 424 OFFCURVE",
"317 437 OFFCURVE",
"313 448 CURVE",
"378 548 LINE",
"359 548 LINE",
"306 465 LINE",
"292 488 OFFCURVE",
"265 503 OFFCURVE",
"214 503 CURVE SMOOTH",
"95 503 OFFCURVE",
"79 433 OFFCURVE",
"71 372 CURVE SMOOTH",
"37 124 LINE SMOOTH",
"35 109 OFFCURVE",
"33 93 OFFCURVE",
"33 78 CURVE SMOOTH",
"33 68 OFFCURVE",
"34 58 OFFCURVE",
"36 49 CURVE",
"-25 -46 LINE"
);
},
{
closed = 1;
nodes = (
"88 9 OFFCURVE",
"64 25 OFFCURVE",
"55 48 CURVE",
"301 429 LINE",
"302 422 OFFCURVE",
"302 416 OFFCURVE",
"302 409 CURVE SMOOTH",
"302 395 OFFCURVE",
"301 382 OFFCURVE",
"299 369 CURVE SMOOTH",
"265 127 LINE SMOOTH",
"258 74 OFFCURVE",
"243 9 OFFCURVE",
"140 9 CURVE SMOOTH"
);
},
{
closed = 1;
nodes = (
"48 88 OFFCURVE",
"51 108 OFFCURVE",
"53 127 CURVE SMOOTH",
"87 369 LINE SMOOTH",
"94 422 OFFCURVE",
"104 487 OFFCURVE",
"212 487 CURVE SMOOTH",
"261 487 OFFCURVE",
"284 471 OFFCURVE",
"295 449 CURVE",
"50 69 LINE"
);
}
);
userData = {
assembly = "PUSHW[ ]	/* 4 values pushed */\01213 4 9 4 \012CALL[ ]	/* CallFunction */\012PUSHW[ ]	/* 3 values pushed */\01233 9 13 \012SRP1[ ]	/* SetRefPoint1 */\012SRP2[ ]	/* SetRefPoint2 */\012IP[ ]	/* InterpolatePts */\012PUSHW[ ]	/* 1 value pushed */\01213 \012SRP0[ ]	/* SetRefPoint0 */\012PUSHW[ ]	/* 1 value pushed */\01259 \012MDRP[11100]	/* MoveDirectRelPt */\012SVTCA[0]	/* SetFreedomAndProjectionVectorToAxis */\012PUSHW[ ]	/* 3 values pushed */\01213 28 3 \012CALL[ ]	/* CallFunction */\012PUSHW[ ]	/* 3 values pushed */\01233 28 13 \012SRP1[ ]	/* SetRefPoint1 */\012SRP2[ ]	/* SetRefPoint2 */\012IP[ ]	/* InterpolatePts */\012PUSHW[ ]	/* 3 values pushed */\01248 28 13 \012SRP1[ ]	/* SetRefPoint1 */\012SRP2[ ]	/* SetRefPoint2 */\012IP[ ]	/* InterpolatePts */\012IUP[0]	/* InterpolateUntPts */\012IUP[1]	/* InterpolateUntPts */";
};
width = 358;
}
);
leftKerningGroup = o;
note = oslash;
rightKerningGroup = o;
unicode = 00F8;
},
{
glyphname = oe;
lastChange = "2022-04-05 22:57:46 +0000";
layers = (
{
anchors = (
{
name = bottom;
position = "{362, 0}";
},
{
name = center;
position = "{168, 248}";
},
{
name = ogonek;
position = "{453, 10}";
},
{
name = top;
position = "{432, 495}";
},
{
name = topright;
position = "{236, 495}";
}
);
background = {
paths = (
{
closed = 1;
nodes = (
"210 -7 OFFCURVE",
"242 25 OFFCURVE",
"257 64 CURVE",
"263 18 OFFCURVE",
"294 -7 OFFCURVE",
"363 -7 CURVE SMOOTH",
"467 -7 OFFCURVE",
"489 48 OFFCURVE",
"499 124 CURVE SMOOTH",
"505 167 LINE",
"494 167 LINE",
"489 127 LINE SMOOTH",
"479 57 OFFCURVE",
"459 3 OFFCURVE",
"364 3 CURVE SMOOTH",
"288 3 OFFCURVE",
"268 35 OFFCURVE",
"268 84 CURVE SMOOTH",
"268 97 OFFCURVE",
"270 112 OFFCURVE",
"272 127 CURVE SMOOTH",
"286 228 LINE",
"329 231 OFFCURVE",
"368 239 OFFCURVE",
"403 251 CURVE SMOOTH",
"465 271 OFFCURVE",
"525 309 OFFCURVE",
"535 372 CURVE SMOOTH",
"537 388 OFFCURVE",
"539 403 OFFCURVE",
"539 417 CURVE SMOOTH",
"539 469 OFFCURVE",
"518 503 OFFCURVE",
"435 503 CURVE SMOOTH",
"356 503 OFFCURVE",
"324 469 OFFCURVE",
"309 428 CURVE",
"303 476 OFFCURVE",
"278 503 OFFCURVE",
"205 503 CURVE SMOOTH",
"101 503 OFFCURVE",
"77 446 OFFCURVE",
"67 372 CURVE SMOOTH",
"32 124 LINE SMOOTH",
"30 109 OFFCURVE",
"29 94 OFFCURVE",
"29 81 CURVE SMOOTH",
"29 27 OFFCURVE",
"50 -7 OFFCURVE",
"134 -7 CURVE SMOOTH"
);
},
{
closed = 1;
nodes = (
"60 3 OFFCURVE",
"40 36 OFFCURVE",
"40 86 CURVE SMOOTH",
"40 98 OFFCURVE",
"41 112 OFFCURVE",
"43 127 CURVE SMOOTH",
"77 369 LINE SMOOTH",
"87 440 OFFCURVE",
"110 493 OFFCURVE",
"204 493 CURVE SMOOTH",
"279 493 OFFCURVE",
"298 461 OFFCURVE",
"298 413 CURVE SMOOTH",
"298 399 OFFCURVE",
"296 385 OFFCURVE",
"294 369 CURVE SMOOTH",
"260 127 LINE SMOOTH",
"250 57 OFFCURVE",
"230 3 OFFCURVE",
"135 3 CURVE SMOOTH"
);
},
{
closed = 1;
nodes = (
"306 369 LINE SMOOTH",
"316 439 OFFCURVE",
"340 493 OFFCURVE",
"434 493 CURVE SMOOTH",
"508 493 OFFCURVE",
"528 461 OFFCURVE",
"528 415 CURVE SMOOTH",
"528 402 OFFCURVE",
"526 388 OFFCURVE",
"524 374 CURVE SMOOTH",
"516 314 OFFCURVE",
"456 279 OFFCURVE",
"399 260 CURVE SMOOTH",
"366 249 OFFCURVE",
"329 241 OFFCURVE",
"288 238 CURVE"
);
}
);
};
layerId = "9AA098C0-EDBC-463F-BC21-AFCD07A070D0";
paths = (
{
closed = 1;
nodes = (
"205 -7 OFFCURVE",
"239 21 OFFCURVE",
"257 57 CURVE",
"263 21 OFFCURVE",
"288 -7 OFFCURVE",
"361 -7 CURVE SMOOTH",
"474 -7 OFFCURVE",
"490 62 OFFCURVE",
"499 124 CURVE SMOOTH",
"505 167 LINE",
"489 167 LINE",
"483 127 LINE SMOOTH",
"474 66 OFFCURVE",
"461 9 OFFCURVE",
"363 9 CURVE SMOOTH",
"288 9 OFFCURVE",
"272 43 OFFCURVE",
"272 84 CURVE SMOOTH",
"272 93 OFFCURVE",
"273 103 OFFCURVE",
"274 112 CURVE SMOOTH",
"275 116 OFFCURVE",
"275 120 OFFCURVE",
"276 124 CURVE SMOOTH",
"290 228 LINE",
"406 241 OFFCURVE",
"517 263 OFFCURVE",
"533 372 CURVE SMOOTH",
"535 387 OFFCURVE",
"537 403 OFFCURVE",
"537 417 CURVE SMOOTH",
"537 465 OFFCURVE",
"518 503 OFFCURVE",
"433 503 CURVE SMOOTH",
"362 503 OFFCURVE",
"328 475 OFFCURVE",
"311 438 CURVE",
"304 475 OFFCURVE",
"279 503 OFFCURVE",
"209 503 CURVE SMOOTH",
"90 503 OFFCURVE",
"75 433 OFFCURVE",
"66 372 CURVE SMOOTH",
"32 124 LINE SMOOTH",
"30 109 OFFCURVE",
"28 93 OFFCURVE",
"28 78 CURVE SMOOTH",
"28 32 OFFCURVE",
"46 -7 OFFCURVE",
"133 -7 CURVE SMOOTH"
);
},
{
closed = 1;
nodes = (
"59 9 OFFCURVE",
"44 43 OFFCURVE",
"44 83 CURVE SMOOTH",
"44 97 OFFCURVE",
"46 113 OFFCURVE",
"48 127 CURVE SMOOTH",
"82 369 LINE SMOOTH",
"89 422 OFFCURVE",
"99 487 OFFCURVE",
"207 487 CURVE SMOOTH",
"282 487 OFFCURVE",
"297 449 OFFCURVE",
"297 408 CURVE SMOOTH",
"297 401 OFFCURVE",
"297 393 OFFCURVE",
"296 385 CURVE SMOOTH",
"295 381 OFFCURVE",
"295 376 OFFCURVE",
"294 372 CURVE SMOOTH",
"277 248 LINE",
"260 127 LINE SMOOTH",
"253 74 OFFCURVE",
"238 9 OFFCURVE",
"135 9 CURVE SMOOTH"
);
},
{
closed = 1;
nodes = (
"303 322 LINE",
"309 363 LINE SMOOTH",
"320 438 OFFCURVE",
"342 487 OFFCURVE",
"431 487 CURVE SMOOTH",
"505 487 OFFCURVE",
"521 458 OFFCURVE",
"521 418 CURVE SMOOTH",
"521 403 OFFCURVE",
"519 388 OFFCURVE",
"517 372 CURVE SMOOTH",
"506 293 OFFCURVE",
"416 252 OFFCURVE",
"292 244 CURVE"
);
}
);
userData = {
assembly = "SVTCA[0]	/* SetFreedomAndProjectionVectorToAxis */\012PUSHW[ ]	/* 4 values pushed */\01225 1 30 4 \012CALL[ ]	/* CallFunction */\012PUSHW[ ]	/* 1 value pushed */\01225 \012SRP0[ ]	/* SetRefPoint0 */\012PUSHW[ ]	/* 1 value pushed */\01233 \012MDRP[10000]	/* MoveDirectRelPt */\012IUP[0]	/* InterpolateUntPts */\012IUP[1]	/* InterpolateUntPts */";
};
width = 565;
}
);
leftKerningGroup = o;
note = oe;
rightKerningGroup = e;
unicode = 0153;
},
{
glyphname = p;
lastChange = "2022-04-05 22:44:37 +0000";
layers = (
{
layerId = "9AA098C0-EDBC-463F-BC21-AFCD07A070D0";
paths = (
{
closed = 1;
nodes = (
"30 -116 LINE",
"52 39 LINE",
"59 20 OFFCURVE",
"82 -7 OFFCURVE",
"149 -7 CURVE SMOOTH",
"262 -7 OFFCURVE",
"277 62 OFFCURVE",
"286 124 CURVE SMOOTH",
"321 372 LINE SMOOTH",
"323 386 OFFCURVE",
"325 401 OFFCURVE",
"325 416 CURVE SMOOTH",
"325 462 OFFCURVE",
"306 503 OFFCURVE",
"220 503 CURVE SMOOTH",
"151 503 OFFCURVE",
"119 471 OFFCURVE",
"108 449 CURVE",
"113 495 LINE",
"99 495 LINE",
"14 -116 LINE"
);
},
{
closed = 1;
nodes = (
"75 9 OFFCURVE",
"60 43 OFFCURVE",
"60 83 CURVE SMOOTH",
"60 97 OFFCURVE",
"62 113 OFFCURVE",
"64 127 CURVE SMOOTH",
"97 363 LINE SMOOTH",
"106 428 OFFCURVE",
"122 487 OFFCURVE",
"218 487 CURVE SMOOTH",
"293 487 OFFCURVE",
"309 455 OFFCURVE",
"309 415 CURVE SMOOTH",
"309 401 OFFCURVE",
"307 385 OFFCURVE",
"305 369 CURVE SMOOTH",
"271 127 LINE SMOOTH",
"264 74 OFFCURVE",
"254 9 OFFCURVE",
"151 9 CURVE SMOOTH"
);
}
);
userData = {
assembly = "SVTCA[0]	/* SetFreedomAndProjectionVectorToAxis */\012PUSHW[ ]	/* 1 value pushed */\01238 \012MDAP[1]	/* MoveDirectAbsPt */\012IUP[0]	/* InterpolateUntPts */\012IUP[1]	/* InterpolateUntPts */";
};
width = 353;
}
);
leftKerningGroup = n;
leftMetricsKey = n;
note = p;
rightKerningGroup = o;
rightMetricsKey = o;
unicode = 0070;
},
{
glyphname = thorn;
lastChange = "2022-04-05 22:44:37 +0000";
layers = (
{
layerId = "9AA098C0-EDBC-463F-BC21-AFCD07A070D0";
paths = (
{
closed = 1;
nodes = (
"30 -116 LINE",
"51 38 LINE",
"56 16 OFFCURVE",
"82 -7 OFFCURVE",
"149 -7 CURVE SMOOTH",
"262 -7 OFFCURVE",
"278 62 OFFCURVE",
"286 124 CURVE SMOOTH",
"321 372 LINE SMOOTH",
"323 387 OFFCURVE",
"325 402 OFFCURVE",
"325 417 CURVE SMOOTH",
"325 463 OFFCURVE",
"307 503 OFFCURVE",
"221 503 CURVE SMOOTH",
"152 503 OFFCURVE",
"119 471 OFFCURVE",
"108 445 CURVE",
"134 630 LINE",
"118 630 LINE",
"14 -116 LINE"
);
},
{
closed = 1;
nodes = (
"75 9 OFFCURVE",
"60 43 OFFCURVE",
"60 82 CURVE SMOOTH",
"60 97 OFFCURVE",
"62 112 OFFCURVE",
"64 127 CURVE SMOOTH",
"97 363 LINE SMOOTH",
"106 428 OFFCURVE",
"122 487 OFFCURVE",
"218 487 CURVE SMOOTH",
"293 487 OFFCURVE",
"309 455 OFFCURVE",
"309 415 CURVE SMOOTH",
"309 401 OFFCURVE",
"307 385 OFFCURVE",
"305 369 CURVE SMOOTH",
"271 127 LINE SMOOTH",
"263 74 OFFCURVE",
"254 9 OFFCURVE",
"151 9 CURVE SMOOTH"
);
}
);
userData = {
assembly = "SVTCA[0]	/* SetFreedomAndProjectionVectorToAxis */\012PUSHW[ ]	/* 1 value pushed */\01238 \012MDAP[1]	/* MoveDirectAbsPt */\012IUP[0]	/* InterpolateUntPts */\012IUP[1]	/* InterpolateUntPts */";
};
width = 353;
}
);
leftMetricsKey = h;
note = thorn;
rightKerningGroup = lslash;
rightMetricsKey = o;
unicode = 00FE;
},
{
glyphname = q;
lastChange = "2022-04-05 22:44:37 +0000";
layers = (
{
layerId = "9AA098C0-EDBC-463F-BC21-AFCD07A070D0";
paths = (
{
closed = 1;
nodes = (
"238 -116 LINE",
"323 495 LINE",
"309 495 LINE",
"300 445 LINE",
"297 471 OFFCURVE",
"273 503 OFFCURVE",
"204 503 CURVE SMOOTH",
"91 503 OFFCURVE",
"76 433 OFFCURVE",
"67 372 CURVE SMOOTH",
"32 124 LINE SMOOTH",
"30 110 OFFCURVE",
"28 95 OFFCURVE",
"28 80 CURVE SMOOTH",
"28 34 OFFCURVE",
"46 -7 OFFCURVE",
"133 -7 CURVE SMOOTH",
"200 -7 OFFCURVE",
"232 16 OFFCURVE",
"243 38 CURVE",
"222 -116 LINE"
);
},
{
closed = 1;
nodes = (
"60 9 OFFCURVE",
"45 43 OFFCURVE",
"45 82 CURVE SMOOTH",
"45 97 OFFCURVE",
"47 112 OFFCURVE",
"49 127 CURVE SMOOTH",
"83 369 LINE SMOOTH",
"91 428 OFFCURVE",
"99 487 OFFCURVE",
"202 487 CURVE SMOOTH",
"275 487 OFFCURVE",
"293 452 OFFCURVE",
"293 407 CURVE SMOOTH",
"293 393 OFFCURVE",
"291 378 OFFCURVE",
"289 363 CURVE SMOOTH",
"256 127 LINE SMOOTH",
"248 74 OFFCURVE",
"239 9 OFFCURVE",
"135 9 CURVE SMOOTH"
);
}
);
userData = {
assembly = "SVTCA[0]	/* SetFreedomAndProjectionVectorToAxis */\012PUSHW[ ]	/* 1 value pushed */\01216 \012MDAP[1]	/* MoveDirectAbsPt */\012PUSHW[ ]	/* 1 value pushed */\01227 \012MDAP[1]	/* MoveDirectAbsPt */\012PUSHW[ ]	/* 3 values pushed */\0122 27 16 \012SRP1[ ]	/* SetRefPoint1 */\012SRP2[ ]	/* SetRefPoint2 */\012IP[ ]	/* InterpolatePts */\012PUSHW[ ]	/* 3 values pushed */\01219 27 16 \012SRP1[ ]	/* SetRefPoint1 */\012SRP2[ ]	/* SetRefPoint2 */\012IP[ ]	/* InterpolatePts */\012IUP[0]	/* InterpolateUntPts */\012IUP[1]	/* InterpolateUntPts */";
};
width = 343;
}
);
leftKerningGroup = o;
leftMetricsKey = o;
note = q;
rightKerningGroup = d;
rightMetricsKey = d;
unicode = 0071;
},
{
glyphname = r;
lastChange = "2022-04-05 22:44:37 +0000";
layers = (
{
anchors = (
{
name = bottom;
position = "{36, 0}";
},
{
name = top;
position = "{170, 495}";
}
);
layerId = "9AA098C0-EDBC-463F-BC21-AFCD07A070D0";
paths = (
{
closed = 1;
nodes = (
"46 0 LINE",
"77 224 LINE SMOOTH",
"91 326 OFFCURVE",
"134 400 OFFCURVE",
"167 438 CURVE SMOOTH",
"196 472 OFFCURVE",
"228 488 OFFCURVE",
"260 485 CURVE",
"262 500 LINE",
"235 503 OFFCURVE",
"199 495 OFFCURVE",
"160 454 CURVE SMOOTH",
"141 435 OFFCURVE",
"112 395 OFFCURVE",
"95 348 CURVE",
"114 495 LINE",
"99 495 LINE",
"30 0 LINE"
);
}
);
userData = {
assembly = "SVTCA[0]	/* SetFreedomAndProjectionVectorToAxis */\012PUSHW[ ]	/* 1 value pushed */\0120 \012RCVT[ ]	/* ReadCVT */\012IF[ ]	/* If */\012PUSHW[ ]	/* 1 value pushed */\01211 \012MDAP[1]	/* MoveDirectAbsPt */\012ELSE[ ]	/* Else */\012PUSHW[ ]	/* 2 values pushed */\01211 5 \012MIAP[0]	/* MoveIndirectAbsPt */\012EIF[ ]	/* EndIf */\012IUP[0]	/* InterpolateUntPts */\012IUP[1]	/* InterpolateUntPts */";
};
width = 227;
}
);
leftKerningGroup = n;
leftMetricsKey = n;
note = r;
rightKerningGroup = r;
unicode = 0072;
},
{
glyphname = s;
lastChange = "2022-04-05 22:44:37 +0000";
layers = (
{
anchors = (
{
name = bottom;
position = "{112, 0}";
},
{
name = top;
position = "{191, 495}";
}
);
layerId = "9AA098C0-EDBC-463F-BC21-AFCD07A070D0";
paths = (
{
closed = 1;
nodes = (
"177 -6 OFFCURVE",
"242 19 OFFCURVE",
"254 96 CURVE SMOOTH",
"260 134 LINE SMOOTH",
"261 141 OFFCURVE",
"262 148 OFFCURVE",
"262 155 CURVE SMOOTH",
"262 221 OFFCURVE",
"203 244 OFFCURVE",
"153 269 CURVE SMOOTH",
"112 290 OFFCURVE",
"64 302 OFFCURVE",
"64 361 CURVE SMOOTH",
"64 368 OFFCURVE",
"64 375 OFFCURVE",
"66 384 CURVE SMOOTH",
"68 395 LINE SMOOTH",
"78 449 OFFCURVE",
"118 486 OFFCURVE",
"185 486 CURVE SMOOTH",
"237 486 OFFCURVE",
"278 468 OFFCURVE",
"278 423 CURVE SMOOTH",
"278 410 OFFCURVE",
"274 394 OFFCURVE",
"266 376 CURVE SMOOTH",
"252 344 LINE",
"270 344 LINE",
"288 386 LINE SMOOTH",
"294 401 OFFCURVE",
"297 415 OFFCURVE",
"297 427 CURVE SMOOTH",
"297 478 OFFCURVE",
"244 502 OFFCURVE",
"188 502 CURVE SMOOTH",
"112 502 OFFCURVE",
"62 460 OFFCURVE",
"53 404 CURVE SMOOTH",
"49 380 LINE SMOOTH",
"48 372 OFFCURVE",
"47 364 OFFCURVE",
"47 357 CURVE SMOOTH",
"47 299 OFFCURVE",
"93 279 OFFCURVE",
"146 254 CURVE SMOOTH",
"191 233 OFFCURVE",
"247 214 OFFCURVE",
"247 152 CURVE SMOOTH",
"247 144 OFFCURVE",
"246 136 OFFCURVE",
"244 127 CURVE SMOOTH",
"238 96 LINE SMOOTH",
"228 43 OFFCURVE",
"183 10 OFFCURVE",
"117 10 CURVE SMOOTH",
"62 10 OFFCURVE",
"25 32 OFFCURVE",
"25 77 CURVE SMOOTH",
"25 82 OFFCURVE",
"25 86 OFFCURVE",
"26 91 CURVE SMOOTH",
"31 122 OFFCURVE",
"57 153 OFFCURVE",
"68 166 CURVE",
"48 166 LINE",
"39 153 OFFCURVE",
"16 124 OFFCURVE",
"11 99 CURVE SMOOTH",
"10 91 OFFCURVE",
"9 84 OFFCURVE",
"9 76 CURVE SMOOTH",
"9 21 OFFCURVE",
"53 -6 OFFCURVE",
"114 -6 CURVE SMOOTH"
);
}
);
userData = {
assembly = "SVTCA[0]	/* SetFreedomAndProjectionVectorToAxis */\012PUSHW[ ]	/* 1 value pushed */\01236 \012MDAP[1]	/* MoveDirectAbsPt */\012PUSHW[ ]	/* 1 value pushed */\0125 \012MDAP[1]	/* MoveDirectAbsPt */\012PUSHW[ ]	/* 3 values pushed */\0120 36 5 \012SRP1[ ]	/* SetRefPoint1 */\012SRP2[ ]	/* SetRefPoint2 */\012IP[ ]	/* InterpolatePts */\012PUSHW[ ]	/* 3 values pushed */\01231 36 5 \012SRP1[ ]	/* SetRefPoint1 */\012SRP2[ ]	/* SetRefPoint2 */\012IP[ ]	/* InterpolatePts */\012IUP[0]	/* InterpolateUntPts */\012IUP[1]	/* InterpolateUntPts */";
};
width = 308;
}
);
leftKerningGroup = s;
note = s;
rightKerningGroup = s;
unicode = 0073;
},
{
glyphname = germandbls;
lastChange = "2022-04-05 22:44:37 +0000";
layers = (
{
layerId = "9AA098C0-EDBC-463F-BC21-AFCD07A070D0";
paths = (
{
closed = 1;
nodes = (
"-1 -146 OFFCURVE",
"23 -115 OFFCURVE",
"30 -60 CURVE SMOOTH",
"113 528 LINE SMOOTH",
"120 575 OFFCURVE",
"134 617 OFFCURVE",
"229 617 CURVE SMOOTH",
"293 617 OFFCURVE",
"324 597 OFFCURVE",
"324 551 CURVE SMOOTH",
"324 545 OFFCURVE",
"323 538 OFFCURVE",
"322 531 CURVE SMOOTH",
"309 433 LINE SMOOTH",
"302 385 OFFCURVE",
"265 349 OFFCURVE",
"206 349 CURVE SMOOTH",
"152 349 LINE",
"150 333 LINE",
"193 333 LINE SMOOTH",
"248 333 OFFCURVE",
"294 313 OFFCURVE",
"294 256 CURVE SMOOTH",
"294 251 OFFCURVE",
"294 245 OFFCURVE",
"293 239 CURVE SMOOTH",
"277 123 LINE SMOOTH",
"264 31 OFFCURVE",
"221 16 OFFCURVE",
"162 16 CURVE SMOOTH",
"85 16 LINE",
"83 0 LINE",
"160 0 LINE SMOOTH",
"225 0 OFFCURVE",
"278 15 OFFCURVE",
"293 119 CURVE SMOOTH",
"310 244 LINE SMOOTH",
"311 249 OFFCURVE",
"311 254 OFFCURVE",
"311 259 CURVE SMOOTH",
"311 306 OFFCURVE",
"278 336 OFFCURVE",
"237 341 CURVE",
"237 342 LINE",
"280 346 OFFCURVE",
"319 385 OFFCURVE",
"325 429 CURVE SMOOTH",
"340 538 LINE SMOOTH",
"341 545 OFFCURVE",
"342 552 OFFCURVE",
"342 559 CURVE SMOOTH",
"342 614 OFFCURVE",
"299 633 OFFCURVE",
"232 633 CURVE SMOOTH",
"135 633 OFFCURVE",
"107 599 OFFCURVE",
"97 527 CURVE SMOOTH",
"87 457 LINE",
"56 457 LINE",
"54 441 LINE",
"85 441 LINE",
"15 -55 LINE SMOOTH",
"8 -104 OFFCURVE",
"-6 -131 OFFCURVE",
"-58 -131 CURVE SMOOTH",
"-70 -131 OFFCURVE",
"-85 -131 OFFCURVE",
"-97 -130 CURVE SMOOTH",
"-119 -128 LINE",
"-121 -143 LINE",
"-110 -144 OFFCURVE",
"-78 -146 OFFCURVE",
"-54 -146 CURVE SMOOTH"
);
}
);
width = 347;
}
);
note = germandbls;
rightKerningGroup = lslash;
unicode = 00DF;
},
{
glyphname = longs;
lastChange = "2022-04-05 22:44:37 +0000";
layers = (
{
layerId = "9AA098C0-EDBC-463F-BC21-AFCD07A070D0";
paths = (
{
closed = 1;
nodes = (
"9 -147 OFFCURVE",
"37 -114 OFFCURVE",
"44 -58 CURVE SMOOTH",
"130 552 LINE SMOOTH",
"135 584 OFFCURVE",
"148 621 OFFCURVE",
"201 621 CURVE SMOOTH",
"208 621 OFFCURVE",
"242 620 OFFCURVE",
"254 617 CURVE",
"256 632 LINE",
"250 633 OFFCURVE",
"228 636 OFFCURVE",
"198 636 CURVE SMOOTH",
"146 636 OFFCURVE",
"120 603 OFFCURVE",
"113 547 CURVE SMOOTH",
"98 441 LINE",
"67 441 LINE",
"64 425 LINE",
"95 425 LINE",
"28 -63 LINE SMOOTH",
"23 -98 OFFCURVE",
"-1 -132 OFFCURVE",
"-38 -132 CURVE SMOOTH",
"-58 -132 OFFCURVE",
"-87 -130 OFFCURVE",
"-97 -128 CURVE",
"-99 -143 LINE",
"-86 -145 OFFCURVE",
"-66 -147 OFFCURVE",
"-39 -147 CURVE SMOOTH"
);
}
);
userData = {
assembly = "PUSHW[ ]	/* 4 values pushed */\01236 4 30 4 \012CALL[ ]	/* CallFunction */\012PUSHW[ ]	/* 1 value pushed */\01236 \012SRP0[ ]	/* SetRefPoint0 */\012PUSHW[ ]	/* 1 value pushed */\01239 \012MDRP[10000]	/* MoveDirectRelPt */\012PUSHW[ ]	/* 1 value pushed */\01239 \012MDAP[1]	/* MoveDirectAbsPt */\012SVTCA[0]	/* SetFreedomAndProjectionVectorToAxis */\012PUSHW[ ]	/* 4 values pushed */\0123 3 17 4 \012CALL[ ]	/* CallFunction */\012IUP[0]	/* InterpolateUntPts */\012IUP[1]	/* InterpolateUntPts */";
};
width = 190;
}
);
leftMetricsKey = f;
note = longs;
rightKerningGroup = lslash;
rightMetricsKey = f;
unicode = 017F;
},
{
glyphname = t;
lastChange = "2022-04-05 22:57:46 +0000";
layers = (
{
anchors = (
{
name = bottom;
position = "{100, 0}";
},
{
name = center;
position = "{117, 334}";
},
{
name = top;
position = "{141, 495}";
},
{
name = topright;
position = "{188, 540}";
}
);
layerId = "9AA098C0-EDBC-463F-BC21-AFCD07A070D0";
paths = (
{
closed = 1;
nodes = (
"125 0 OFFCURVE",
"151 3 OFFCURVE",
"160 4 CURVE",
"162 20 LINE",
"138 17 OFFCURVE",
"121 15 OFFCURVE",
"102 15 CURVE SMOOTH",
"65 15 OFFCURVE",
"55 39 OFFCURVE",
"55 68 CURVE SMOOTH",
"55 74 OFFCURVE",
"55 81 OFFCURVE",
"56 88 CURVE SMOOTH",
"111 479 LINE",
"227 479 LINE",
"229 495 LINE",
"113 495 LINE",
"127 592 LINE",
"114 592 LINE",
"97 495 LINE",
"59 493 LINE",
"57 479 LINE",
"95 479 LINE",
"40 93 LINE SMOOTH",
"39 83 OFFCURVE",
"38 74 OFFCURVE",
"38 66 CURVE SMOOTH",
"38 22 OFFCURVE",
"56 0 OFFCURVE",
"100 0 CURVE SMOOTH"
);
}
);
userData = {
assembly = "SVTCA[0]	/* SetFreedomAndProjectionVectorToAxis */\012PUSHW[ ]	/* 1 value pushed */\0120 \012RCVT[ ]	/* ReadCVT */\012IF[ ]	/* If */\012PUSHW[ ]	/* 1 value pushed */\01213 \012MDAP[1]	/* MoveDirectAbsPt */\012ELSE[ ]	/* Else */\012PUSHW[ ]	/* 2 values pushed */\01213 5 \012MIAP[0]	/* MoveIndirectAbsPt */\012EIF[ ]	/* EndIf */\012PUSHW[ ]	/* 1 value pushed */\0120 \012RCVT[ ]	/* ReadCVT */\012IF[ ]	/* If */\012PUSHW[ ]	/* 1 value pushed */\01219 \012MDAP[1]	/* MoveDirectAbsPt */\012ELSE[ ]	/* Else */\012PUSHW[ ]	/* 2 values pushed */\01219 5 \012MIAP[0]	/* MoveIndirectAbsPt */\012EIF[ ]	/* EndIf */\012PUSHW[ ]	/* 1 value pushed */\0120 \012RCVT[ ]	/* ReadCVT */\012IF[ ]	/* If */\012PUSHW[ ]	/* 1 value pushed */\01221 \012MDAP[1]	/* MoveDirectAbsPt */\012ELSE[ ]	/* Else */\012PUSHW[ ]	/* 2 values pushed */\01221 5 \012MIAP[0]	/* MoveIndirectAbsPt */\012EIF[ ]	/* EndIf */\012PUSHW[ ]	/* 1 value pushed */\0120 \012RCVT[ ]	/* ReadCVT */\012IF[ ]	/* If */\012PUSHW[ ]	/* 1 value pushed */\01223 \012MDAP[1]	/* MoveDirectAbsPt */\012ELSE[ ]	/* Else */\012PUSHW[ ]	/* 2 values pushed */\01223 5 \012MIAP[0]	/* MoveIndirectAbsPt */\012EIF[ ]	/* EndIf */\012IUP[0]	/* InterpolateUntPts */\012IUP[1]	/* InterpolateUntPts */";
};
width = 198;
}
);
leftKerningGroup = t;
note = t;
rightKerningGroup = t;
unicode = 0074;
},
{
glyphname = u;
lastChange = "2022-04-05 22:44:37 +0000";
layers = (
{
anchors = (
{
name = bottom;
position = "{150, 0}";
},
{
name = ogonek;
position = "{277, 0}";
},
{
name = top;
position = "{220, 495}";
},
{
name = topright;
position = "{305, 495}";
}
);
layerId = "9AA098C0-EDBC-463F-BC21-AFCD07A070D0";
paths = (
{
closed = 1;
nodes = (
"192 -8 OFFCURVE",
"246 43 OFFCURVE",
"266 100 CURVE",
"254 0 LINE",
"270 0 LINE",
"339 495 LINE",
"323 495 LINE",
"283 202 LINE SMOOTH",
"269 103 OFFCURVE",
"203 8 OFFCURVE",
"132 8 CURVE SMOOTH",
"70 8 OFFCURVE",
"56 42 OFFCURVE",
"56 83 CURVE SMOOTH",
"56 99 OFFCURVE",
"58 116 OFFCURVE",
"60 132 CURVE SMOOTH",
"111 495 LINE",
"95 495 LINE",
"43 123 LINE SMOOTH",
"41 108 OFFCURVE",
"39 92 OFFCURVE",
"39 76 CURVE SMOOTH",
"39 31 OFFCURVE",
"55 -8 OFFCURVE",
"128 -8 CURVE SMOOTH"
);
}
);
userData = {
assembly = "SVTCA[0]	/* SetFreedomAndProjectionVectorToAxis */\012PUSHW[ ]	/* 1 value pushed */\0120 \012RCVT[ ]	/* ReadCVT */\012IF[ ]	/* If */\012PUSHW[ ]	/* 1 value pushed */\01212 \012MDAP[1]	/* MoveDirectAbsPt */\012ELSE[ ]	/* Else */\012PUSHW[ ]	/* 2 values pushed */\01212 9 \012MIAP[0]	/* MoveIndirectAbsPt */\012EIF[ ]	/* EndIf */\012PUSHW[ ]	/* 1 value pushed */\0120 \012RCVT[ ]	/* ReadCVT */\012IF[ ]	/* If */\012PUSHW[ ]	/* 1 value pushed */\01225 \012MDAP[1]	/* MoveDirectAbsPt */\012ELSE[ ]	/* Else */\012PUSHW[ ]	/* 2 values pushed */\01225 9 \012MIAP[0]	/* MoveIndirectAbsPt */\012EIF[ ]	/* EndIf */\012PUSHW[ ]	/* 1 value pushed */\0120 \012RCVT[ ]	/* ReadCVT */\012IF[ ]	/* If */\012PUSHW[ ]	/* 1 value pushed */\0120 \012MDAP[1]	/* MoveDirectAbsPt */\012ELSE[ ]	/* Else */\012PUSHW[ ]	/* 2 values pushed */\0120 5 \012MIAP[0]	/* MoveIndirectAbsPt */\012EIF[ ]	/* EndIf */\012PUSHW[ ]	/* 1 value pushed */\0120 \012RCVT[ ]	/* ReadCVT */\012IF[ ]	/* If */\012PUSHW[ ]	/* 1 value pushed */\01219 \012MDAP[1]	/* MoveDirectAbsPt */\012ELSE[ ]	/* Else */\012PUSHW[ ]	/* 2 values pushed */\01219 5 \012MIAP[0]	/* MoveIndirectAbsPt */\012EIF[ ]	/* EndIf */\012PUSHW[ ]	/* 3 values pushed */\0121 0 12 \012SRP1[ ]	/* SetRefPoint1 */\012SRP2[ ]	/* SetRefPoint2 */\012IP[ ]	/* InterpolatePts */\012IUP[0]	/* InterpolateUntPts */\012IUP[1]	/* InterpolateUntPts */";
};
width = 362;
}
);
leftKerningGroup = u;
leftMetricsKey = "=n-4";
note = u;
rightKerningGroup = u;
rightMetricsKey = a;
unicode = 0075;
},
{
glyphname = v;
lastChange = "2022-04-05 18:05:07 +0000";
layers = (
{
layerId = "9AA098C0-EDBC-463F-BC21-AFCD07A070D0";
paths = (
{
closed = 1;
nodes = (
"114 0 LINE",
"158 57 OFFCURVE",
"198 115 OFFCURVE",
"225 173 CURVE SMOOTH",
"255 234 OFFCURVE",
"277 308 OFFCURVE",
"277 378 CURVE SMOOTH",
"277 419 OFFCURVE",
"269 459 OFFCURVE",
"251 495 CURVE",
"235 495 LINE",
"253 457 OFFCURVE",
"260 418 OFFCURVE",
"260 377 CURVE SMOOTH",
"260 309 OFFCURVE",
"239 240 OFFCURVE",
"210 178 CURVE SMOOTH",
"183 122 OFFCURVE",
"152 71 OFFCURVE",
"111 18 CURVE",
"61 495 LINE",
"45 495 LINE",
"97 0 LINE"
);
}
);
userData = {
assembly = "SVTCA[0]	/* SetFreedomAndProjectionVectorToAxis */\012PUSHW[ ]	/* 1 value pushed */\0120 \012RCVT[ ]	/* ReadCVT */\012IF[ ]	/* If */\012PUSHW[ ]	/* 1 value pushed */\0120 \012MDAP[1]	/* MoveDirectAbsPt */\012ELSE[ ]	/* Else */\012PUSHW[ ]	/* 2 values pushed */\0120 9 \012MIAP[0]	/* MoveIndirectAbsPt */\012EIF[ ]	/* EndIf */\012PUSHW[ ]	/* 1 value pushed */\0120 \012RCVT[ ]	/* ReadCVT */\012IF[ ]	/* If */\012PUSHW[ ]	/* 1 value pushed */\0128 \012MDAP[1]	/* MoveDirectAbsPt */\012ELSE[ ]	/* Else */\012PUSHW[ ]	/* 2 values pushed */\0128 9 \012MIAP[0]	/* MoveIndirectAbsPt */\012EIF[ ]	/* EndIf */\012PUSHW[ ]	/* 1 value pushed */\0120 \012RCVT[ ]	/* ReadCVT */\012IF[ ]	/* If */\012PUSHW[ ]	/* 1 value pushed */\01216 \012MDAP[1]	/* MoveDirectAbsPt */\012ELSE[ ]	/* Else */\012PUSHW[ ]	/* 2 values pushed */\01216 5 \012MIAP[0]	/* MoveIndirectAbsPt */\012EIF[ ]	/* EndIf */\012PUSHW[ ]	/* 3 values pushed */\0121 16 0 \012SRP1[ ]	/* SetRefPoint1 */\012SRP2[ ]	/* SetRefPoint2 */\012IP[ ]	/* InterpolatePts */\012IUP[0]	/* InterpolateUntPts */\012IUP[1]	/* InterpolateUntPts */";
};
width = 282;
}
);
leftKerningGroup = v;
note = v;
rightKerningGroup = v;
unicode = 0076;
},
{
glyphname = w;
lastChange = "2022-04-05 22:44:37 +0000";
layers = (
{
anchors = (
{
name = bottom;
position = "{239, 0}";
},
{
name = top;
position = "{300, 495}";
}
);
layerId = "9AA098C0-EDBC-463F-BC21-AFCD07A070D0";
paths = (
{
closed = 1;
nodes = (
"113 0 LINE",
"292 460 LINE",
"341 0 LINE",
"358 0 LINE",
"414 65 OFFCURVE",
"450 119 OFFCURVE",
"475 173 CURVE SMOOTH",
"505 234 OFFCURVE",
"527 308 OFFCURVE",
"527 378 CURVE SMOOTH",
"527 419 OFFCURVE",
"519 459 OFFCURVE",
"501 495 CURVE",
"485 495 LINE",
"503 457 OFFCURVE",
"510 418 OFFCURVE",
"510 377 CURVE SMOOTH",
"510 309 OFFCURVE",
"489 240 OFFCURVE",
"460 178 CURVE SMOOTH",
"434 125 OFFCURVE",
"405 76 OFFCURVE",
"356 18 CURVE",
"304 495 LINE",
"288 495 LINE",
"108 27 LINE",
"61 495 LINE",
"45 495 LINE",
"95 0 LINE"
);
}
);
userData = {
assembly = "SVTCA[0]	/* SetFreedomAndProjectionVectorToAxis */\012PUSHW[ ]	/* 1 value pushed */\0120 \012RCVT[ ]	/* ReadCVT */\012IF[ ]	/* If */\012PUSHW[ ]	/* 1 value pushed */\0124 \012MDAP[1]	/* MoveDirectAbsPt */\012ELSE[ ]	/* Else */\012PUSHW[ ]	/* 2 values pushed */\0124 9 \012MIAP[0]	/* MoveIndirectAbsPt */\012EIF[ ]	/* EndIf */\012PUSHW[ ]	/* 1 value pushed */\0120 \012RCVT[ ]	/* ReadCVT */\012IF[ ]	/* If */\012PUSHW[ ]	/* 1 value pushed */\0127 \012MDAP[1]	/* MoveDirectAbsPt */\012ELSE[ ]	/* Else */\012PUSHW[ ]	/* 2 values pushed */\0127 9 \012MIAP[0]	/* MoveIndirectAbsPt */\012EIF[ ]	/* EndIf */\012PUSHW[ ]	/* 1 value pushed */\0120 \012RCVT[ ]	/* ReadCVT */\012IF[ ]	/* If */\012PUSHW[ ]	/* 1 value pushed */\01216 \012MDAP[1]	/* MoveDirectAbsPt */\012ELSE[ ]	/* Else */\012PUSHW[ ]	/* 2 values pushed */\01216 9 \012MIAP[0]	/* MoveIndirectAbsPt */\012EIF[ ]	/* EndIf */\012PUSHW[ ]	/* 1 value pushed */\0120 \012RCVT[ ]	/* ReadCVT */\012IF[ ]	/* If */\012PUSHW[ ]	/* 1 value pushed */\0120 \012MDAP[1]	/* MoveDirectAbsPt */\012ELSE[ ]	/* Else */\012PUSHW[ ]	/* 2 values pushed */\0120 5 \012MIAP[0]	/* MoveIndirectAbsPt */\012EIF[ ]	/* EndIf */\012PUSHW[ ]	/* 1 value pushed */\0120 \012RCVT[ ]	/* ReadCVT */\012IF[ ]	/* If */\012PUSHW[ ]	/* 1 value pushed */\0122 \012MDAP[1]	/* MoveDirectAbsPt */\012ELSE[ ]	/* Else */\012PUSHW[ ]	/* 2 values pushed */\0122 5 \012MIAP[0]	/* MoveIndirectAbsPt */\012EIF[ ]	/* EndIf */\012PUSHW[ ]	/* 3 values pushed */\0121 0 4 \012SRP1[ ]	/* SetRefPoint1 */\012SRP2[ ]	/* SetRefPoint2 */\012IP[ ]	/* InterpolatePts */\012PUSHW[ ]	/* 3 values pushed */\0126 0 4 \012SRP1[ ]	/* SetRefPoint1 */\012SRP2[ ]	/* SetRefPoint2 */\012IP[ ]	/* InterpolatePts */\012IUP[0]	/* InterpolateUntPts */\012IUP[1]	/* InterpolateUntPts */";
};
width = 532;
}
);
leftKerningGroup = w;
leftMetricsKey = v;
note = w;
rightKerningGroup = w;
rightMetricsKey = v;
unicode = 0077;
},
{
glyphname = x;
lastChange = "2022-04-05 22:44:37 +0000";
layers = (
{
layerId = "9AA098C0-EDBC-463F-BC21-AFCD07A070D0";
paths = (
{
closed = 1;
nodes = (
"-3 0 LINE",
"-3 38 OFFCURVE",
"65 180 OFFCURVE",
"134 255 CURVE",
"161 255 LINE",
"214 185 OFFCURVE",
"227 71 OFFCURVE",
"227 0 CURVE",
"244 0 LINE",
"244 119 OFFCURVE",
"215 218 OFFCURVE",
"179 263 CURVE",
"265 337 OFFCURVE",
"288 446 OFFCURVE",
"300 495 CURVE",
"283 495 LINE",
"258 399 OFFCURVE",
"226 321 OFFCURVE",
"163 271 CURVE",
"134 271 LINE",
"106 338 OFFCURVE",
"86 410 OFFCURVE",
"82 495 CURVE",
"65 495 LINE",
"65 423 OFFCURVE",
"83 345 OFFCURVE",
"118 263 CURVE",
"46 185 OFFCURVE",
"-21 38 OFFCURVE",
"-21 0 CURVE"
);
}
);
userData = {
assembly = "SVTCA[0]	/* SetFreedomAndProjectionVectorToAxis */\012PUSHW[ ]	/* 1 value pushed */\0120 \012RCVT[ ]	/* ReadCVT */\012IF[ ]	/* If */\012PUSHW[ ]	/* 1 value pushed */\01210 \012MDAP[1]	/* MoveDirectAbsPt */\012ELSE[ ]	/* Else */\012PUSHW[ ]	/* 2 values pushed */\01210 9 \012MIAP[0]	/* MoveIndirectAbsPt */\012EIF[ ]	/* EndIf */\012PUSHW[ ]	/* 1 value pushed */\0120 \012RCVT[ ]	/* ReadCVT */\012IF[ ]	/* If */\012PUSHW[ ]	/* 1 value pushed */\01220 \012MDAP[1]	/* MoveDirectAbsPt */\012ELSE[ ]	/* Else */\012PUSHW[ ]	/* 2 values pushed */\01220 9 \012MIAP[0]	/* MoveIndirectAbsPt */\012EIF[ ]	/* EndIf */\012PUSHW[ ]	/* 1 value pushed */\0120 \012RCVT[ ]	/* ReadCVT */\012IF[ ]	/* If */\012PUSHW[ ]	/* 1 value pushed */\0120 \012MDAP[1]	/* MoveDirectAbsPt */\012ELSE[ ]	/* Else */\012PUSHW[ ]	/* 2 values pushed */\0120 5 \012MIAP[0]	/* MoveIndirectAbsPt */\012EIF[ ]	/* EndIf */\012PUSHW[ ]	/* 1 value pushed */\0120 \012RCVT[ ]	/* ReadCVT */\012IF[ ]	/* If */\012PUSHW[ ]	/* 1 value pushed */\01229 \012MDAP[1]	/* MoveDirectAbsPt */\012ELSE[ ]	/* Else */\012PUSHW[ ]	/* 2 values pushed */\01229 5 \012MIAP[0]	/* MoveIndirectAbsPt */\012EIF[ ]	/* EndIf */\012IUP[0]	/* InterpolateUntPts */\012IUP[1]	/* InterpolateUntPts */";
};
width = 292;
}
);
note = x;
unicode = 0078;
},
{
glyphname = y;
lastChange = "2022-04-05 22:44:37 +0000";
layers = (
{
anchors = (
{
name = bottom;
position = "{204, 0}";
},
{
name = top;
position = "{159, 495}";
}
);
layerId = "9AA098C0-EDBC-463F-BC21-AFCD07A070D0";
paths = (
{
closed = 1;
nodes = (
"45 -118 OFFCURVE",
"97 -94 OFFCURVE",
"132 -46 CURVE SMOOTH",
"180 22 OFFCURVE",
"212 81 OFFCURVE",
"234 138 CURVE SMOOTH",
"263 206 OFFCURVE",
"283 288 OFFCURVE",
"283 365 CURVE SMOOTH",
"283 411 OFFCURVE",
"276 455 OFFCURVE",
"259 495 CURVE",
"242 495 LINE",
"259 453 OFFCURVE",
"266 409 OFFCURVE",
"266 364 CURVE SMOOTH",
"266 289 OFFCURVE",
"246 212 OFFCURVE",
"218 144 CURVE SMOOTH",
"195 88 OFFCURVE",
"170 33 OFFCURVE",
"128 -26 CURVE",
"127 -18 LINE",
"49 495 LINE",
"33 495 LINE",
"112 -40 LINE",
"87 -79 OFFCURVE",
"37 -102 OFFCURVE",
"-8 -102 CURVE SMOOTH",
"-25 -102 OFFCURVE",
"-42 -99 OFFCURVE",
"-57 -92 CURVE",
"-60 -109 LINE",
"-43 -115 OFFCURVE",
"-24 -118 OFFCURVE",
"-6 -118 CURVE SMOOTH"
);
}
);
userData = {
assembly = "SVTCA[0]	/* SetFreedomAndProjectionVectorToAxis */\012PUSHW[ ]	/* 1 value pushed */\0120 \012RCVT[ ]	/* ReadCVT */\012IF[ ]	/* If */\012PUSHW[ ]	/* 1 value pushed */\0120 \012MDAP[1]	/* MoveDirectAbsPt */\012ELSE[ ]	/* Else */\012PUSHW[ ]	/* 2 values pushed */\0120 9 \012MIAP[0]	/* MoveIndirectAbsPt */\012EIF[ ]	/* EndIf */\012PUSHW[ ]	/* 1 value pushed */\0120 \012RCVT[ ]	/* ReadCVT */\012IF[ ]	/* If */\012PUSHW[ ]	/* 1 value pushed */\0129 \012MDAP[1]	/* MoveDirectAbsPt */\012ELSE[ ]	/* Else */\012PUSHW[ ]	/* 2 values pushed */\0129 9 \012MIAP[0]	/* MoveIndirectAbsPt */\012EIF[ ]	/* EndIf */\012IUP[0]	/* InterpolateUntPts */\012IUP[1]	/* InterpolateUntPts */";
};
width = 291;
}
);
leftKerningGroup = y;
note = y;
rightKerningGroup = v;
rightMetricsKey = v;
unicode = 0079;
},
{
glyphname = z;
lastChange = "2022-04-05 22:57:46 +0000";
layers = (
{
anchors = (
{
name = bottom;
position = "{83, 0}";
},
{
name = center;
position = "{118, 248}";
},
{
name = top;
position = "{153, 495}";
}
);
layerId = "9AA098C0-EDBC-463F-BC21-AFCD07A070D0";
paths = (
{
closed = 1;
nodes = (
"187 0 LINE",
"189 16 LINE",
"6 16 LINE",
"48 116 OFFCURVE",
"217 368 OFFCURVE",
"256 479 CURVE SMOOTH",
"257 483 OFFCURVE",
"257 491 OFFCURVE",
"257 495 CURVE",
"64 495 LINE",
"62 479 LINE",
"239 479 LINE",
"198 364 OFFCURVE",
"32 131 OFFCURVE",
"-18 7 CURVE",
"-18 0 LINE"
);
}
);
width = 239;
}
);
leftKerningGroup = z;
note = z;
rightKerningGroup = z;
unicode = 007A;
},
{
color = 0;
glyphname = f_f;
lastChange = "2022-04-05 22:58:18 +0000";
layers = (
{
anchors = (
{
name = caret_1;
position = "{228, 0}";
}
);
background = {
paths = (
{
closed = 1;
nodes = (
"380 621 OFFCURVE",
"396 619 OFFCURVE",
"420 616 CURVE",
"422 632 LINE",
"413 633 OFFCURVE",
"389 636 OFFCURVE",
"364 636 CURVE SMOOTH",
"312 636 OFFCURVE",
"287 605 OFFCURVE",
"278 543 CURVE SMOOTH",
"268 474 LINE",
"208 474 LINE",
"206 459 LINE",
"266 459 LINE",
"201 0 LINE SMOOTH",
"191 -73 OFFCURVE",
"179 -103 OFFCURVE",
"130 -103 CURVE SMOOTH",
"111 -103 OFFCURVE",
"90 -101 OFFCURVE",
"84 -100 CURVE",
"82 -114 LINE",
"88 -115 OFFCURVE",
"102 -118 OFFCURVE",
"127 -118 CURVE SMOOTH",
"186 -117 OFFCURVE",
"205 -86 OFFCURVE",
"217 0 CURVE SMOOTH",
"282 459 LINE",
"398 459 LINE",
"400 474 LINE",
"284 474 LINE",
"294 548 LINE SMOOTH",
"299 585 OFFCURVE",
"316 621 OFFCURVE",
"361 621 CURVE SMOOTH"
);
},
{
closed = 1;
nodes = (
"270 634 OFFCURVE",
"234 636 OFFCURVE",
"206 636 CURVE SMOOTH",
"135 636 OFFCURVE",
"110 605 OFFCURVE",
"101 543 CURVE SMOOTH",
"91 474 LINE",
"60 474 LINE",
"58 459 LINE",
"89 459 LINE",
"24 0 LINE SMOOTH",
"14 -73 OFFCURVE",
"2 -103 OFFCURVE",
"-47 -103 CURVE SMOOTH",
"-66 -103 OFFCURVE",
"-87 -101 OFFCURVE",
"-93 -100 CURVE",
"-95 -114 LINE",
"-89 -115 OFFCURVE",
"-75 -118 OFFCURVE",
"-50 -118 CURVE SMOOTH",
"9 -117 OFFCURVE",
"28 -86 OFFCURVE",
"40 0 CURVE SMOOTH",
"105 459 LINE",
"276 459 LINE",
"278 474 LINE",
"107 474 LINE",
"117 548 LINE SMOOTH",
"122 585 OFFCURVE",
"139 621 OFFCURVE",
"200 621 CURVE SMOOTH",
"229 621 OFFCURVE",
"257 619 OFFCURVE",
"292 614 CURVE",
"303 628 LINE"
);
}
);
};
layerId = "9AA098C0-EDBC-463F-BC21-AFCD07A070D0";
paths = (
{
closed = 1;
nodes = (
"9 -117 OFFCURVE",
"28 -86 OFFCURVE",
"40 0 CURVE SMOOTH",
"105 459 LINE",
"276 459 LINE",
"278 474 LINE",
"107 474 LINE",
"117 548 LINE SMOOTH",
"122 585 OFFCURVE",
"139 621 OFFCURVE",
"200 621 CURVE SMOOTH",
"229 621 OFFCURVE",
"257 619 OFFCURVE",
"292 614 CURVE",
"303 628 LINE",
"270 634 OFFCURVE",
"234 636 OFFCURVE",
"206 636 CURVE SMOOTH",
"135 636 OFFCURVE",
"110 605 OFFCURVE",
"101 543 CURVE SMOOTH",
"91 474 LINE",
"60 474 LINE",
"58 459 LINE",
"89 459 LINE",
"24 0 LINE SMOOTH",
"14 -73 OFFCURVE",
"2 -103 OFFCURVE",
"-47 -103 CURVE SMOOTH",
"-66 -103 OFFCURVE",
"-87 -101 OFFCURVE",
"-93 -100 CURVE",
"-95 -114 LINE",
"-89 -115 OFFCURVE",
"-75 -118 OFFCURVE",
"-50 -118 CURVE SMOOTH"
);
},
{
closed = 1;
nodes = (
"186 -117 OFFCURVE",
"205 -86 OFFCURVE",
"217 0 CURVE SMOOTH",
"282 459 LINE",
"398 459 LINE",
"400 474 LINE",
"284 474 LINE",
"294 548 LINE SMOOTH",
"299 585 OFFCURVE",
"316 621 OFFCURVE",
"361 621 CURVE SMOOTH",
"380 621 OFFCURVE",
"396 619 OFFCURVE",
"420 616 CURVE",
"422 632 LINE",
"413 633 OFFCURVE",
"389 636 OFFCURVE",
"364 636 CURVE SMOOTH",
"312 636 OFFCURVE",
"287 605 OFFCURVE",
"278 543 CURVE SMOOTH",
"268 474 LINE",
"208 474 LINE",
"206 459 LINE",
"266 459 LINE",
"201 0 LINE SMOOTH",
"191 -73 OFFCURVE",
"179 -103 OFFCURVE",
"130 -103 CURVE SMOOTH",
"111 -103 OFFCURVE",
"90 -101 OFFCURVE",
"84 -100 CURVE",
"82 -114 LINE",
"88 -115 OFFCURVE",
"102 -118 OFFCURVE",
"127 -118 CURVE SMOOTH"
);
}
);
userData = {
assembly = "SVTCA[0]	/* SetFreedomAndProjectionVectorToAxis */\012PUSHW[ ]	/* 4 values pushed */\01271 3 8 4 \012CALL[ ]	/* CallFunction */\012PUSHW[ ]	/* 1 value pushed */\01271 \012SRP0[ ]	/* SetRefPoint0 */\012PUSHW[ ]	/* 1 value pushed */\01214 \012MDRP[10000]	/* MoveDirectRelPt */\012PUSHW[ ]	/* 3 values pushed */\01276 8 71 \012SRP1[ ]	/* SetRefPoint1 */\012SRP2[ ]	/* SetRefPoint2 */\012IP[ ]	/* InterpolatePts */\012IUP[0]	/* InterpolateUntPts */\012IUP[1]	/* InterpolateUntPts */";
};
width = 356;
}
);
leftMetricsKey = f;
note = f_f;
rightMetricsKey = f;
},
{
color = 0;
glyphname = f_f_i;
lastChange = "2022-04-05 22:58:18 +0000";
layers = (
{
anchors = (
{
name = caret_1;
position = "{266, 0}";
},
{
name = caret_2;
position = "{442, 0}";
}
);
background = {
paths = (
{
closed = 1;
nodes = (
"467 474 LINE",
"451 474 LINE",
"385 0 LINE",
"401 0 LINE"
);
},
{
closed = 1;
nodes = (
"277 633 OFFCURVE",
"236 636 OFFCURVE",
"206 636 CURVE SMOOTH",
"135 636 OFFCURVE",
"110 605 OFFCURVE",
"101 543 CURVE SMOOTH",
"91 474 LINE",
"60 474 LINE",
"58 459 LINE",
"89 459 LINE",
"24 0 LINE SMOOTH",
"14 -73 OFFCURVE",
"2 -103 OFFCURVE",
"-47 -103 CURVE SMOOTH",
"-66 -103 OFFCURVE",
"-87 -101 OFFCURVE",
"-93 -100 CURVE",
"-95 -114 LINE",
"-89 -115 OFFCURVE",
"-75 -118 OFFCURVE",
"-50 -118 CURVE SMOOTH",
"9 -117 OFFCURVE",
"28 -86 OFFCURVE",
"40 0 CURVE SMOOTH",
"105 459 LINE",
"276 459 LINE",
"278 474 LINE",
"107 474 LINE",
"117 548 LINE SMOOTH",
"122 585 OFFCURVE",
"139 621 OFFCURVE",
"200 621 CURVE SMOOTH",
"232 621 OFFCURVE",
"264 619 OFFCURVE",
"293 614 CURVE",
"303 627 LINE"
);
},
{
closed = 1;
nodes = (
"454 633 OFFCURVE",
"412 636 OFFCURVE",
"382 636 CURVE SMOOTH",
"311 636 OFFCURVE",
"286 605 OFFCURVE",
"277 543 CURVE SMOOTH",
"267 474 LINE",
"193 474 LINE",
"191 459 LINE",
"265 459 LINE",
"200 0 LINE SMOOTH",
"190 -73 OFFCURVE",
"178 -103 OFFCURVE",
"129 -103 CURVE SMOOTH",
"110 -103 OFFCURVE",
"89 -101 OFFCURVE",
"83 -100 CURVE",
"81 -114 LINE",
"87 -115 OFFCURVE",
"101 -118 OFFCURVE",
"126 -118 CURVE SMOOTH",
"185 -117 OFFCURVE",
"204 -86 OFFCURVE",
"216 0 CURVE SMOOTH",
"281 459 LINE",
"458 459 LINE",
"460 474 LINE",
"283 474 LINE",
"293 548 LINE SMOOTH",
"298 585 OFFCURVE",
"315 621 OFFCURVE",
"376 621 CURVE SMOOTH",
"410 621 OFFCURVE",
"443 619 OFFCURVE",
"489 610 CURVE",
"489 626 LINE"
);
}
);
};
layerId = "9AA098C0-EDBC-463F-BC21-AFCD07A070D0";
paths = (
{
closed = 1;
nodes = (
"185 -117 OFFCURVE",
"204 -86 OFFCURVE",
"216 0 CURVE SMOOTH",
"281 459 LINE",
"458 459 LINE",
"460 474 LINE",
"283 474 LINE",
"293 548 LINE SMOOTH",
"298 585 OFFCURVE",
"315 621 OFFCURVE",
"376 621 CURVE SMOOTH",
"410 621 OFFCURVE",
"443 619 OFFCURVE",
"489 610 CURVE",
"489 626 LINE",
"454 633 OFFCURVE",
"412 636 OFFCURVE",
"382 636 CURVE SMOOTH",
"311 636 OFFCURVE",
"286 605 OFFCURVE",
"277 543 CURVE SMOOTH",
"267 474 LINE",
"193 474 LINE",
"191 459 LINE",
"265 459 LINE",
"200 0 LINE SMOOTH",
"190 -73 OFFCURVE",
"178 -103 OFFCURVE",
"129 -103 CURVE SMOOTH",
"110 -103 OFFCURVE",
"89 -101 OFFCURVE",
"83 -100 CURVE",
"81 -114 LINE",
"87 -115 OFFCURVE",
"101 -118 OFFCURVE",
"126 -118 CURVE SMOOTH"
);
},
{
closed = 1;
nodes = (
"9 -117 OFFCURVE",
"28 -86 OFFCURVE",
"40 0 CURVE SMOOTH",
"105 459 LINE",
"276 459 LINE",
"278 474 LINE",
"107 474 LINE",
"117 548 LINE SMOOTH",
"122 585 OFFCURVE",
"139 621 OFFCURVE",
"200 621 CURVE SMOOTH",
"232 621 OFFCURVE",
"264 619 OFFCURVE",
"293 614 CURVE",
"303 627 LINE",
"277 633 OFFCURVE",
"236 636 OFFCURVE",
"206 636 CURVE SMOOTH",
"135 636 OFFCURVE",
"110 605 OFFCURVE",
"101 543 CURVE SMOOTH",
"91 474 LINE",
"60 474 LINE",
"58 459 LINE",
"89 459 LINE",
"24 0 LINE SMOOTH",
"14 -73 OFFCURVE",
"2 -103 OFFCURVE",
"-47 -103 CURVE SMOOTH",
"-66 -103 OFFCURVE",
"-87 -101 OFFCURVE",
"-93 -100 CURVE",
"-95 -114 LINE",
"-89 -115 OFFCURVE",
"-75 -118 OFFCURVE",
"-50 -118 CURVE SMOOTH"
);
},
{
closed = 1;
nodes = (
"401 0 LINE",
"467 474 LINE",
"451 474 LINE",
"385 0 LINE"
);
}
);
userData = {
assembly = "SVTCA[0]	/* SetFreedomAndProjectionVectorToAxis */\012PUSHW[ ]	/* 1 value pushed */\0120 \012RCVT[ ]	/* ReadCVT */\012IF[ ]	/* If */\012PUSHW[ ]	/* 1 value pushed */\0120 \012MDAP[1]	/* MoveDirectAbsPt */\012ELSE[ ]	/* Else */\012PUSHW[ ]	/* 2 values pushed */\0120 5 \012MIAP[0]	/* MoveIndirectAbsPt */\012EIF[ ]	/* EndIf */\012PUSHW[ ]	/* 4 values pushed */\01240 3 54 4 \012CALL[ ]	/* CallFunction */\012PUSHW[ ]	/* 3 values pushed */\01245 54 40 \012SRP1[ ]	/* SetRefPoint1 */\012SRP2[ ]	/* SetRefPoint2 */\012IP[ ]	/* InterpolatePts */\012PUSHW[ ]	/* 1 value pushed */\01240 \012SRP0[ ]	/* SetRefPoint0 */\012PUSHW[ ]	/* 1 value pushed */\01262 \012MDRP[10000]	/* MoveDirectRelPt */\012IUP[0]	/* InterpolateUntPts */\012IUP[1]	/* InterpolateUntPts */";
};
width = 495;
}
);
leftMetricsKey = f;
note = f_f_i;
rightMetricsKey = i;
},
{
color = 0;
glyphname = f_f_l;
lastChange = "2022-04-05 22:58:18 +0000";
layers = (
{
anchors = (
{
name = caret_1;
position = "{267, 0}";
},
{
name = caret_2;
position = "{442, 0}";
}
);
layerId = "9AA098C0-EDBC-463F-BC21-AFCD07A070D0";
paths = (
{
closed = 1;
nodes = (
"185 -117 OFFCURVE",
"204 -86 OFFCURVE",
"216 0 CURVE SMOOTH",
"281 459 LINE",
"398 459 LINE",
"400 474 LINE",
"283 474 LINE",
"293 548 LINE SMOOTH",
"298 585 OFFCURVE",
"315 621 OFFCURVE",
"376 621 CURVE SMOOTH",
"410 621 OFFCURVE",
"443 619 OFFCURVE",
"482 610 CURVE",
"489 626 LINE",
"454 633 OFFCURVE",
"412 636 OFFCURVE",
"382 636 CURVE SMOOTH",
"311 636 OFFCURVE",
"286 605 OFFCURVE",
"277 543 CURVE SMOOTH",
"267 474 LINE",
"193 474 LINE",
"191 459 LINE",
"265 459 LINE",
"200 0 LINE SMOOTH",
"190 -73 OFFCURVE",
"178 -103 OFFCURVE",
"129 -103 CURVE SMOOTH",
"110 -103 OFFCURVE",
"89 -101 OFFCURVE",
"83 -100 CURVE",
"81 -114 LINE",
"87 -115 OFFCURVE",
"101 -118 OFFCURVE",
"126 -118 CURVE SMOOTH"
);
},
{
closed = 1;
nodes = (
"9 -117 OFFCURVE",
"28 -86 OFFCURVE",
"40 0 CURVE SMOOTH",
"105 459 LINE",
"276 459 LINE",
"278 474 LINE",
"107 474 LINE",
"117 548 LINE SMOOTH",
"122 585 OFFCURVE",
"139 621 OFFCURVE",
"200 621 CURVE SMOOTH",
"232 621 OFFCURVE",
"264 619 OFFCURVE",
"293 614 CURVE",
"303 627 LINE",
"277 633 OFFCURVE",
"236 636 OFFCURVE",
"206 636 CURVE SMOOTH",
"135 636 OFFCURVE",
"110 605 OFFCURVE",
"101 543 CURVE SMOOTH",
"91 474 LINE",
"60 474 LINE",
"58 459 LINE",
"89 459 LINE",
"24 0 LINE SMOOTH",
"14 -73 OFFCURVE",
"2 -103 OFFCURVE",
"-47 -103 CURVE SMOOTH",
"-66 -103 OFFCURVE",
"-87 -101 OFFCURVE",
"-93 -100 CURVE",
"-95 -114 LINE",
"-89 -115 OFFCURVE",
"-75 -118 OFFCURVE",
"-50 -118 CURVE SMOOTH"
);
},
{
closed = 1;
nodes = (
"401 0 LINE",
"489 626 LINE",
"473 626 LINE",
"385 0 LINE"
);
}
);
userData = {
assembly = "SVTCA[0]	/* SetFreedomAndProjectionVectorToAxis */\012PUSHW[ ]	/* 1 value pushed */\0120 \012RCVT[ ]	/* ReadCVT */\012IF[ ]	/* If */\012PUSHW[ ]	/* 1 value pushed */\01252 \012MDAP[1]	/* MoveDirectAbsPt */\012ELSE[ ]	/* Else */\012PUSHW[ ]	/* 2 values pushed */\01252 5 \012MIAP[0]	/* MoveIndirectAbsPt */\012EIF[ ]	/* EndIf */\012PUSHW[ ]	/* 4 values pushed */\01224 3 38 4 \012CALL[ ]	/* CallFunction */\012PUSHW[ ]	/* 3 values pushed */\01229 38 24 \012SRP1[ ]	/* SetRefPoint1 */\012SRP2[ ]	/* SetRefPoint2 */\012IP[ ]	/* InterpolatePts */\012PUSHW[ ]	/* 1 value pushed */\01224 \012SRP0[ ]	/* SetRefPoint0 */\012PUSHW[ ]	/* 1 value pushed */\01246 \012MDRP[10000]	/* MoveDirectRelPt */\012IUP[0]	/* InterpolateUntPts */\012IUP[1]	/* InterpolateUntPts */";
};
width = 490;
}
);
leftMetricsKey = f;
note = f_f_l;
rightMetricsKey = l;
},
{
color = 0;
glyphname = fi;
lastChange = "2022-04-05 22:44:37 +0000";
layers = (
{
layerId = "9AA098C0-EDBC-463F-BC21-AFCD07A070D0";
paths = (
{
closed = 1;
nodes = (
"9 -117 OFFCURVE",
"28 -86 OFFCURVE",
"40 0 CURVE SMOOTH",
"105 459 LINE",
"282 459 LINE",
"284 474 LINE",
"107 474 LINE",
"117 548 LINE SMOOTH",
"122 585 OFFCURVE",
"139 621 OFFCURVE",
"200 621 CURVE SMOOTH",
"234 621 OFFCURVE",
"267 619 OFFCURVE",
"313 610 CURVE",
"313 626 LINE",
"278 633 OFFCURVE",
"236 636 OFFCURVE",
"206 636 CURVE SMOOTH",
"135 636 OFFCURVE",
"110 605 OFFCURVE",
"101 543 CURVE SMOOTH",
"91 474 LINE",
"52 474 LINE",
"50 459 LINE",
"89 459 LINE",
"24 0 LINE SMOOTH",
"14 -73 OFFCURVE",
"2 -103 OFFCURVE",
"-47 -103 CURVE SMOOTH",
"-66 -103 OFFCURVE",
"-87 -101 OFFCURVE",
"-93 -100 CURVE",
"-95 -114 LINE",
"-89 -115 OFFCURVE",
"-75 -118 OFFCURVE",
"-50 -118 CURVE SMOOTH"
);
},
{
closed = 1;
nodes = (
"225 0 LINE",
"291 474 LINE",
"275 474 LINE",
"209 0 LINE"
);
}
);
userData = {
assembly = "SVTCA[0]	/* SetFreedomAndProjectionVectorToAxis */\012PUSHW[ ]	/* 1 value pushed */\0120 \012RCVT[ ]	/* ReadCVT */\012IF[ ]	/* If */\012PUSHW[ ]	/* 1 value pushed */\0120 \012MDAP[1]	/* MoveDirectAbsPt */\012ELSE[ ]	/* Else */\012PUSHW[ ]	/* 2 values pushed */\0120 5 \012MIAP[0]	/* MoveIndirectAbsPt */\012EIF[ ]	/* EndIf */\012PUSHW[ ]	/* 4 values pushed */\01225 3 41 4 \012CALL[ ]	/* CallFunction */\012IUP[0]	/* InterpolateUntPts */\012IUP[1]	/* InterpolateUntPts */";
};
width = 319;
}
);
leftMetricsKey = f;
note = fi;
rightMetricsKey = i;
unicode = FB01;
},
{
color = 0;
glyphname = fl;
lastChange = "2022-04-05 22:44:37 +0000";
layers = (
{
layerId = "9AA098C0-EDBC-463F-BC21-AFCD07A070D0";
paths = (
{
closed = 1;
nodes = (
"9 -117 OFFCURVE",
"28 -86 OFFCURVE",
"40 0 CURVE SMOOTH",
"105 459 LINE",
"222 459 LINE",
"224 474 LINE",
"107 474 LINE",
"117 548 LINE SMOOTH",
"122 585 OFFCURVE",
"139 621 OFFCURVE",
"200 621 CURVE SMOOTH",
"234 621 OFFCURVE",
"267 619 OFFCURVE",
"306 610 CURVE",
"313 626 LINE",
"278 633 OFFCURVE",
"236 636 OFFCURVE",
"206 636 CURVE SMOOTH",
"135 636 OFFCURVE",
"110 605 OFFCURVE",
"101 543 CURVE SMOOTH",
"91 474 LINE",
"62 474 LINE",
"60 459 LINE",
"89 459 LINE",
"24 0 LINE SMOOTH",
"14 -73 OFFCURVE",
"2 -103 OFFCURVE",
"-47 -103 CURVE SMOOTH",
"-66 -103 OFFCURVE",
"-87 -101 OFFCURVE",
"-93 -100 CURVE",
"-95 -114 LINE",
"-89 -115 OFFCURVE",
"-75 -118 OFFCURVE",
"-50 -118 CURVE SMOOTH"
);
},
{
closed = 1;
nodes = (
"225 0 LINE",
"313 626 LINE",
"297 626 LINE",
"209 0 LINE"
);
}
);
userData = {
assembly = "SVTCA[0]	/* SetFreedomAndProjectionVectorToAxis */\012PUSHW[ ]	/* 1 value pushed */\0120 \012RCVT[ ]	/* ReadCVT */\012IF[ ]	/* If */\012PUSHW[ ]	/* 1 value pushed */\0120 \012MDAP[1]	/* MoveDirectAbsPt */\012ELSE[ ]	/* Else */\012PUSHW[ ]	/* 2 values pushed */\0120 5 \012MIAP[0]	/* MoveIndirectAbsPt */\012EIF[ ]	/* EndIf */\012IUP[0]	/* InterpolateUntPts */\012IUP[1]	/* InterpolateUntPts */";
};
width = 314;
}
);
leftMetricsKey = f;
note = fl;
rightMetricsKey = l;
unicode = FB02;
},
{
color = 0;
glyphname = longs_t;
lastChange = "2022-04-05 22:58:18 +0000";
layers = (
{
anchors = (
{
name = caret_1;
position = "{273, 0}";
}
);
layerId = "9AA098C0-EDBC-463F-BC21-AFCD07A070D0";
paths = (
{
closed = 1;
nodes = (
"9 -117 OFFCURVE",
"28 -86 OFFCURVE",
"40 0 CURVE SMOOTH",
"102 438 LINE",
"117 548 LINE SMOOTH",
"122 585 OFFCURVE",
"139 621 OFFCURVE",
"200 621 CURVE SMOOTH",
"238 621 OFFCURVE",
"289 614 OFFCURVE",
"303 610 CURVE",
"309 622 LINE",
"299 627 OFFCURVE",
"242 636 OFFCURVE",
"206 636 CURVE SMOOTH",
"135 636 OFFCURVE",
"110 605 OFFCURVE",
"101 543 CURVE SMOOTH",
"87 443 LINE",
"56 443 LINE",
"54 428 LINE",
"85 428 LINE",
"24 0 LINE SMOOTH",
"14 -73 OFFCURVE",
"2 -103 OFFCURVE",
"-47 -103 CURVE SMOOTH",
"-66 -103 OFFCURVE",
"-87 -101 OFFCURVE",
"-93 -100 CURVE",
"-95 -114 LINE",
"-89 -115 OFFCURVE",
"-75 -118 OFFCURVE",
"-50 -118 CURVE SMOOTH"
);
},
{
closed = 1;
nodes = (
"303 0 OFFCURVE",
"329 3 OFFCURVE",
"338 4 CURVE",
"340 20 LINE",
"316 17 OFFCURVE",
"299 15 OFFCURVE",
"280 15 CURVE SMOOTH",
"243 15 OFFCURVE",
"233 39 OFFCURVE",
"233 68 CURVE SMOOTH",
"233 74 OFFCURVE",
"233 81 OFFCURVE",
"234 88 CURVE SMOOTH",
"289 479 LINE",
"405 479 LINE",
"407 495 LINE",
"291 495 LINE",
"309 622 LINE",
"296 622 LINE",
"275 495 LINE",
"237 493 LINE",
"235 479 LINE",
"273 479 LINE",
"218 93 LINE SMOOTH",
"217 83 OFFCURVE",
"216 74 OFFCURVE",
"216 66 CURVE SMOOTH",
"216 22 OFFCURVE",
"234 0 OFFCURVE",
"278 0 CURVE SMOOTH"
);
}
);
userData = {
assembly = "PUSHW[ ]	/* 4 values pushed */\01251 4 36 4 \012CALL[ ]	/* CallFunction */\012PUSHW[ ]	/* 4 values pushed */\01220 4 32 4 \012CALL[ ]	/* CallFunction */\012PUSHW[ ]	/* 1 value pushed */\01251 \012SRP0[ ]	/* SetRefPoint0 */\012PUSHW[ ]	/* 1 value pushed */\01254 \012MDRP[10000]	/* MoveDirectRelPt */\012PUSHW[ ]	/* 1 value pushed */\01254 \012MDAP[1]	/* MoveDirectAbsPt */\012SVTCA[0]	/* SetFreedomAndProjectionVectorToAxis */\012PUSHW[ ]	/* 1 value pushed */\0120 \012RCVT[ ]	/* ReadCVT */\012IF[ ]	/* If */\012PUSHW[ ]	/* 1 value pushed */\01211 \012MDAP[1]	/* MoveDirectAbsPt */\012ELSE[ ]	/* Else */\012PUSHW[ ]	/* 2 values pushed */\01211 5 \012MIAP[0]	/* MoveIndirectAbsPt */\012EIF[ ]	/* EndIf */\012PUSHW[ ]	/* 1 value pushed */\0120 \012RCVT[ ]	/* ReadCVT */\012IF[ ]	/* If */\012PUSHW[ ]	/* 1 value pushed */\01214 \012MDAP[1]	/* MoveDirectAbsPt */\012ELSE[ ]	/* Else */\012PUSHW[ ]	/* 2 values pushed */\01214 5 \012MIAP[0]	/* MoveIndirectAbsPt */\012EIF[ ]	/* EndIf */\012PUSHW[ ]	/* 4 values pushed */\01258 3 32 4 \012CALL[ ]	/* CallFunction */\012IUP[0]	/* InterpolateUntPts */\012IUP[1]	/* InterpolateUntPts */";
};
width = 376;
}
);
leftMetricsKey = longs;
note = longs_t;
rightMetricsKey = t;
},
{
color = 0;
glyphname = s_t;
lastChange = "2022-04-05 22:58:18 +0000";
layers = (
{
anchors = (
{
name = caret_1;
position = "{304, 0}";
}
);
layerId = "9AA098C0-EDBC-463F-BC21-AFCD07A070D0";
paths = (
{
closed = 1;
nodes = (
"177 -6 OFFCURVE",
"242 19 OFFCURVE",
"254 96 CURVE SMOOTH",
"260 134 LINE SMOOTH",
"261 141 OFFCURVE",
"262 148 OFFCURVE",
"262 155 CURVE SMOOTH",
"262 221 OFFCURVE",
"203 244 OFFCURVE",
"153 269 CURVE SMOOTH",
"112 290 OFFCURVE",
"64 302 OFFCURVE",
"64 361 CURVE SMOOTH",
"64 368 OFFCURVE",
"64 375 OFFCURVE",
"66 384 CURVE SMOOTH",
"68 395 LINE SMOOTH",
"78 449 OFFCURVE",
"118 486 OFFCURVE",
"185 486 CURVE SMOOTH",
"237 486 OFFCURVE",
"278 468 OFFCURVE",
"278 423 CURVE SMOOTH",
"278 410 OFFCURVE",
"274 394 OFFCURVE",
"266 376 CURVE SMOOTH",
"252 344 LINE",
"270 344 LINE",
"288 386 LINE SMOOTH",
"293 398 OFFCURVE",
"296 409 OFFCURVE",
"297 419 CURVE SMOOTH",
"312 548 LINE SMOOTH",
"317 585 OFFCURVE",
"334 618 OFFCURVE",
"387 618 CURVE SMOOTH",
"402 618 OFFCURVE",
"414 616 OFFCURVE",
"425 612 CURVE",
"405 495 LINE",
"367 493 LINE",
"365 479 LINE",
"403 479 LINE",
"348 93 LINE SMOOTH",
"347 83 OFFCURVE",
"346 74 OFFCURVE",
"346 66 CURVE SMOOTH",
"346 22 OFFCURVE",
"364 0 OFFCURVE",
"408 0 CURVE SMOOTH",
"433 0 OFFCURVE",
"459 3 OFFCURVE",
"468 4 CURVE",
"470 20 LINE",
"446 17 OFFCURVE",
"429 15 OFFCURVE",
"410 15 CURVE SMOOTH",
"373 15 OFFCURVE",
"363 39 OFFCURVE",
"363 68 CURVE SMOOTH",
"363 74 OFFCURVE",
"363 81 OFFCURVE",
"364 88 CURVE SMOOTH",
"419 479 LINE",
"535 479 LINE",
"537 495 LINE",
"421 495 LINE",
"439 621 LINE",
"425 628 OFFCURVE",
"407 633 OFFCURVE",
"387 633 CURVE SMOOTH",
"330 633 OFFCURVE",
"303 605 OFFCURVE",
"296 543 CURVE SMOOTH",
"287 462 LINE",
"269 489 OFFCURVE",
"229 502 OFFCURVE",
"188 502 CURVE SMOOTH",
"112 502 OFFCURVE",
"62 460 OFFCURVE",
"53 404 CURVE SMOOTH",
"49 380 LINE SMOOTH",
"48 372 OFFCURVE",
"47 364 OFFCURVE",
"47 357 CURVE SMOOTH",
"47 299 OFFCURVE",
"93 279 OFFCURVE",
"146 254 CURVE SMOOTH",
"191 233 OFFCURVE",
"247 214 OFFCURVE",
"247 152 CURVE SMOOTH",
"247 144 OFFCURVE",
"246 136 OFFCURVE",
"244 127 CURVE SMOOTH",
"238 96 LINE SMOOTH",
"228 43 OFFCURVE",
"183 10 OFFCURVE",
"117 10 CURVE SMOOTH",
"62 10 OFFCURVE",
"25 32 OFFCURVE",
"25 77 CURVE SMOOTH",
"25 112 OFFCURVE",
"54 151 OFFCURVE",
"68 166 CURVE",
"48 166 LINE",
"39 153 OFFCURVE",
"16 124 OFFCURVE",
"11 99 CURVE SMOOTH",
"10 91 OFFCURVE",
"9 84 OFFCURVE",
"9 76 CURVE SMOOTH",
"9 21 OFFCURVE",
"53 -6 OFFCURVE",
"114 -6 CURVE SMOOTH"
);
}
);
userData = {
assembly = "SVTCA[0]	/* SetFreedomAndProjectionVectorToAxis */\012PUSHW[ ]	/* 1 value pushed */\0120 \012RCVT[ ]	/* ReadCVT */\012IF[ ]	/* If */\012PUSHW[ ]	/* 1 value pushed */\0128 \012MDAP[1]	/* MoveDirectAbsPt */\012ELSE[ ]	/* Else */\012PUSHW[ ]	/* 2 values pushed */\0128 9 \012MIAP[0]	/* MoveIndirectAbsPt */\012EIF[ ]	/* EndIf */\012PUSHW[ ]	/* 1 value pushed */\0120 \012RCVT[ ]	/* ReadCVT */\012IF[ ]	/* If */\012PUSHW[ ]	/* 1 value pushed */\01255 \012MDAP[1]	/* MoveDirectAbsPt */\012ELSE[ ]	/* Else */\012PUSHW[ ]	/* 2 values pushed */\01255 9 \012MIAP[0]	/* MoveIndirectAbsPt */\012EIF[ ]	/* EndIf */\012PUSHW[ ]	/* 1 value pushed */\0120 \012RCVT[ ]	/* ReadCVT */\012IF[ ]	/* If */\012PUSHW[ ]	/* 1 value pushed */\01268 \012MDAP[1]	/* MoveDirectAbsPt */\012ELSE[ ]	/* Else */\012PUSHW[ ]	/* 2 values pushed */\01268 9 \012MIAP[0]	/* MoveIndirectAbsPt */\012EIF[ ]	/* EndIf */\012PUSHW[ ]	/* 1 value pushed */\0120 \012RCVT[ ]	/* ReadCVT */\012IF[ ]	/* If */\012PUSHW[ ]	/* 1 value pushed */\01295 \012MDAP[1]	/* MoveDirectAbsPt */\012ELSE[ ]	/* Else */\012PUSHW[ ]	/* 2 values pushed */\01295 9 \012MIAP[0]	/* MoveIndirectAbsPt */\012EIF[ ]	/* EndIf */\012PUSHW[ ]	/* 1 value pushed */\0120 \012RCVT[ ]	/* ReadCVT */\012IF[ ]	/* If */\012PUSHW[ ]	/* 1 value pushed */\01239 \012MDAP[1]	/* MoveDirectAbsPt */\012ELSE[ ]	/* Else */\012PUSHW[ ]	/* 2 values pushed */\01239 5 \012MIAP[0]	/* MoveIndirectAbsPt */\012EIF[ ]	/* EndIf */\012PUSHW[ ]	/* 1 value pushed */\0120 \012RCVT[ ]	/* ReadCVT */\012IF[ ]	/* If */\012PUSHW[ ]	/* 1 value pushed */\01277 \012MDAP[1]	/* MoveDirectAbsPt */\012ELSE[ ]	/* Else */\012PUSHW[ ]	/* 2 values pushed */\01277 5 \012MIAP[0]	/* MoveIndirectAbsPt */\012EIF[ ]	/* EndIf */\012PUSHW[ ]	/* 1 value pushed */\0120 \012RCVT[ ]	/* ReadCVT */\012IF[ ]	/* If */\012PUSHW[ ]	/* 1 value pushed */\01283 \012MDAP[1]	/* MoveDirectAbsPt */\012ELSE[ ]	/* Else */\012PUSHW[ ]	/* 2 values pushed */\01283 5 \012MIAP[0]	/* MoveIndirectAbsPt */\012EIF[ ]	/* EndIf */\012PUSHW[ ]	/* 1 value pushed */\0120 \012RCVT[ ]	/* ReadCVT */\012IF[ ]	/* If */\012PUSHW[ ]	/* 1 value pushed */\01285 \012MDAP[1]	/* MoveDirectAbsPt */\012ELSE[ ]	/* Else */\012PUSHW[ ]	/* 2 values pushed */\01285 5 \012MIAP[0]	/* MoveIndirectAbsPt */\012EIF[ ]	/* EndIf */\012PUSHW[ ]	/* 1 value pushed */\0120 \012RCVT[ ]	/* ReadCVT */\012IF[ ]	/* If */\012PUSHW[ ]	/* 1 value pushed */\01287 \012MDAP[1]	/* MoveDirectAbsPt */\012ELSE[ ]	/* Else */\012PUSHW[ ]	/* 2 values pushed */\01287 5 \012MIAP[0]	/* MoveIndirectAbsPt */\012EIF[ ]	/* EndIf */\012PUSHW[ ]	/* 3 values pushed */\0120 87 55 \012SRP1[ ]	/* SetRefPoint1 */\012SRP2[ ]	/* SetRefPoint2 */\012IP[ ]	/* InterpolatePts */\012PUSHW[ ]	/* 3 values pushed */\01234 87 55 \012SRP1[ ]	/* SetRefPoint1 */\012SRP2[ ]	/* SetRefPoint2 */\012IP[ ]	/* InterpolatePts */\012PUSHW[ ]	/* 3 values pushed */\01258 87 55 \012SRP1[ ]	/* SetRefPoint1 */\012SRP2[ ]	/* SetRefPoint2 */\012IP[ ]	/* InterpolatePts */\012PUSHW[ ]	/* 3 values pushed */\01282 87 55 \012SRP1[ ]	/* SetRefPoint1 */\012SRP2[ ]	/* SetRefPoint2 */\012IP[ ]	/* InterpolatePts */\012IUP[0]	/* InterpolateUntPts */\012IUP[1]	/* InterpolateUntPts */";
};
width = 506;
}
);
leftMetricsKey = s;
note = s_t;
rightMetricsKey = t;
},
{
color = 0;
glyphname = t_i;
lastChange = "2022-04-05 22:58:18 +0000";
layers = (
{
anchors = (
{
name = caret_1;
position = "{205, 0}";
}
);
layerId = "9AA098C0-EDBC-463F-BC21-AFCD07A070D0";
paths = (
{
closed = 1;
nodes = (
"125 0 OFFCURVE",
"151 3 OFFCURVE",
"160 4 CURVE",
"162 20 LINE",
"138 17 OFFCURVE",
"121 15 OFFCURVE",
"102 15 CURVE SMOOTH",
"65 15 OFFCURVE",
"55 39 OFFCURVE",
"55 68 CURVE SMOOTH",
"55 74 OFFCURVE",
"55 81 OFFCURVE",
"56 88 CURVE SMOOTH",
"111 479 LINE",
"309 480 LINE",
"314 495 LINE",
"113 495 LINE",
"127 592 LINE",
"114 592 LINE",
"97 495 LINE",
"59 493 LINE",
"57 479 LINE",
"95 479 LINE",
"40 93 LINE SMOOTH",
"39 83 OFFCURVE",
"38 74 OFFCURVE",
"38 66 CURVE SMOOTH",
"38 22 OFFCURVE",
"56 0 OFFCURVE",
"100 0 CURVE SMOOTH"
);
},
{
closed = 1;
nodes = (
"245 0 LINE",
"314 495 LINE",
"298 495 LINE",
"229 0 LINE"
);
},
{
closed = 1;
nodes = (
"333 619 OFFCURVE",
"338 624 OFFCURVE",
"338 635 CURVE SMOOTH",
"338 640 OFFCURVE",
"333 643 OFFCURVE",
"326 643 CURVE SMOOTH",
"316 643 OFFCURVE",
"311 638 OFFCURVE",
"311 629 CURVE SMOOTH",
"311 622 OFFCURVE",
"315 619 OFFCURVE",
"323 619 CURVE SMOOTH"
);
}
);
userData = {
assembly = "SVTCA[0]	/* SetFreedomAndProjectionVectorToAxis */\012PUSHW[ ]	/* 1 value pushed */\0120 \012RCVT[ ]	/* ReadCVT */\012IF[ ]	/* If */\012PUSHW[ ]	/* 1 value pushed */\01227 \012MDAP[1]	/* MoveDirectAbsPt */\012ELSE[ ]	/* Else */\012PUSHW[ ]	/* 2 values pushed */\01227 9 \012MIAP[0]	/* MoveIndirectAbsPt */\012EIF[ ]	/* EndIf */\012PUSHW[ ]	/* 1 value pushed */\0120 \012RCVT[ ]	/* ReadCVT */\012IF[ ]	/* If */\012PUSHW[ ]	/* 1 value pushed */\01230 \012MDAP[1]	/* MoveDirectAbsPt */\012ELSE[ ]	/* Else */\012PUSHW[ ]	/* 2 values pushed */\01230 9 \012MIAP[0]	/* MoveIndirectAbsPt */\012EIF[ ]	/* EndIf */\012PUSHW[ ]	/* 1 value pushed */\0120 \012RCVT[ ]	/* ReadCVT */\012IF[ ]	/* If */\012PUSHW[ ]	/* 1 value pushed */\0120 \012MDAP[1]	/* MoveDirectAbsPt */\012ELSE[ ]	/* Else */\012PUSHW[ ]	/* 2 values pushed */\0120 5 \012MIAP[0]	/* MoveIndirectAbsPt */\012EIF[ ]	/* EndIf */\012PUSHW[ ]	/* 1 value pushed */\0120 \012RCVT[ ]	/* ReadCVT */\012IF[ ]	/* If */\012PUSHW[ ]	/* 1 value pushed */\01214 \012MDAP[1]	/* MoveDirectAbsPt */\012ELSE[ ]	/* Else */\012PUSHW[ ]	/* 2 values pushed */\01214 5 \012MIAP[0]	/* MoveIndirectAbsPt */\012EIF[ ]	/* EndIf */\012PUSHW[ ]	/* 1 value pushed */\0120 \012RCVT[ ]	/* ReadCVT */\012IF[ ]	/* If */\012PUSHW[ ]	/* 1 value pushed */\01216 \012MDAP[1]	/* MoveDirectAbsPt */\012ELSE[ ]	/* Else */\012PUSHW[ ]	/* 2 values pushed */\01216 5 \012MIAP[0]	/* MoveIndirectAbsPt */\012EIF[ ]	/* EndIf */\012PUSHW[ ]	/* 1 value pushed */\0120 \012RCVT[ ]	/* ReadCVT */\012IF[ ]	/* If */\012PUSHW[ ]	/* 1 value pushed */\01218 \012MDAP[1]	/* MoveDirectAbsPt */\012ELSE[ ]	/* Else */\012PUSHW[ ]	/* 2 values pushed */\01218 5 \012MIAP[0]	/* MoveIndirectAbsPt */\012EIF[ ]	/* EndIf */\012PUSHW[ ]	/* 3 values pushed */\01213 18 27 \012SRP1[ ]	/* SetRefPoint1 */\012SRP2[ ]	/* SetRefPoint2 */\012IP[ ]	/* InterpolatePts */\012IUP[0]	/* InterpolateUntPts */\012IUP[1]	/* InterpolateUntPts */";
};
width = 341;
}
);
leftMetricsKey = t;
note = t_i;
rightKerningGroup = lslash;
rightMetricsKey = i;
},
{
color = 0;
glyphname = t_u;
lastChange = "2022-04-05 22:58:18 +0000";
layers = (
{
anchors = (
{
name = caret_1;
position = "{205, 0}";
},
{
name = topright_2;
position = "{581, 495}";
}
);
layerId = "9AA098C0-EDBC-463F-BC21-AFCD07A070D0";
paths = (
{
closed = 1;
nodes = (
"125 0 OFFCURVE",
"151 3 OFFCURVE",
"160 4 CURVE",
"162 20 LINE",
"138 17 OFFCURVE",
"121 15 OFFCURVE",
"102 15 CURVE SMOOTH",
"65 15 OFFCURVE",
"55 39 OFFCURVE",
"55 68 CURVE SMOOTH",
"55 74 OFFCURVE",
"55 81 OFFCURVE",
"56 88 CURVE SMOOTH",
"111 479 LINE",
"297 479 LINE",
"309 495 LINE",
"113 495 LINE",
"127 592 LINE",
"114 592 LINE",
"97 495 LINE",
"59 493 LINE",
"57 479 LINE",
"95 479 LINE",
"40 93 LINE SMOOTH",
"39 83 OFFCURVE",
"38 74 OFFCURVE",
"38 66 CURVE SMOOTH",
"38 22 OFFCURVE",
"56 0 OFFCURVE",
"100 0 CURVE SMOOTH"
);
},
{
closed = 1;
nodes = (
"390 -8 OFFCURVE",
"444 43 OFFCURVE",
"464 100 CURVE",
"452 0 LINE",
"468 0 LINE",
"537 495 LINE",
"521 495 LINE",
"481 202 LINE SMOOTH",
"467 103 OFFCURVE",
"401 8 OFFCURVE",
"330 8 CURVE SMOOTH",
"268 8 OFFCURVE",
"254 42 OFFCURVE",
"254 83 CURVE SMOOTH",
"254 99 OFFCURVE",
"256 116 OFFCURVE",
"258 132 CURVE SMOOTH",
"309 495 LINE",
"293 495 LINE",
"241 123 LINE SMOOTH",
"239 108 OFFCURVE",
"237 92 OFFCURVE",
"237 76 CURVE SMOOTH",
"237 31 OFFCURVE",
"253 -8 OFFCURVE",
"326 -8 CURVE SMOOTH"
);
}
);
userData = {
assembly = "SVTCA[0]	/* SetFreedomAndProjectionVectorToAxis */\012PUSHW[ ]	/* 1 value pushed */\0120 \012RCVT[ ]	/* ReadCVT */\012IF[ ]	/* If */\012PUSHW[ ]	/* 1 value pushed */\01238 \012MDAP[1]	/* MoveDirectAbsPt */\012ELSE[ ]	/* Else */\012PUSHW[ ]	/* 2 values pushed */\01238 9 \012MIAP[0]	/* MoveIndirectAbsPt */\012EIF[ ]	/* EndIf */\012PUSHW[ ]	/* 1 value pushed */\0120 \012RCVT[ ]	/* ReadCVT */\012IF[ ]	/* If */\012PUSHW[ ]	/* 1 value pushed */\01241 \012MDAP[1]	/* MoveDirectAbsPt */\012ELSE[ ]	/* Else */\012PUSHW[ ]	/* 2 values pushed */\01241 9 \012MIAP[0]	/* MoveIndirectAbsPt */\012EIF[ ]	/* EndIf */\012PUSHW[ ]	/* 1 value pushed */\0120 \012RCVT[ ]	/* ReadCVT */\012IF[ ]	/* If */\012PUSHW[ ]	/* 1 value pushed */\01254 \012MDAP[1]	/* MoveDirectAbsPt */\012ELSE[ ]	/* Else */\012PUSHW[ ]	/* 2 values pushed */\01254 9 \012MIAP[0]	/* MoveIndirectAbsPt */\012EIF[ ]	/* EndIf */\012PUSHW[ ]	/* 1 value pushed */\0120 \012RCVT[ ]	/* ReadCVT */\012IF[ ]	/* If */\012PUSHW[ ]	/* 1 value pushed */\0120 \012MDAP[1]	/* MoveDirectAbsPt */\012ELSE[ ]	/* Else */\012PUSHW[ ]	/* 2 values pushed */\0120 5 \012MIAP[0]	/* MoveIndirectAbsPt */\012EIF[ ]	/* EndIf */\012PUSHW[ ]	/* 1 value pushed */\0120 \012RCVT[ ]	/* ReadCVT */\012IF[ ]	/* If */\012PUSHW[ ]	/* 1 value pushed */\01225 \012MDAP[1]	/* MoveDirectAbsPt */\012ELSE[ ]	/* Else */\012PUSHW[ ]	/* 2 values pushed */\01225 5 \012MIAP[0]	/* MoveIndirectAbsPt */\012EIF[ ]	/* EndIf */\012PUSHW[ ]	/* 1 value pushed */\0120 \012RCVT[ ]	/* ReadCVT */\012IF[ ]	/* If */\012PUSHW[ ]	/* 1 value pushed */\01227 \012MDAP[1]	/* MoveDirectAbsPt */\012ELSE[ ]	/* Else */\012PUSHW[ ]	/* 2 values pushed */\01227 5 \012MIAP[0]	/* MoveIndirectAbsPt */\012EIF[ ]	/* EndIf */\012PUSHW[ ]	/* 1 value pushed */\0120 \012RCVT[ ]	/* ReadCVT */\012IF[ ]	/* If */\012PUSHW[ ]	/* 1 value pushed */\01229 \012MDAP[1]	/* MoveDirectAbsPt */\012ELSE[ ]	/* Else */\012PUSHW[ ]	/* 2 values pushed */\01229 5 \012MIAP[0]	/* MoveIndirectAbsPt */\012EIF[ ]	/* EndIf */\012PUSHW[ ]	/* 1 value pushed */\0120 \012RCVT[ ]	/* ReadCVT */\012IF[ ]	/* If */\012PUSHW[ ]	/* 1 value pushed */\01248 \012MDAP[1]	/* MoveDirectAbsPt */\012ELSE[ ]	/* Else */\012PUSHW[ ]	/* 2 values pushed */\01248 5 \012MIAP[0]	/* MoveIndirectAbsPt */\012EIF[ ]	/* EndIf */\012PUSHW[ ]	/* 3 values pushed */\0121 29 38 \012SRP1[ ]	/* SetRefPoint1 */\012SRP2[ ]	/* SetRefPoint2 */\012IP[ ]	/* InterpolatePts */\012PUSHW[ ]	/* 3 values pushed */\01224 29 38 \012SRP1[ ]	/* SetRefPoint1 */\012SRP2[ ]	/* SetRefPoint2 */\012IP[ ]	/* InterpolatePts */\012IUP[0]	/* InterpolateUntPts */\012IUP[1]	/* InterpolateUntPts */";
};
width = 560;
}
);
leftMetricsKey = t;
note = t_u;
rightKerningGroup = lslash;
rightMetricsKey = u;
},
{
color = 6;
glyphname = ordfeminine;
lastChange = "2022-04-05 22:57:46 +0000";
layers = (
{
layerId = "9AA098C0-EDBC-463F-BC21-AFCD07A070D0";
paths = (
{
closed = 1;
nodes = (
"162 285 OFFCURVE",
"188 320 OFFCURVE",
"190 326 CURVE",
"187 289 LINE",
"201 289 LINE",
"245 598 LINE",
"231 598 LINE",
"228 584 LINE",
"216 599 OFFCURVE",
"198 603 OFFCURVE",
"171 603 CURVE SMOOTH",
"107 603 OFFCURVE",
"92 568 OFFCURVE",
"85 522 CURVE SMOOTH",
"62 367 LINE SMOOTH",
"61 358 OFFCURVE",
"60 349 OFFCURVE",
"60 341 CURVE SMOOTH",
"60 309 OFFCURVE",
"73 285 OFFCURVE",
"116 285 CURVE SMOOTH"
);
},
{
closed = 1;
nodes = (
"84 300 OFFCURVE",
"77 318 OFFCURVE",
"77 341 CURVE SMOOTH",
"77 352 OFFCURVE",
"78 364 OFFCURVE",
"80 375 CURVE SMOOTH",
"103 528 LINE SMOOTH",
"109 571 OFFCURVE",
"124 590 OFFCURVE",
"170 590 CURVE SMOOTH",
"215 590 OFFCURVE",
"224 574 OFFCURVE",
"222 552 CURVE SMOOTH",
"201 409 LINE SMOOTH",
"196 374 OFFCURVE",
"181 300 OFFCURVE",
"116 300 CURVE SMOOTH"
);
}
);
userData = {
assembly = "SVTCA[0]	/* SetFreedomAndProjectionVectorToAxis */\012PUSHW[ ]	/* 3 values pushed */\01240 43 3 \012CALL[ ]	/* CallFunction */\012PUSHW[ ]	/* 1 value pushed */\01243 \012SRP0[ ]	/* SetRefPoint0 */\012PUSHW[ ]	/* 1 value pushed */\01237 \012MDRP[10000]	/* MoveDirectRelPt */\012PUSHW[ ]	/* 1 value pushed */\01237 \012MDAP[1]	/* MoveDirectAbsPt */\012IUP[0]	/* InterpolateUntPts */\012IUP[1]	/* InterpolateUntPts */";
};
width = 241;
}
);
note = ordfeminine;
unicode = 00AA;
},
{
color = 6;
glyphname = ordmasculine;
lastChange = "2022-04-05 18:05:07 +0000";
layers = (
{
layerId = "9AA098C0-EDBC-463F-BC21-AFCD07A070D0";
paths = (
{
closed = 1;
nodes = (
"175 291 OFFCURVE",
"194 308 OFFCURVE",
"202 370 CURVE SMOOTH",
"225 529 LINE SMOOTH",
"226 538 OFFCURVE",
"227 545 OFFCURVE",
"227 552 CURVE SMOOTH",
"227 591 OFFCURVE",
"209 603 OFFCURVE",
"162 603 CURVE SMOOTH",
"105 603 OFFCURVE",
"85 586 OFFCURVE",
"78 529 CURVE SMOOTH",
"55 370 LINE SMOOTH",
"54 360 OFFCURVE",
"53 351 OFFCURVE",
"53 343 CURVE SMOOTH",
"53 304 OFFCURVE",
"71 291 OFFCURVE",
"119 291 CURVE SMOOTH"
);
},
{
closed = 1;
nodes = (
"82 306 OFFCURVE",
"69 315 OFFCURVE",
"69 346 CURVE SMOOTH",
"69 353 OFFCURVE",
"70 361 OFFCURVE",
"71 370 CURVE SMOOTH",
"94 529 LINE SMOOTH",
"101 571 OFFCURVE",
"114 590 OFFCURVE",
"161 590 CURVE SMOOTH",
"197 590 OFFCURVE",
"211 579 OFFCURVE",
"211 551 CURVE SMOOTH",
"211 544 OFFCURVE",
"210 537 OFFCURVE",
"209 529 CURVE SMOOTH",
"186 370 LINE SMOOTH",
"179 321 OFFCURVE",
"164 306 OFFCURVE",
"119 306 CURVE SMOOTH"
);
}
);
width = 223;
}
);
note = ordmasculine;
unicode = 00BA;
},
{
color = 6;
glyphname = "Be-cy";
lastChange = "2022-04-05 22:44:37 +0000";
layers = (
{
layerId = "9AA098C0-EDBC-463F-BC21-AFCD07A070D0";
paths = (
{
closed = 1;
nodes = (
"163 0 LINE SMOOTH",
"276 0 OFFCURVE",
"292 69 OFFCURVE",
"301 131 CURVE SMOOTH",
"325 304 LINE SMOOTH",
"327 319 OFFCURVE",
"329 334 OFFCURVE",
"329 349 CURVE SMOOTH",
"329 395 OFFCURVE",
"311 435 OFFCURVE",
"225 435 CURVE SMOOTH",
"121 435 LINE",
"140 575 LINE",
"365 575 LINE",
"368 591 LINE",
"127 591 LINE",
"43 0 LINE"
);
},
{
closed = 1;
nodes = (
"118 419 LINE",
"222 419 LINE SMOOTH",
"296 419 OFFCURVE",
"312 382 OFFCURVE",
"312 339 CURVE SMOOTH",
"312 325 OFFCURVE",
"310 310 OFFCURVE",
"308 295 CURVE SMOOTH",
"286 140 LINE SMOOTH",
"278 81 OFFCURVE",
"264 16 OFFCURVE",
"166 16 CURVE SMOOTH",
"62 16 LINE"
);
}
);
width = 370;
}
);
note = uni0411;
unicode = 0411;
},
{
color = 6;
glyphname = "Ge-cy";
lastChange = "2022-04-05 22:44:37 +0000";
layers = (
{
layerId = "9AA098C0-EDBC-463F-BC21-AFCD07A070D0";
paths = (
{
closed = 1;
nodes = (
"59 0 LINE",
"140 575 LINE",
"365 575 LINE",
"368 591 LINE",
"127 591 LINE",
"43 0 LINE"
);
}
);
width = 340;
}
);
note = uni0413;
unicode = 0413;
},
{
color = 6;
glyphname = "De-cy";
lastChange = "2022-04-05 22:57:46 +0000";
layers = (
{
layerId = "9AA098C0-EDBC-463F-BC21-AFCD07A070D0";
paths = (
{
closed = 1;
nodes = (
"-22 -99 LINE",
"-9 -5 LINE",
"373 -5 LINE",
"360 -99 LINE",
"376 -99 LINE",
"391 11 LINE",
"315 11 LINE",
"396 591 LINE",
"194 591 LINE",
"89 92 LINE SMOOTH",
"78 40 OFFCURVE",
"60 13 OFFCURVE",
"27 11 CURVE SMOOTH",
"-23 11 LINE",
"-38 -99 LINE"
);
},
{
closed = 1;
nodes = (
"92 32 OFFCURVE",
"102 80 OFFCURVE",
"104 92 CURVE SMOOTH",
"207 575 LINE",
"378 575 LINE",
"299 11 LINE",
"65 11 LINE"
);
}
);
width = 445;
}
);
note = uni0414;
unicode = 0414;
},
{
color = 6;
glyphname = "Zhe-cy";
lastChange = "2022-04-05 22:44:37 +0000";
layers = (
{
layerId = "9AA098C0-EDBC-463F-BC21-AFCD07A070D0";
paths = (
{
closed = 1;
nodes = (
"-11 0 LINE",
"210 296 LINE",
"241 296 LINE",
"199 0 LINE",
"215 0 LINE",
"256 295 LINE",
"288 295 LINE",
"425 0 LINE",
"444 0 LINE",
"301 306 LINE",
"523 591 LINE",
"505 591 LINE",
"286 310 LINE",
"259 310 LINE",
"299 591 LINE",
"283 591 LINE",
"243 310 LINE",
"215 310 LINE",
"77 591 LINE",
"59 591 LINE",
"199 306 LINE",
"-30 0 LINE"
);
}
);
width = 484;
}
);
note = uni0416;
unicode = 0416;
},
{
glyphname = "Iigrave-cy";
lastChange = "2022-04-05 22:23:34 +0000";
layers = (
{
associatedMasterId = "9AA098C0-EDBC-463F-BC21-AFCD07A070D0";
background = {
components = (
{
name = breve;
transform = "{1, 0, 0, 1, 3, 0}";
}
);
paths = (
{
closed = 1;
nodes = (
"149 0 LINE",
"177 85 OFFCURVE",
"204 170 OFFCURVE",
"232 255 CURVE",
"232 0 LINE",
"368 0 LINE",
"368 495 LINE",
"233 495 LINE",
"161 278 LINE",
"161 495 LINE",
"25 495 LINE",
"25 0 LINE"
);
}
);
};
components = (
{
name = "Ii-cy";
},
{
name = gravecomb.case;
transform = "{1, 0, 0, 1, 64, 0}";
}
);
layerId = "84C7F3DB-6EB7-40E5-AF1F-D22350FC6E40";
name = Black;
width = 430;
},
{
components = (
{
name = "Ii-cy";
},
{
name = gravecomb.case;
transform = "{1, 0, 0, 1, 149, 0}";
}
);
layerId = "9AA098C0-EDBC-463F-BC21-AFCD07A070D0";
width = 430;
}
);
leftKerningGroup = uni0431;
note = uni0439;
unicode = 040D;
},
{
color = 6;
glyphname = "Ka-cy";
lastChange = "2022-04-05 22:44:37 +0000";
layers = (
{
layerId = "9AA098C0-EDBC-463F-BC21-AFCD07A070D0";
paths = (
{
closed = 1;
nodes = (
"57 0 LINE",
"99 296 LINE",
"130 296 LINE",
"265 0 LINE",
"284 0 LINE",
"143 306 LINE",
"363 591 LINE",
"345 591 LINE",
"130 312 LINE",
"101 312 LINE",
"141 591 LINE",
"125 591 LINE",
"41 0 LINE"
);
}
);
width = 336;
}
);
note = uni041A;
unicode = 041A;
},
{
color = 6;
glyphname = "El-cy";
lastChange = "2022-04-05 22:44:37 +0000";
layers = (
{
layerId = "9AA098C0-EDBC-463F-BC21-AFCD07A070D0";
paths = (
{
closed = 1;
nodes = (
"33 0 OFFCURVE",
"50 77 OFFCURVE",
"52 92 CURVE",
"155 575 LINE",
"327 575 LINE",
"247 1 LINE",
"263 1 LINE",
"346 591 LINE",
"142 591 LINE",
"36 92 LINE SMOOTH",
"25 41 OFFCURVE",
"8 16 OFFCURVE",
"-19 16 CURVE",
"-22 0 LINE"
);
}
);
width = 372;
}
);
note = uni041B;
unicode = 041B;
},
{
color = 6;
glyphname = "Pe-cy";
lastChange = "2022-04-05 22:44:37 +0000";
layers = (
{
layerId = "9AA098C0-EDBC-463F-BC21-AFCD07A070D0";
paths = (
{
closed = 1;
nodes = (
"59 0 LINE",
"140 575 LINE",
"349 575 LINE",
"268 0 LINE",
"284 0 LINE",
"368 591 LINE",
"127 591 LINE",
"43 0 LINE"
);
}
);
width = 398;
}
);
note = uni041F;
unicode = 041F;
},
{
color = 6;
glyphname = "U-cy";
lastChange = "2022-04-04 16:08:53 +0000";
layers = (
{
layerId = "9AA098C0-EDBC-463F-BC21-AFCD07A070D0";
paths = (
{
closed = 1;
nodes = (
"86 -19 OFFCURVE",
"120 22 OFFCURVE",
"148 95 CURVE SMOOTH",
"338 591 LINE",
"322 591 LINE",
"142 123 LINE",
"95 591 LINE",
"79 591 LINE",
"129 98 LINE",
"106 21 OFFCURVE",
"59 -5 OFFCURVE",
"28 -5 CURVE SMOOTH",
"5 -5 OFFCURVE",
"-17 0 OFFCURVE",
"-20 1 CURVE",
"-22 -13 LINE",
"-19 -14 OFFCURVE",
"6 -19 OFFCURVE",
"26 -19 CURVE SMOOTH"
);
}
);
width = 311;
}
);
note = uni0423;
unicode = 0423;
},
{
color = 6;
glyphname = "Ushort-cy";
lastChange = "2022-04-04 16:10:36 +0000";
layers = (
{
components = (
{
name = brevecomb;
transform = "{1, 0, 0, 1, 76, 79}";
}
);
layerId = "9AA098C0-EDBC-463F-BC21-AFCD07A070D0";
paths = (
{
closed = 1;
nodes = (
"72 -20 OFFCURVE",
"106 25 OFFCURVE",
"133 94 CURVE SMOOTH",
"324 590 LINE",
"308 590 LINE",
"128 122 LINE",
"81 590 LINE",
"65 590 LINE",
"116 91 LINE",
"92 13 OFFCURVE",
"45 -6 OFFCURVE",
"14 -6 CURVE SMOOTH",
"-9 -6 OFFCURVE",
"-31 -1 OFFCURVE",
"-34 0 CURVE",
"-36 -14 LINE",
"-33 -15 OFFCURVE",
"-8 -20 OFFCURVE",
"12 -20 CURVE SMOOTH"
);
}
);
width = 311;
}
);
note = uni040E;
unicode = 040E;
},
{
color = 6;
glyphname = "Ef-cy";
lastChange = "2022-04-05 22:44:37 +0000";
layers = (
{
layerId = "9AA098C0-EDBC-463F-BC21-AFCD07A070D0";
paths = (
{
closed = 1;
nodes = (
"173 0 LINE",
"182 59 LINE",
"191 59 LINE SMOOTH",
"271 59 OFFCURVE",
"330 73 OFFCURVE",
"346 189 CURVE SMOOTH",
"376 403 LINE SMOOTH",
"378 416 OFFCURVE",
"379 428 OFFCURVE",
"379 438 CURVE SMOOTH",
"379 520 OFFCURVE",
"326 533 OFFCURVE",
"258 533 CURVE SMOOTH",
"248 533 LINE",
"257 591 LINE",
"241 591 LINE",
"232 533 LINE",
"221 533 LINE SMOOTH",
"144 533 OFFCURVE",
"83 519 OFFCURVE",
"67 403 CURVE SMOOTH",
"37 189 LINE SMOOTH",
"35 176 OFFCURVE",
"34 164 OFFCURVE",
"34 154 CURVE SMOOTH",
"34 72 OFFCURVE",
"87 59 OFFCURVE",
"154 59 CURVE SMOOTH",
"166 59 LINE",
"157 0 LINE"
);
},
{
closed = 1;
nodes = (
"95 74 OFFCURVE",
"50 81 OFFCURVE",
"50 152 CURVE SMOOTH",
"50 162 OFFCURVE",
"51 173 OFFCURVE",
"53 186 CURVE SMOOTH",
"84 406 LINE SMOOTH",
"98 510 OFFCURVE",
"154 518 OFFCURVE",
"219 518 CURVE SMOOTH",
"230 518 LINE",
"168 74 LINE",
"155 74 LINE SMOOTH"
);
},
{
closed = 1;
nodes = (
"246 518 LINE",
"256 518 LINE SMOOTH",
"312 518 OFFCURVE",
"363 511 OFFCURVE",
"363 435 CURVE SMOOTH",
"363 427 OFFCURVE",
"362 417 OFFCURVE",
"361 406 CURVE SMOOTH",
"330 186 LINE SMOOTH",
"315 82 OFFCURVE",
"263 74 OFFCURVE",
"193 74 CURVE SMOOTH",
"184 74 LINE"
);
}
);
width = 407;
}
);
note = uni0424;
unicode = 0424;
},
{
color = 6;
glyphname = "Che-cy";
lastChange = "2022-04-05 22:44:37 +0000";
layers = (
{
background = {
paths = (
{
closed = 1;
nodes = (
"248 0 LINE",
"330 591 LINE",
"318 591 LINE",
"262 187 LINE",
"249 176 OFFCURVE",
"219 146 OFFCURVE",
"147 146 CURVE SMOOTH",
"69 146 OFFCURVE",
"53 182 OFFCURVE",
"53 225 CURVE SMOOTH",
"53 240 OFFCURVE",
"55 255 OFFCURVE",
"57 270 CURVE SMOOTH",
"102 591 LINE",
"90 591 LINE",
"45 267 LINE SMOOTH",
"43 252 OFFCURVE",
"41 237 OFFCURVE",
"41 223 CURVE SMOOTH",
"41 176 OFFCURVE",
"60 136 OFFCURVE",
"146 136 CURVE SMOOTH",
"209 136 OFFCURVE",
"249 159 OFFCURVE",
"260 174 CURVE",
"236 0 LINE"
);
}
);
};
layerId = "9AA098C0-EDBC-463F-BC21-AFCD07A070D0";
paths = (
{
closed = 1;
nodes = (
"252 0 LINE",
"336 591 LINE",
"320 591 LINE",
"270 249 LINE",
"257 192 OFFCURVE",
"220 151 OFFCURVE",
"147 151 CURVE SMOOTH",
"74 151 OFFCURVE",
"57 186 OFFCURVE",
"57 228 CURVE SMOOTH",
"57 243 OFFCURVE",
"60 259 OFFCURVE",
"62 275 CURVE SMOOTH",
"108 591 LINE",
"92 591 LINE",
"44 266 LINE SMOOTH",
"42 252 OFFCURVE",
"40 237 OFFCURVE",
"40 222 CURVE SMOOTH",
"40 176 OFFCURVE",
"59 135 OFFCURVE",
"145 135 CURVE SMOOTH",
"208 135 OFFCURVE",
"243 162 OFFCURVE",
"262 193 CURVE",
"236 0 LINE"
);
}
);
width = 328;
}
);
note = uni0427;
unicode = 0427;
},
{
color = 6;
glyphname = "Tse-cy";
lastChange = "2022-04-05 22:44:37 +0000";
layers = (
{
layerId = "9AA098C0-EDBC-463F-BC21-AFCD07A070D0";
paths = (
{
closed = 1;
nodes = (
"268 -74 LINE",
"281 16 LINE",
"261 16 LINE",
"342 591 LINE",
"326 591 LINE",
"245 16 LINE",
"28 16 LINE",
"109 591 LINE",
"93 591 LINE",
"10 0 LINE",
"263 0 LINE",
"252 -74 LINE"
);
}
);
width = 359;
}
);
note = uni0426;
unicode = 0426;
},
{
color = 6;
glyphname = "Sha-cy";
lastChange = "2022-04-05 22:44:37 +0000";
layers = (
{
layerId = "9AA098C0-EDBC-463F-BC21-AFCD07A070D0";
paths = (
{
closed = 1;
nodes = (
"484 0 LINE",
"568 591 LINE",
"552 591 LINE",
"471 16 LINE",
"258 16 LINE",
"339 591 LINE",
"323 591 LINE",
"242 16 LINE",
"29 16 LINE",
"110 591 LINE",
"94 591 LINE",
"10 0 LINE"
);
}
);
width = 565;
}
);
note = uni0428;
unicode = 0428;
},
{
color = 6;
glyphname = "Shcha-cy";
lastChange = "2022-04-05 22:44:37 +0000";
layers = (
{
layerId = "9AA098C0-EDBC-463F-BC21-AFCD07A070D0";
paths = (
{
closed = 1;
nodes = (
"501 -74 LINE",
"514 16 LINE",
"494 16 LINE",
"575 591 LINE",
"559 591 LINE",
"478 16 LINE",
"261 16 LINE",
"342 591 LINE",
"326 591 LINE",
"243 0 LINE",
"496 0 LINE",
"485 -74 LINE"
);
},
{
closed = 1;
nodes = (
"263 0 LINE",
"261 16 LINE",
"342 591 LINE",
"326 591 LINE",
"245 16 LINE",
"28 16 LINE",
"109 591 LINE",
"93 591 LINE",
"10 0 LINE"
);
}
);
width = 574;
}
);
note = uni0429;
unicode = 0429;
},
{
color = 6;
glyphname = "Dzhe-cy";
lastChange = "2022-04-05 22:44:37 +0000";
layers = (
{
layerId = "9AA098C0-EDBC-463F-BC21-AFCD07A070D0";
paths = (
{
closed = 1;
nodes = (
"160 -99 LINE",
"173 0 LINE",
"288 0 LINE",
"371 591 LINE",
"357 591 LINE",
"277 16 LINE",
"60 16 LINE",
"140 591 LINE",
"126 591 LINE",
"43 0 LINE",
"158 0 LINE",
"145 -99 LINE"
);
}
);
width = 401;
}
);
note = uni040F;
unicode = 040F;
},
{
color = 6;
glyphname = "Softsign-cy";
lastChange = "2022-04-05 22:44:37 +0000";
layers = (
{
layerId = "9AA098C0-EDBC-463F-BC21-AFCD07A070D0";
paths = (
{
closed = 1;
nodes = (
"140 0 LINE SMOOTH",
"253 0 OFFCURVE",
"268 69 OFFCURVE",
"277 131 CURVE SMOOTH",
"301 304 LINE SMOOTH",
"303 319 OFFCURVE",
"305 334 OFFCURVE",
"305 349 CURVE SMOOTH",
"305 395 OFFCURVE",
"287 435 OFFCURVE",
"201 435 CURVE SMOOTH",
"92 435 LINE",
"113 588 LINE",
"98 588 LINE",
"16 0 LINE"
);
},
{
closed = 1;
nodes = (
"90 420 LINE",
"195 420 LINE SMOOTH",
"273 420 OFFCURVE",
"290 386 OFFCURVE",
"290 343 CURVE SMOOTH",
"290 330 OFFCURVE",
"288 315 OFFCURVE",
"286 301 CURVE SMOOTH",
"263 134 LINE SMOOTH",
"254 75 OFFCURVE",
"241 15 OFFCURVE",
"138 15 CURVE SMOOTH",
"33 15 LINE"
);
}
);
width = 343;
}
);
note = uni042C;
unicode = 042C;
},
{
color = 6;
glyphname = "Hardsign-cy";
lastChange = "2022-04-05 22:44:37 +0000";
layers = (
{
layerId = "9AA098C0-EDBC-463F-BC21-AFCD07A070D0";
paths = (
{
closed = 1;
nodes = (
"163 0 LINE SMOOTH",
"276 0 OFFCURVE",
"292 69 OFFCURVE",
"301 131 CURVE SMOOTH",
"325 304 LINE SMOOTH",
"327 319 OFFCURVE",
"329 334 OFFCURVE",
"329 349 CURVE SMOOTH",
"329 395 OFFCURVE",
"311 435 OFFCURVE",
"225 435 CURVE SMOOTH",
"116 435 LINE",
"138 591 LINE",
"59 591 LINE",
"56 575 LINE",
"120 575 LINE",
"39 0 LINE"
);
},
{
closed = 1;
nodes = (
"113 420 LINE",
"218 420 LINE SMOOTH",
"297 420 OFFCURVE",
"314 385 OFFCURVE",
"314 342 CURVE SMOOTH",
"314 329 OFFCURVE",
"312 315 OFFCURVE",
"310 301 CURVE SMOOTH",
"286 134 LINE SMOOTH",
"278 75 OFFCURVE",
"265 15 OFFCURVE",
"162 15 CURVE SMOOTH",
"57 15 LINE"
);
}
);
width = 362;
}
);
note = uni042A;
unicode = 042A;
},
{
color = 6;
glyphname = "Yeru-cy";
lastChange = "2022-04-05 22:44:37 +0000";
layers = (
{
layerId = "9AA098C0-EDBC-463F-BC21-AFCD07A070D0";
paths = (
{
closed = 1;
nodes = (
"134 0 LINE SMOOTH",
"247 0 OFFCURVE",
"263 69 OFFCURVE",
"272 131 CURVE SMOOTH",
"296 304 LINE SMOOTH",
"298 319 OFFCURVE",
"300 334 OFFCURVE",
"300 349 CURVE SMOOTH",
"300 395 OFFCURVE",
"282 435 OFFCURVE",
"196 435 CURVE SMOOTH",
"87 435 LINE",
"109 591 LINE",
"94 591 LINE",
"10 0 LINE"
);
},
{
closed = 1;
nodes = (
"84 420 LINE",
"189 420 LINE SMOOTH",
"268 420 OFFCURVE",
"285 385 OFFCURVE",
"285 342 CURVE SMOOTH",
"285 329 OFFCURVE",
"283 315 OFFCURVE",
"281 301 CURVE SMOOTH",
"257 134 LINE SMOOTH",
"249 75 OFFCURVE",
"236 15 OFFCURVE",
"133 15 CURVE SMOOTH",
"28 15 LINE"
);
},
{
closed = 1;
nodes = (
"364 0 LINE",
"448 591 LINE",
"432 591 LINE",
"348 0 LINE"
);
}
);
width = 450;
}
);
note = uni042B;
unicode = 042B;
},
{
color = 6;
glyphname = "Lje-cy";
lastChange = "2022-04-05 22:44:37 +0000";
layers = (
{
layerId = "9AA098C0-EDBC-463F-BC21-AFCD07A070D0";
paths = (
{
closed = 1;
nodes = (
"40 0 OFFCURVE",
"57 77 OFFCURVE",
"59 92 CURVE",
"162 575 LINE",
"334 575 LINE",
"253 0 LINE",
"377 0 LINE SMOOTH",
"490 0 OFFCURVE",
"506 69 OFFCURVE",
"515 131 CURVE SMOOTH",
"539 304 LINE SMOOTH",
"541 319 OFFCURVE",
"543 334 OFFCURVE",
"543 349 CURVE SMOOTH",
"543 395 OFFCURVE",
"525 435 OFFCURVE",
"439 435 CURVE SMOOTH",
"331 435 LINE",
"353 591 LINE",
"149 591 LINE",
"43 92 LINE SMOOTH",
"32 41 OFFCURVE",
"15 16 OFFCURVE",
"-12 16 CURVE",
"-15 0 LINE"
);
},
{
closed = 1;
nodes = (
"328 420 LINE",
"432 420 LINE SMOOTH",
"511 420 OFFCURVE",
"528 385 OFFCURVE",
"528 342 CURVE SMOOTH",
"528 329 OFFCURVE",
"526 315 OFFCURVE",
"524 301 CURVE SMOOTH",
"500 134 LINE SMOOTH",
"492 75 OFFCURVE",
"479 15 OFFCURVE",
"376 15 CURVE SMOOTH",
"272 15 LINE"
);
}
);
width = 576;
}
);
note = uni0409;
unicode = 0409;
},
{
color = 6;
glyphname = "Nje-cy";
lastChange = "2022-04-05 22:44:37 +0000";
layers = (
{
layerId = "9AA098C0-EDBC-463F-BC21-AFCD07A070D0";
paths = (
{
closed = 1;
nodes = (
"309 0 LINE SMOOTH",
"422 0 OFFCURVE",
"438 69 OFFCURVE",
"447 131 CURVE SMOOTH",
"471 304 LINE SMOOTH",
"473 319 OFFCURVE",
"475 334 OFFCURVE",
"475 349 CURVE SMOOTH",
"475 395 OFFCURVE",
"457 435 OFFCURVE",
"371 435 CURVE SMOOTH",
"262 435 LINE",
"283 588 LINE",
"268 588 LINE",
"185 0 LINE"
);
},
{
closed = 1;
nodes = (
"21 0 LINE",
"64 302 LINE",
"227 302 LINE",
"184 0 LINE",
"200 0 LINE",
"284 591 LINE",
"268 591 LINE",
"229 318 LINE",
"66 318 LINE",
"105 591 LINE",
"89 591 LINE",
"5 0 LINE"
);
},
{
closed = 1;
nodes = (
"259 420 LINE",
"364 420 LINE SMOOTH",
"443 420 OFFCURVE",
"460 385 OFFCURVE",
"460 342 CURVE SMOOTH",
"460 329 OFFCURVE",
"458 315 OFFCURVE",
"456 301 CURVE SMOOTH",
"432 134 LINE SMOOTH",
"424 75 OFFCURVE",
"411 15 OFFCURVE",
"308 15 CURVE SMOOTH",
"203 15 LINE"
);
}
);
width = 508;
}
);
note = uni040A;
unicode = 040A;
},
{
color = 6;
glyphname = "E-cy";
lastChange = "2022-04-05 22:44:37 +0000";
layers = (
{
layerId = "9AA098C0-EDBC-463F-BC21-AFCD07A070D0";
paths = (
{
closed = 1;
nodes = (
"233 -12 OFFCURVE",
"293 2 OFFCURVE",
"309 118 CURVE SMOOTH",
"319 189 LINE",
"303 189 LINE",
"293 116 LINE SMOOTH",
"278 12 OFFCURVE",
"222 2 OFFCURVE",
"156 2 CURVE SMOOTH",
"95 2 OFFCURVE",
"45 10 OFFCURVE",
"45 84 CURVE SMOOTH",
"45 94 OFFCURVE",
"46 104 OFFCURVE",
"48 116 CURVE SMOOTH",
"73 292 LINE",
"245 292 LINE",
"247 308 LINE",
"75 308 LINE",
"97 467 LINE SMOOTH",
"112 572 OFFCURVE",
"163 584 OFFCURVE",
"238 584 CURVE SMOOTH",
"301 584 OFFCURVE",
"345 576 OFFCURVE",
"345 505 CURVE SMOOTH",
"345 495 OFFCURVE",
"345 485 OFFCURVE",
"343 473 CURVE SMOOTH",
"330 381 LINE",
"346 381 LINE",
"359 469 LINE SMOOTH",
"361 482 OFFCURVE",
"362 494 OFFCURVE",
"362 504 CURVE SMOOTH",
"362 586 OFFCURVE",
"309 599 OFFCURVE",
"241 599 CURVE SMOOTH",
"160 599 OFFCURVE",
"98 585 OFFCURVE",
"82 469 CURVE SMOOTH",
"32 118 LINE SMOOTH",
"30 105 OFFCURVE",
"29 93 OFFCURVE",
"29 83 CURVE SMOOTH",
"29 1 OFFCURVE",
"82 -12 OFFCURVE",
"153 -12 CURVE SMOOTH"
);
}
);
width = 378;
}
);
note = uni0404;
unicode = 0404;
},
{
color = 6;
glyphname = "Ereversed-cy";
lastChange = "2022-04-05 22:44:37 +0000";
layers = (
{
layerId = "9AA098C0-EDBC-463F-BC21-AFCD07A070D0";
paths = (
{
closed = 1;
nodes = (
"232 -12 OFFCURVE",
"293 4 OFFCURVE",
"309 118 CURVE SMOOTH",
"359 469 LINE SMOOTH",
"361 482 OFFCURVE",
"362 494 OFFCURVE",
"362 504 CURVE SMOOTH",
"362 588 OFFCURVE",
"308 599 OFFCURVE",
"236 599 CURVE SMOOTH",
"159 599 OFFCURVE",
"98 583 OFFCURVE",
"82 469 CURVE SMOOTH",
"69 381 LINE",
"85 381 LINE",
"98 473 LINE SMOOTH",
"112 574 OFFCURVE",
"164 584 OFFCURVE",
"235 584 CURVE SMOOTH",
"301 584 OFFCURVE",
"345 575 OFFCURVE",
"345 502 CURVE SMOOTH",
"345 492 OFFCURVE",
"344 480 OFFCURVE",
"342 467 CURVE SMOOTH",
"320 308 LINE",
"148 308 LINE",
"146 292 LINE",
"318 292 LINE",
"293 116 LINE SMOOTH",
"278 12 OFFCURVE",
"222 2 OFFCURVE",
"153 2 CURVE SMOOTH",
"95 2 OFFCURVE",
"45 10 OFFCURVE",
"45 84 CURVE SMOOTH",
"45 93 OFFCURVE",
"46 104 OFFCURVE",
"48 116 CURVE SMOOTH",
"58 189 LINE",
"42 189 LINE",
"32 118 LINE SMOOTH",
"30 105 OFFCURVE",
"29 93 OFFCURVE",
"29 82 CURVE SMOOTH",
"29 -1 OFFCURVE",
"81 -12 OFFCURVE",
"152 -12 CURVE SMOOTH"
);
}
);
width = 378;
}
);
note = uni042D;
unicode = 042D;
},
{
color = 6;
glyphname = "Tshe-cy";
lastChange = "2022-04-05 22:44:37 +0000";
layers = (
{
layerId = "9AA098C0-EDBC-463F-BC21-AFCD07A070D0";
paths = (
{
closed = 1;
nodes = (
"105 0 LINE",
"156 323 LINE",
"170 380 OFFCURVE",
"208 421 OFFCURVE",
"281 421 CURVE SMOOTH",
"353 421 OFFCURVE",
"369 388 OFFCURVE",
"369 347 CURVE SMOOTH",
"369 331 OFFCURVE",
"367 314 OFFCURVE",
"364 297 CURVE SMOOTH",
"317 0 LINE",
"333 0 LINE",
"382 306 LINE SMOOTH",
"384 321 OFFCURVE",
"386 337 OFFCURVE",
"386 352 CURVE SMOOTH",
"386 397 OFFCURVE",
"368 437 OFFCURVE",
"283 437 CURVE SMOOTH",
"220 437 OFFCURVE",
"185 410 OFFCURVE",
"165 379 CURVE",
"196 575 LINE",
"308 575 LINE",
"311 591 LINE",
"72 591 LINE",
"69 575 LINE",
"180 575 LINE",
"89 0 LINE"
);
}
);
width = 420;
}
);
note = uni040B;
unicode = 040B;
},
{
color = 6;
glyphname = "Iu-cy";
lastChange = "2022-04-05 22:44:37 +0000";
layers = (
{
layerId = "9AA098C0-EDBC-463F-BC21-AFCD07A070D0";
paths = (
{
closed = 1;
nodes = (
"382 -12 OFFCURVE",
"446 2 OFFCURVE",
"464 118 CURVE SMOOTH",
"520 469 LINE SMOOTH",
"522 483 OFFCURVE",
"523 495 OFFCURVE",
"523 506 CURVE SMOOTH",
"523 587 OFFCURVE",
"468 599 OFFCURVE",
"400 599 CURVE SMOOTH",
"323 599 OFFCURVE",
"257 585 OFFCURVE",
"239 469 CURVE SMOOTH",
"183 118 LINE SMOOTH",
"181 104 OFFCURVE",
"180 92 OFFCURVE",
"180 81 CURVE SMOOTH",
"180 0 OFFCURVE",
"235 -12 OFFCURVE",
"302 -12 CURVE SMOOTH"
);
},
{
closed = 1;
nodes = (
"21 0 LINE",
"68 302 LINE",
"221 302 LINE",
"224 318 LINE",
"71 318 LINE",
"114 591 LINE",
"98 591 LINE",
"5 0 LINE"
);
},
{
closed = 1;
nodes = (
"245 4 OFFCURVE",
"197 14 OFFCURVE",
"197 85 CURVE SMOOTH",
"197 96 OFFCURVE",
"198 108 OFFCURVE",
"200 121 CURVE SMOOTH",
"254 466 LINE SMOOTH",
"271 570 OFFCURVE",
"328 583 OFFCURVE",
"397 583 CURVE SMOOTH",
"457 583 OFFCURVE",
"506 573 OFFCURVE",
"506 501 CURVE SMOOTH",
"506 490 OFFCURVE",
"505 479 OFFCURVE",
"503 466 CURVE SMOOTH",
"449 121 LINE SMOOTH",
"432 17 OFFCURVE",
"375 4 OFFCURVE",
"305 4 CURVE SMOOTH"
);
}
);
width = 529;
}
);
note = uni042E;
unicode = 042E;
},
{
color = 6;
glyphname = "Dje-cy";
lastChange = "2022-04-05 22:44:37 +0000";
layers = (
{
layerId = "9AA098C0-EDBC-463F-BC21-AFCD07A070D0";
paths = (
{
closed = 1;
nodes = (
"127 0 LINE",
"173 323 LINE",
"186 380 OFFCURVE",
"223 421 OFFCURVE",
"296 421 CURVE SMOOTH",
"369 421 OFFCURVE",
"386 386 OFFCURVE",
"386 344 CURVE SMOOTH",
"386 329 OFFCURVE",
"383 313 OFFCURVE",
"381 297 CURVE SMOOTH",
"359 142 LINE SMOOTH",
"347 55 OFFCURVE",
"323 16 OFFCURVE",
"222 16 CURVE",
"219 0 LINE",
"337 0 OFFCURVE",
"362 45 OFFCURVE",
"376 146 CURVE SMOOTH",
"398 306 LINE SMOOTH",
"400 321 OFFCURVE",
"402 336 OFFCURVE",
"402 351 CURVE SMOOTH",
"402 397 OFFCURVE",
"384 437 OFFCURVE",
"298 437 CURVE SMOOTH",
"235 437 OFFCURVE",
"200 410 OFFCURVE",
"181 379 CURVE",
"208 575 LINE",
"320 575 LINE",
"323 591 LINE",
"84 591 LINE",
"81 575 LINE",
"192 575 LINE",
"111 0 LINE"
);
}
);
width = 414;
}
);
note = uni0402;
unicode = 0402;
},
{
glyphname = "Yat-cy";
lastChange = "2022-04-05 22:44:37 +0000";
layers = (
{
associatedMasterId = "9AA098C0-EDBC-463F-BC21-AFCD07A070D0";
background = {
components = (
{
name = hyphen;
transform = "{1.53882, 0, 0, 0.70397, -30, 313}";
}
);
paths = (
{
closed = 1;
nodes = (
"293 0 LINE SMOOTH",
"369 0 OFFCURVE",
"429 10 OFFCURVE",
"429 161 CURVE SMOOTH",
"429 324 LINE SMOOTH",
"429 423 OFFCURVE",
"367 436 OFFCURVE",
"318 436 CURVE SMOOTH",
"239 436 LINE",
"239 591 LINE",
"83 591 LINE",
"83 0 LINE"
);
},
{
closed = 1;
nodes = (
"239 341 LINE",
"256 341 LINE SMOOTH",
"272 341 OFFCURVE",
"273 330 OFFCURVE",
"273 291 CURVE SMOOTH",
"273 166 LINE SMOOTH",
"273 87 OFFCURVE",
"271 80 OFFCURVE",
"257 80 CURVE SMOOTH",
"239 80 LINE"
);
}
);
};
components = (
{
name = hyphen;
transform = "{1.53882, 0, 0, 0.70397, -30, 313}";
}
);
layerId = "CB6D0AD0-A775-4B9E-AA44-BD07B40E95F7";
name = Black;
paths = (
{
closed = 1;
nodes = (
"293 0 LINE SMOOTH",
"369 0 OFFCURVE",
"429 10 OFFCURVE",
"429 161 CURVE SMOOTH",
"429 324 LINE SMOOTH",
"429 423 OFFCURVE",
"367 436 OFFCURVE",
"318 436 CURVE SMOOTH",
"239 436 LINE",
"239 591 LINE",
"83 591 LINE",
"83 0 LINE"
);
},
{
closed = 1;
nodes = (
"239 341 LINE",
"256 341 LINE SMOOTH",
"272 341 OFFCURVE",
"273 330 OFFCURVE",
"273 291 CURVE SMOOTH",
"273 166 LINE SMOOTH",
"273 87 OFFCURVE",
"271 80 OFFCURVE",
"257 80 CURVE SMOOTH",
"239 80 LINE"
);
}
);
width = 454;
},
{
components = (
{
alignment = -1;
name = hyphen;
transform = "{1.39957, 0, 0.13932, 0.99129, -56, 278}";
}
);
layerId = "9AA098C0-EDBC-463F-BC21-AFCD07A070D0";
paths = (
{
closed = 1;
nodes = (
"178 0 LINE SMOOTH",
"291 0 OFFCURVE",
"307 69 OFFCURVE",
"316 131 CURVE SMOOTH",
"340 304 LINE SMOOTH",
"342 319 OFFCURVE",
"344 334 OFFCURVE",
"344 349 CURVE SMOOTH",
"344 395 OFFCURVE",
"326 435 OFFCURVE",
"240 435 CURVE SMOOTH",
"131 435 LINE",
"152 588 LINE",
"137 588 LINE",
"54 0 LINE"
);
},
{
closed = 1;
nodes = (
"69 0 LINE",
"153 591 LINE",
"137 591 LINE",
"53 0 LINE"
);
},
{
closed = 1;
nodes = (
"128 420 LINE",
"233 420 LINE SMOOTH",
"312 420 OFFCURVE",
"329 385 OFFCURVE",
"329 342 CURVE SMOOTH",
"329 329 OFFCURVE",
"327 315 OFFCURVE",
"325 301 CURVE SMOOTH",
"301 134 LINE SMOOTH",
"293 75 OFFCURVE",
"280 15 OFFCURVE",
"177 15 CURVE SMOOTH",
"72 15 LINE"
);
}
);
width = 400;
}
);
unicode = 0462;
},
{
color = 4;
glyphname = "Yusbig-cy";
lastChange = "2022-04-04 16:21:15 +0000";
layers = (
{
associatedMasterId = "9AA098C0-EDBC-463F-BC21-AFCD07A070D0";
background = {
paths = (
{
closed = 1;
nodes = (
"197 0 LINE",
"233 230 LINE SMOOTH",
"237 253 OFFCURVE",
"240 276 OFFCURVE",
"244 299 CURVE",
"246 299 LINE",
"247 0 LINE",
"414 0 LINE",
"414 299 LINE",
"416 299 LINE",
"420 274 OFFCURVE",
"423 249 OFFCURVE",
"427 224 CURVE SMOOTH",
"464 0 LINE",
"641 0 LINE",
"586 253 LINE SMOOTH",
"576 300 OFFCURVE",
"546 332 OFFCURVE",
"505 335 CURVE SMOOTH",
"456 339 LINE",
"632 484 LINE",
"632 591 LINE",
"22 591 LINE",
"22 484 LINE",
"199 338 LINE",
"157 336 LINE SMOOTH",
"113 334 OFFCURVE",
"85 298 OFFCURVE",
"75 253 CURVE SMOOTH",
"20 0 LINE"
);
},
{
closed = 1;
nodes = (
"204 484 LINE",
"450 484 LINE",
"327 395 LINE"
);
}
);
};
layerId = "D5BAC71A-8A72-4CB3-B9B8-4C5BCE115656";
name = Black;
paths = (
{
closed = 1;
nodes = (
"197 0 LINE",
"233 230 LINE SMOOTH",
"237 253 OFFCURVE",
"240 276 OFFCURVE",
"244 299 CURVE",
"246 299 LINE",
"247 0 LINE",
"414 0 LINE",
"414 299 LINE",
"416 299 LINE",
"420 274 OFFCURVE",
"423 249 OFFCURVE",
"427 224 CURVE SMOOTH",
"464 0 LINE",
"641 0 LINE",
"586 253 LINE SMOOTH",
"576 300 OFFCURVE",
"546 332 OFFCURVE",
"505 335 CURVE SMOOTH",
"456 339 LINE",
"632 484 LINE",
"632 591 LINE",
"22 591 LINE",
"22 484 LINE",
"199 338 LINE",
"157 336 LINE SMOOTH",
"113 334 OFFCURVE",
"85 298 OFFCURVE",
"75 253 CURVE SMOOTH",
"20 0 LINE"
);
},
{
closed = 1;
nodes = (
"204 484 LINE",
"450 484 LINE",
"327 395 LINE"
);
}
);
width = 661;
},
{
layerId = "9AA098C0-EDBC-463F-BC21-AFCD07A070D0";
paths = (
{
closed = 1;
nodes = (
"14 0 LINE",
"110 223 LINE SMOOTH",
"128 265 OFFCURVE",
"151 309 OFFCURVE",
"218 309 CURVE SMOOTH",
"318 309 LINE",
"274 0 LINE",
"290 0 LINE",
"334 309 LINE",
"435 309 LINE SMOOTH",
"502 309 OFFCURVE",
"513 265 OFFCURVE",
"519 223 CURVE SMOOTH",
"551 0 LINE",
"568 0 LINE",
"535 226 LINE SMOOTH",
"527 280 OFFCURVE",
"514 325 OFFCURVE",
"433 325 CURVE SMOOTH",
"343 325 LINE",
"671 576 LINE",
"674 591 LINE",
"67 591 LINE",
"64 576 LINE",
"314 325 LINE",
"214 325 LINE SMOOTH",
"143 325 OFFCURVE",
"115 274 OFFCURVE",
"94 226 CURVE SMOOTH",
"-3 0 LINE"
);
},
{
closed = 1;
nodes = (
"89 575 LINE",
"645 575 LINE",
"330 332 LINE"
);
}
);
width = 641;
}
);
unicode = 046A;
},
{
color = 6;
glyphname = "be-cy";
lastChange = "2022-04-05 22:44:37 +0000";
layers = (
{
layerId = "9AA098C0-EDBC-463F-BC21-AFCD07A070D0";
paths = (
{
closed = 1;
nodes = (
"252 -10 OFFCURVE",
"266 62 OFFCURVE",
"275 124 CURVE SMOOTH",
"302 316 LINE SMOOTH",
"304 331 OFFCURVE",
"306 346 OFFCURVE",
"306 361 CURVE SMOOTH",
"306 408 OFFCURVE",
"287 450 OFFCURVE",
"199 450 CURVE SMOOTH",
"139 450 OFFCURVE",
"100 432 OFFCURVE",
"79 394 CURVE",
"85 393 LINE",
"99 493 LINE SMOOTH",
"111 576 OFFCURVE",
"153 593 OFFCURVE",
"213 593 CURVE SMOOTH",
"239 593 LINE SMOOTH",
"280 593 OFFCURVE",
"302 600 OFFCURVE",
"304 616 CURVE SMOOTH",
"306 626 LINE",
"300 626 LINE",
"293 613 OFFCURVE",
"273 609 OFFCURVE",
"249 609 CURVE SMOOTH",
"212 609 LINE SMOOTH",
"149 609 OFFCURVE",
"96 592 OFFCURVE",
"82 493 CURVE SMOOTH",
"30 124 LINE SMOOTH",
"28 110 OFFCURVE",
"26 95 OFFCURVE",
"26 81 CURVE SMOOTH",
"26 33 OFFCURVE",
"45 -10 OFFCURVE",
"134 -10 CURVE SMOOTH"
);
},
{
closed = 1;
nodes = (
"61 6 OFFCURVE",
"43 42 OFFCURVE",
"43 85 CURVE SMOOTH",
"43 99 OFFCURVE",
"45 113 OFFCURVE",
"47 127 CURVE SMOOTH",
"75 331 LINE SMOOTH",
"83 384 OFFCURVE",
"106 434 OFFCURVE",
"197 434 CURVE SMOOTH",
"273 434 OFFCURVE",
"290 398 OFFCURVE",
"290 355 CURVE SMOOTH",
"290 341 OFFCURVE",
"288 327 OFFCURVE",
"286 313 CURVE SMOOTH",
"260 127 LINE SMOOTH",
"251 68 OFFCURVE",
"237 6 OFFCURVE",
"137 6 CURVE SMOOTH"
);
}
);
width = 337;
}
);
leftKerningGroup = uni0431;
note = uni0431;
unicode = 0431;
},
{
color = 6;
glyphname = "ve-cy";
lastChange = "2022-04-05 18:05:07 +0000";
layers = (
{
layerId = "9AA098C0-EDBC-463F-BC21-AFCD07A070D0";
paths = (
{
closed = 1;
nodes = (
"169 0 LINE SMOOTH",
"242 0 OFFCURVE",
"294 16 OFFCURVE",
"309 120 CURVE SMOOTH",
"315 163 LINE SMOOTH",
"316 170 OFFCURVE",
"317 176 OFFCURVE",
"317 183 CURVE SMOOTH",
"317 232 OFFCURVE",
"287 266 OFFCURVE",
"244 266 CURVE",
"292 275 OFFCURVE",
"332 317 OFFCURVE",
"341 381 CURVE SMOOTH",
"343 398 LINE SMOOTH",
"344 405 OFFCURVE",
"344 411 OFFCURVE",
"344 417 CURVE SMOOTH",
"344 475 OFFCURVE",
"303 495 OFFCURVE",
"248 495 CURVE SMOOTH",
"85 495 LINE",
"15 0 LINE"
);
},
{
closed = 1;
nodes = (
"67 257 LINE",
"198 257 LINE SMOOTH",
"255 257 OFFCURVE",
"299 242 OFFCURVE",
"299 177 CURVE SMOOTH",
"299 169 OFFCURVE",
"298 160 OFFCURVE",
"297 150 CURVE SMOOTH",
"294 125 LINE SMOOTH",
"281 31 OFFCURVE",
"238 16 OFFCURVE",
"168 16 CURVE SMOOTH",
"33 16 LINE"
);
},
{
closed = 1;
nodes = (
"99 479 LINE",
"246 479 LINE SMOOTH",
"294 479 OFFCURVE",
"328 457 OFFCURVE",
"328 414 CURVE SMOOTH",
"328 410 OFFCURVE",
"328 405 OFFCURVE",
"327 400 CURVE SMOOTH",
"325 380 LINE SMOOTH",
"315 311 OFFCURVE",
"271 273 OFFCURVE",
"196 273 CURVE SMOOTH",
"70 273 LINE"
);
}
);
width = 377;
}
);
leftKerningGroup = uni0431;
note = uni0432;
rightKerningGroup = uni0432;
unicode = 0432;
},
{
color = 6;
glyphname = "ge-cy";
lastChange = "2022-04-05 22:44:37 +0000";
layers = (
{
layerId = "9AA098C0-EDBC-463F-BC21-AFCD07A070D0";
paths = (
{
closed = 1;
nodes = (
"31 0 LINE",
"99 479 LINE",
"296 479 LINE",
"298 495 LINE",
"85 495 LINE",
"15 0 LINE"
);
}
);
width = 283;
}
);
leftKerningGroup = uni0431;
note = uni0433;
unicode = 0433;
},
{
color = 6;
glyphname = "de-cy";
lastChange = "2022-04-05 22:57:46 +0000";
layers = (
{
layerId = "9AA098C0-EDBC-463F-BC21-AFCD07A070D0";
paths = (
{
closed = 1;
nodes = (
"-9 -99 LINE",
"4 -5 LINE",
"378 -5 LINE",
"365 -99 LINE",
"380 -99 LINE",
"396 11 LINE",
"327 11 LINE",
"395 495 LINE",
"191 495 LINE",
"99 92 LINE SMOOTH",
"87 40 OFFCURVE",
"70 13 OFFCURVE",
"47 11 CURVE",
"-8 11 LINE",
"-24 -99 LINE"
);
},
{
closed = 1;
nodes = (
"103 32 OFFCURVE",
"113 80 OFFCURVE",
"115 92 CURVE SMOOTH",
"204 479 LINE",
"376 479 LINE",
"311 11 LINE",
"76 11 LINE"
);
}
);
width = 454;
}
);
note = uni0434;
rightKerningGroup = uni0432;
unicode = 0434;
},
{
color = 6;
glyphname = "zhe-cy";
lastChange = "2022-04-05 22:44:37 +0000";
layers = (
{
layerId = "9AA098C0-EDBC-463F-BC21-AFCD07A070D0";
paths = (
{
closed = 1;
nodes = (
"9 0 LINE",
"195 254 LINE",
"228 254 LINE",
"192 0 LINE",
"207 0 LINE",
"243 254 LINE",
"277 254 LINE",
"390 0 LINE",
"409 0 LINE",
"291 261 LINE",
"471 495 LINE",
"453 495 LINE",
"278 270 LINE",
"245 270 LINE",
"277 495 LINE",
"262 495 LINE",
"230 270 LINE",
"197 270 LINE",
"86 495 LINE",
"68 495 LINE",
"182 261 LINE",
"-10 0 LINE"
);
}
);
width = 469;
}
);
leftKerningGroup = uni0431;
note = uni0436;
unicode = 0436;
},
{
color = 6;
glyphname = "ze-cy";
lastChange = "2022-04-05 22:44:37 +0000";
layers = (
{
layerId = "9AA098C0-EDBC-463F-BC21-AFCD07A070D0";
paths = (
{
closed = 1;
nodes = (
"253 -7 OFFCURVE",
"313 50 OFFCURVE",
"325 132 CURVE SMOOTH",
"326 139 OFFCURVE",
"327 146 OFFCURVE",
"327 154 CURVE SMOOTH",
"327 203 OFFCURVE",
"303 254 OFFCURVE",
"248 264 CURVE",
"284 271 OFFCURVE",
"351 315 OFFCURVE",
"351 408 CURVE SMOOTH",
"351 471 OFFCURVE",
"314 499 OFFCURVE",
"236 499 CURVE SMOOTH",
"147 499 OFFCURVE",
"93 447 OFFCURVE",
"82 364 CURVE SMOOTH",
"77 333 LINE",
"93 333 LINE",
"97 363 LINE SMOOTH",
"107 429 OFFCURVE",
"149 483 OFFCURVE",
"233 483 CURVE SMOOTH",
"306 483 OFFCURVE",
"334 452 OFFCURVE",
"334 404 CURVE SMOOTH",
"334 313 OFFCURVE",
"269 271 OFFCURVE",
"204 271 CURVE SMOOTH",
"140 271 LINE",
"137 255 LINE",
"201 255 LINE SMOOTH",
"270 255 OFFCURVE",
"310 211 OFFCURVE",
"310 152 CURVE SMOOTH",
"310 86 OFFCURVE",
"267 8 OFFCURVE",
"167 8 CURVE SMOOTH",
"107 8 OFFCURVE",
"58 40 OFFCURVE",
"58 111 CURVE SMOOTH",
"58 119 OFFCURVE",
"59 128 OFFCURVE",
"60 137 CURVE SMOOTH",
"63 158 LINE",
"47 158 LINE",
"44 137 LINE SMOOTH",
"42 126 OFFCURVE",
"42 116 OFFCURVE",
"42 106 CURVE SMOOTH",
"42 33 OFFCURVE",
"85 -7 OFFCURVE",
"164 -7 CURVE SMOOTH"
);
}
);
width = 401;
}
);
note = uni0437;
unicode = 0437;
},
{
color = 6;
glyphname = "ii-cy";
lastChange = "2022-04-05 22:44:37 +0000";
layers = (
{
anchors = (
{
name = bottomright;
position = "{296, 0}";
},
{
name = top;
position = "{212, 495}";
}
);
layerId = "9AA098C0-EDBC-463F-BC21-AFCD07A070D0";
paths = (
{
closed = 1;
nodes = (
"38 0 LINE",
"308 473 LINE",
"241 0 LINE",
"257 0 LINE",
"327 495 LINE",
"303 495 LINE",
"35 24 LINE",
"101 495 LINE",
"85 495 LINE",
"15 0 LINE"
);
}
);
width = 342;
}
);
leftKerningGroup = uni0431;
note = uni0438;
unicode = 0438;
},
{
color = 6;
glyphname = "ka-cy";
lastChange = "2022-04-05 04:50:55 +0000";
layers = (
{
layerId = "9AA098C0-EDBC-463F-BC21-AFCD07A070D0";
paths = (
{
closed = 1;
nodes = (
"31 0 LINE",
"58 190 LINE",
"65 218 OFFCURVE",
"92 261 OFFCURVE",
"122 304 CURVE",
"228 0 LINE",
"246 0 LINE",
"135 318 LINE",
"177 375 OFFCURVE",
"247 447 OFFCURVE",
"313 468 CURVE",
"315 484 LINE",
"253 470 OFFCURVE",
"145 384 OFFCURVE",
"65 241 CURVE",
"101 496 LINE",
"85 496 LINE",
"15 0 LINE"
);
}
);
width = 312;
}
);
leftKerningGroup = uni0431;
note = uni043A;
unicode = 043A;
},
{
color = 6;
glyphname = "el-cy";
lastChange = "2022-04-05 22:44:37 +0000";
layers = (
{
layerId = "9AA098C0-EDBC-463F-BC21-AFCD07A070D0";
paths = (
{
closed = 1;
nodes = (
"40 0 OFFCURVE",
"54 70 OFFCURVE",
"59 92 CURVE SMOOTH",
"149 479 LINE",
"321 479 LINE",
"253 1 LINE",
"269 1 LINE",
"339 495 LINE",
"135 495 LINE",
"43 94 LINE SMOOTH",
"31 38 OFFCURVE",
"14 16 OFFCURVE",
"-13 16 CURVE",
"-15 0 LINE"
);
}
);
width = 354;
}
);
leftKerningGroup = uni043B;
note = uni043B;
unicode = 043B;
},
{
color = 6;
glyphname = "em-cy";
lastChange = "2022-04-05 22:44:37 +0000";
layers = (
{
layerId = "9AA098C0-EDBC-463F-BC21-AFCD07A070D0";
paths = (
{
closed = 1;
nodes = (
"31 0 LINE",
"94 447 LINE",
"180 0 LINE",
"197 0 LINE",
"409 447 LINE",
"346 0 LINE",
"362 0 LINE",
"432 495 LINE",
"415 495 LINE",
"193 24 LINE",
"102 495 LINE",
"85 495 LINE",
"15 0 LINE"
);
}
);
width = 447;
}
);
leftKerningGroup = uni0431;
note = uni043C;
unicode = 043C;
},
{
color = 6;
glyphname = "en-cy";
lastChange = "2022-04-05 22:44:37 +0000";
layers = (
{
layerId = "9AA098C0-EDBC-463F-BC21-AFCD07A070D0";
paths = (
{
closed = 1;
nodes = (
"31 0 LINE",
"67 255 LINE",
"281 255 LINE",
"245 0 LINE",
"261 0 LINE",
"331 495 LINE",
"315 495 LINE",
"283 271 LINE",
"69 271 LINE",
"101 495 LINE",
"85 495 LINE",
"15 0 LINE"
);
}
);
width = 346;
}
);
leftKerningGroup = uni0431;
note = uni043D;
unicode = 043D;
},
{
color = 6;
glyphname = "pe-cy";
lastChange = "2022-04-05 22:44:37 +0000";
layers = (
{
layerId = "9AA098C0-EDBC-463F-BC21-AFCD07A070D0";
paths = (
{
closed = 1;
nodes = (
"31 0 LINE",
"99 479 LINE",
"308 479 LINE",
"240 0 LINE",
"256 0 LINE",
"326 495 LINE",
"85 495 LINE",
"15 0 LINE"
);
}
);
width = 341;
}
);
leftKerningGroup = uni0431;
note = uni043F;
unicode = 043F;
},
{
color = 6;
glyphname = "te-cy";
lastChange = "2022-04-05 22:44:37 +0000";
layers = (
{
layerId = "9AA098C0-EDBC-463F-BC21-AFCD07A070D0";
paths = (
{
closed = 1;
nodes = (
"98 0 LINE",
"166 479 LINE",
"278 479 LINE",
"280 495 LINE",
"41 495 LINE",
"39 479 LINE",
"150 479 LINE",
"82 0 LINE"
);
}
);
width = 260;
}
);
leftKerningGroup = uni0431;
note = uni0442;
unicode = 0442;
},
{
color = 6;
glyphname = "u-cy";
lastChange = "2022-04-05 04:55:57 +0000";
layers = (
{
anchors = (
{
name = bottom;
position = "{179, 0}";
},
{
name = top;
position = "{194, 495}";
}
);
layerId = "9AA098C0-EDBC-463F-BC21-AFCD07A070D0";
paths = (
{
closed = 1;
nodes = (
"73 -115 OFFCURVE",
"107 -70 OFFCURVE",
"134 -1 CURVE SMOOTH",
"325 495 LINE",
"309 495 LINE",
"129 27 LINE",
"82 495 LINE",
"66 495 LINE",
"117 -4 LINE",
"93 -82 OFFCURVE",
"46 -101 OFFCURVE",
"15 -101 CURVE SMOOTH",
"-8 -101 OFFCURVE",
"-30 -96 OFFCURVE",
"-33 -95 CURVE",
"-35 -109 LINE",
"-32 -110 OFFCURVE",
"-7 -115 OFFCURVE",
"13 -115 CURVE SMOOTH"
);
}
);
width = 305;
}
);
leftKerningGroup = uni0431;
note = uni0443;
unicode = 0443;
},
{
color = 6;
glyphname = "ushort-cy";
lastChange = "2022-04-05 22:57:46 +0000";
layers = (
{
anchors = (
{
name = bottom;
position = "{170, 0}";
},
{
name = top;
position = "{198, 591}";
}
);
layerId = "9AA098C0-EDBC-463F-BC21-AFCD07A070D0";
paths = (
{
closed = 1;
nodes = (
"64 -115 OFFCURVE",
"98 -70 OFFCURVE",
"125 -1 CURVE SMOOTH",
"316 495 LINE",
"300 495 LINE",
"120 27 LINE",
"73 495 LINE",
"57 495 LINE",
"108 -4 LINE",
"84 -82 OFFCURVE",
"37 -101 OFFCURVE",
"6 -101 CURVE SMOOTH",
"-17 -101 OFFCURVE",
"-39 -96 OFFCURVE",
"-42 -95 CURVE",
"-44 -109 LINE",
"-41 -110 OFFCURVE",
"-16 -115 OFFCURVE",
"4 -115 CURVE SMOOTH"
);
},
{
closed = 1;
nodes = (
"249 546 OFFCURVE",
"286 585 OFFCURVE",
"291 623 CURVE",
"275 623 LINE",
"269 582 OFFCURVE",
"228 562 OFFCURVE",
"193 562 CURVE SMOOTH",
"162 562 OFFCURVE",
"139 576 OFFCURVE",
"139 612 CURVE SMOOTH",
"139 615 OFFCURVE",
"140 619 OFFCURVE",
"140 623 CURVE",
"124 623 LINE",
"119 586 OFFCURVE",
"132 546 OFFCURVE",
"190 546 CURVE SMOOTH"
);
}
);
width = 296;
}
);
leftKerningGroup = uni0431;
note = uni045E;
unicode = 045E;
},
{
color = 6;
glyphname = "ef-cy";
lastChange = "2022-04-05 22:44:37 +0000";
layers = (
{
layerId = "9AA098C0-EDBC-463F-BC21-AFCD07A070D0";
paths = (
{
closed = 1;
nodes = (
"243 -116 LINE",
"265 37 LINE",
"276 11 OFFCURVE",
"304 -7 OFFCURVE",
"363 -7 CURVE SMOOTH",
"476 -7 OFFCURVE",
"496 62 OFFCURVE",
"505 124 CURVE SMOOTH",
"532 315 LINE SMOOTH",
"534 328 OFFCURVE",
"535 341 OFFCURVE",
"535 353 CURVE SMOOTH",
"535 402 OFFCURVE",
"516 446 OFFCURVE",
"430 446 CURVE SMOOTH",
"369 446 OFFCURVE",
"336 427 OFFCURVE",
"316 401 CURVE",
"343 591 LINE",
"327 591 LINE",
"300 398 LINE",
"287 426 OFFCURVE",
"260 446 OFFCURVE",
"202 446 CURVE SMOOTH",
"83 446 OFFCURVE",
"68 376 OFFCURVE",
"60 315 CURVE SMOOTH",
"33 124 LINE SMOOTH",
"31 109 OFFCURVE",
"29 94 OFFCURVE",
"29 79 CURVE SMOOTH",
"29 33 OFFCURVE",
"48 -7 OFFCURVE",
"135 -7 CURVE SMOOTH",
"196 -7 OFFCURVE",
"229 13 OFFCURVE",
"249 41 CURVE",
"227 -116 LINE"
);
},
{
closed = 1;
nodes = (
"61 9 OFFCURVE",
"45 44 OFFCURVE",
"45 84 CURVE SMOOTH",
"45 98 OFFCURVE",
"47 113 OFFCURVE",
"49 127 CURVE SMOOTH",
"75 312 LINE SMOOTH",
"83 365 OFFCURVE",
"92 430 OFFCURVE",
"200 430 CURVE SMOOTH",
"275 430 OFFCURVE",
"291 393 OFFCURVE",
"291 352 CURVE SMOOTH",
"291 339 OFFCURVE",
"289 325 OFFCURVE",
"287 312 CURVE SMOOTH",
"261 127 LINE SMOOTH",
"254 74 OFFCURVE",
"240 9 OFFCURVE",
"137 9 CURVE SMOOTH"
);
},
{
closed = 1;
nodes = (
"289 9 OFFCURVE",
"273 44 OFFCURVE",
"273 83 CURVE SMOOTH",
"273 97 OFFCURVE",
"275 112 OFFCURVE",
"277 126 CURVE SMOOTH",
"304 313 LINE SMOOTH",
"311 366 OFFCURVE",
"320 430 OFFCURVE",
"428 430 CURVE SMOOTH",
"503 430 OFFCURVE",
"519 393 OFFCURVE",
"519 352 CURVE SMOOTH",
"519 339 OFFCURVE",
"517 325 OFFCURVE",
"515 312 CURVE SMOOTH",
"489 127 LINE SMOOTH",
"482 74 OFFCURVE",
"468 9 OFFCURVE",
"365 9 CURVE SMOOTH"
);
}
);
width = 573;
}
);
note = uni0444;
unicode = 0444;
},
{
color = 6;
glyphname = "che-cy";
lastChange = "2022-04-05 22:44:37 +0000";
layers = (
{
layerId = "9AA098C0-EDBC-463F-BC21-AFCD07A070D0";
paths = (
{
closed = 1;
nodes = (
"224 0 LINE",
"294 495 LINE",
"278 495 LINE",
"245 265 LINE",
"232 208 OFFCURVE",
"206 167 OFFCURVE",
"133 167 CURVE SMOOTH",
"76 167 OFFCURVE",
"63 200 OFFCURVE",
"63 241 CURVE SMOOTH",
"63 257 OFFCURVE",
"65 274 OFFCURVE",
"67 291 CURVE SMOOTH",
"96 495 LINE",
"80 495 LINE",
"50 282 LINE SMOOTH",
"48 266 OFFCURVE",
"46 249 OFFCURVE",
"46 233 CURVE SMOOTH",
"46 189 OFFCURVE",
"61 151 OFFCURVE",
"130 151 CURVE SMOOTH",
"193 151 OFFCURVE",
"218 178 OFFCURVE",
"238 209 CURVE",
"208 0 LINE"
);
}
);
width = 309;
}
);
note = uni0447;
unicode = 0447;
},
{
color = 6;
glyphname = "tse-cy";
lastChange = "2022-04-05 22:44:37 +0000";
layers = (
{
layerId = "9AA098C0-EDBC-463F-BC21-AFCD07A070D0";
paths = (
{
closed = 1;
nodes = (
"275 -65 LINE",
"286 16 LINE",
"262 16 LINE",
"329 495 LINE",
"313 495 LINE",
"246 16 LINE",
"34 16 LINE",
"101 495 LINE",
"85 495 LINE",
"16 0 LINE",
"269 0 LINE",
"260 -65 LINE"
);
}
);
width = 364;
}
);
leftKerningGroup = uni0431;
note = uni0446;
rightKerningGroup = uni0432;
unicode = 0446;
},
{
color = 6;
glyphname = "sha-cy";
lastChange = "2022-04-05 22:44:37 +0000";
layers = (
{
layerId = "9AA098C0-EDBC-463F-BC21-AFCD07A070D0";
paths = (
{
closed = 1;
nodes = (
"423 0 LINE",
"493 495 LINE",
"477 495 LINE",
"409 16 LINE",
"227 16 LINE",
"295 495 LINE",
"279 495 LINE",
"211 16 LINE",
"33 16 LINE",
"101 495 LINE",
"85 495 LINE",
"15 0 LINE"
);
}
);
width = 508;
}
);
leftKerningGroup = uni0431;
note = uni0448;
unicode = 0448;
},
{
color = 6;
glyphname = "shcha-cy";
lastChange = "2022-04-05 22:44:37 +0000";
layers = (
{
layerId = "9AA098C0-EDBC-463F-BC21-AFCD07A070D0";
paths = (
{
closed = 1;
nodes = (
"439 -65 LINE",
"450 16 LINE",
"426 16 LINE",
"493 495 LINE",
"477 495 LINE",
"410 16 LINE",
"228 16 LINE",
"295 495 LINE",
"279 495 LINE",
"212 16 LINE",
"34 16 LINE",
"101 495 LINE",
"85 495 LINE",
"16 0 LINE",
"433 0 LINE",
"424 -65 LINE"
);
}
);
width = 528;
}
);
leftKerningGroup = uni0431;
note = uni0449;
rightKerningGroup = uni0432;
unicode = 0449;
},
{
color = 6;
glyphname = "dzhe-cy";
lastChange = "2022-04-05 22:44:37 +0000";
layers = (
{
layerId = "9AA098C0-EDBC-463F-BC21-AFCD07A070D0";
paths = (
{
closed = 1;
nodes = (
"256 0 LINE",
"326 495 LINE",
"310 495 LINE",
"242 16 LINE",
"33 16 LINE",
"101 495 LINE",
"85 495 LINE",
"15 0 LINE"
);
},
{
closed = 1;
nodes = (
"129 -113 LINE",
"146 5 LINE",
"130 5 LINE",
"113 -113 LINE"
);
}
);
width = 341;
}
);
leftKerningGroup = uni0431;
note = uni045F;
unicode = 045F;
},
{
color = 6;
glyphname = "softsign-cy";
lastChange = "2022-04-05 22:44:37 +0000";
layers = (
{
layerId = "9AA098C0-EDBC-463F-BC21-AFCD07A070D0";
paths = (
{
closed = 1;
nodes = (
"134 0 LINE SMOOTH",
"247 0 OFFCURVE",
"263 69 OFFCURVE",
"272 131 CURVE SMOOTH",
"282 207 LINE SMOOTH",
"284 222 OFFCURVE",
"286 237 OFFCURVE",
"286 252 CURVE SMOOTH",
"286 298 OFFCURVE",
"268 338 OFFCURVE",
"182 338 CURVE SMOOTH",
"73 338 LINE",
"95 495 LINE",
"80 495 LINE",
"10 0 LINE"
);
},
{
closed = 1;
nodes = (
"71 323 LINE",
"176 323 LINE SMOOTH",
"254 323 OFFCURVE",
"271 289 OFFCURVE",
"271 246 CURVE SMOOTH",
"271 233 OFFCURVE",
"269 218 OFFCURVE",
"267 204 CURVE SMOOTH",
"257 134 LINE SMOOTH",
"249 75 OFFCURVE",
"235 15 OFFCURVE",
"132 15 CURVE SMOOTH",
"27 15 LINE"
);
}
);
width = 328;
}
);
leftKerningGroup = uni0431;
note = uni044C;
unicode = 044C;
},
{
color = 6;
glyphname = "hardsign-cy";
lastChange = "2022-04-05 22:44:37 +0000";
layers = (
{
layerId = "9AA098C0-EDBC-463F-BC21-AFCD07A070D0";
paths = (
{
closed = 1;
nodes = (
"182 0 LINE SMOOTH",
"295 0 OFFCURVE",
"312 69 OFFCURVE",
"320 131 CURVE SMOOTH",
"330 207 LINE SMOOTH",
"332 222 OFFCURVE",
"334 237 OFFCURVE",
"334 251 CURVE SMOOTH",
"334 297 OFFCURVE",
"316 338 OFFCURVE",
"230 338 CURVE SMOOTH",
"121 338 LINE",
"143 495 LINE",
"128 495 LINE",
"58 0 LINE"
);
},
{
closed = 1;
nodes = (
"119 323 LINE",
"224 323 LINE SMOOTH",
"302 323 OFFCURVE",
"319 289 OFFCURVE",
"319 246 CURVE SMOOTH",
"319 233 OFFCURVE",
"317 218 OFFCURVE",
"315 204 CURVE SMOOTH",
"305 134 LINE SMOOTH",
"297 75 OFFCURVE",
"283 15 OFFCURVE",
"180 15 CURVE SMOOTH",
"75 15 LINE"
);
},
{
closed = 1;
nodes = (
"138 479 LINE",
"140 495 LINE",
"40 495 LINE",
"38 479 LINE"
);
}
);
width = 376;
}
);
leftKerningGroup = uni0431;
note = uni044A;
unicode = 044A;
},
{
color = 6;
glyphname = "lje-cy";
lastChange = "2022-04-05 18:05:07 +0000";
layers = (
{
layerId = "9AA098C0-EDBC-463F-BC21-AFCD07A070D0";
paths = (
{
closed = 1;
nodes = (
"25 0 OFFCURVE",
"38 66 OFFCURVE",
"44 92 CURVE SMOOTH",
"132 479 LINE",
"286 479 LINE",
"281 495 LINE",
"120 495 LINE",
"28 92 LINE SMOOTH",
"15 36 OFFCURVE",
"-1 15 OFFCURVE",
"-28 15 CURVE",
"-30 0 LINE"
);
},
{
closed = 1;
nodes = (
"277 323 LINE",
"382 323 LINE SMOOTH",
"460 323 OFFCURVE",
"477 289 OFFCURVE",
"477 246 CURVE SMOOTH",
"477 233 OFFCURVE",
"475 218 OFFCURVE",
"473 204 CURVE SMOOTH",
"463 134 LINE SMOOTH",
"455 75 OFFCURVE",
"441 15 OFFCURVE",
"338 15 CURVE SMOOTH",
"233 15 LINE"
);
},
{
closed = 1;
nodes = (
"340 0 LINE SMOOTH",
"453 0 OFFCURVE",
"469 69 OFFCURVE",
"478 131 CURVE SMOOTH",
"488 207 LINE SMOOTH",
"490 222 OFFCURVE",
"492 237 OFFCURVE",
"492 252 CURVE SMOOTH",
"492 298 OFFCURVE",
"474 338 OFFCURVE",
"388 338 CURVE SMOOTH",
"279 338 LINE",
"301 495 LINE",
"286 495 LINE",
"216 0 LINE"
);
},
{
closed = 1;
nodes = (
"296 479 LINE",
"298 495 LINE",
"198 495 LINE",
"196 479 LINE"
);
}
);
width = 529;
}
);
leftKerningGroup = uni043B;
note = uni0459;
unicode = 0459;
},
{
color = 6;
glyphname = "nje-cy";
lastChange = "2022-04-05 22:44:37 +0000";
layers = (
{
layerId = "9AA098C0-EDBC-463F-BC21-AFCD07A070D0";
paths = (
{
closed = 1;
nodes = (
"240 0 LINE SMOOTH",
"353 0 OFFCURVE",
"369 69 OFFCURVE",
"378 131 CURVE SMOOTH",
"388 207 LINE SMOOTH",
"390 222 OFFCURVE",
"392 237 OFFCURVE",
"392 252 CURVE SMOOTH",
"392 298 OFFCURVE",
"374 338 OFFCURVE",
"288 338 CURVE SMOOTH",
"179 338 LINE",
"201 495 LINE",
"186 495 LINE",
"116 0 LINE"
);
},
{
closed = 1;
nodes = (
"31 0 LINE",
"101 495 LINE",
"85 495 LINE",
"15 0 LINE"
);
},
{
closed = 1;
nodes = (
"158 243 LINE",
"161 259 LINE",
"59 259 LINE",
"56 243 LINE"
);
},
{
closed = 1;
nodes = (
"177 323 LINE",
"282 323 LINE SMOOTH",
"360 323 OFFCURVE",
"377 289 OFFCURVE",
"377 246 CURVE SMOOTH",
"377 233 OFFCURVE",
"375 218 OFFCURVE",
"373 204 CURVE SMOOTH",
"363 134 LINE SMOOTH",
"355 75 OFFCURVE",
"341 15 OFFCURVE",
"238 15 CURVE SMOOTH",
"133 15 LINE"
);
}
);
width = 434;
}
);
leftKerningGroup = uni0431;
note = uni045A;
unicode = 045A;
},
{
color = 6;
glyphname = "e-cy";
lastChange = "2022-04-05 22:44:37 +0000";
layers = (
{
layerId = "9AA098C0-EDBC-463F-BC21-AFCD07A070D0";
paths = (
{
closed = 1;
nodes = (
"252 -7 OFFCURVE",
"268 62 OFFCURVE",
"277 124 CURVE SMOOTH",
"283 167 LINE",
"267 167 LINE",
"261 127 LINE SMOOTH",
"253 68 OFFCURVE",
"239 9 OFFCURVE",
"141 9 CURVE SMOOTH",
"62 9 OFFCURVE",
"45 43 OFFCURVE",
"45 85 CURVE SMOOTH",
"45 98 OFFCURVE",
"47 113 OFFCURVE",
"49 127 CURVE SMOOTH",
"65 242 LINE",
"226 242 LINE",
"228 258 LINE",
"67 258 LINE",
"83 369 LINE SMOOTH",
"91 428 OFFCURVE",
"105 487 OFFCURVE",
"209 487 CURVE SMOOTH",
"283 487 OFFCURVE",
"299 454 OFFCURVE",
"299 412 CURVE SMOOTH",
"299 398 OFFCURVE",
"297 384 OFFCURVE",
"295 369 CURVE SMOOTH",
"289 328 LINE",
"305 328 LINE",
"311 372 LINE SMOOTH",
"313 387 OFFCURVE",
"315 402 OFFCURVE",
"315 417 CURVE SMOOTH",
"315 463 OFFCURVE",
"297 503 OFFCURVE",
"211 503 CURVE SMOOTH",
"92 503 OFFCURVE",
"76 433 OFFCURVE",
"67 372 CURVE SMOOTH",
"33 124 LINE SMOOTH",
"31 109 OFFCURVE",
"29 94 OFFCURVE",
"29 80 CURVE SMOOTH",
"29 33 OFFCURVE",
"48 -7 OFFCURVE",
"139 -7 CURVE SMOOTH"
);
}
);
width = 339;
}
);
leftKerningGroup = uni0431;
note = uni0454;
unicode = 0454;
},
{
color = 6;
glyphname = "ereversed-cy";
lastChange = "2022-04-05 22:44:37 +0000";
layers = (
{
layerId = "9AA098C0-EDBC-463F-BC21-AFCD07A070D0";
paths = (
{
closed = 1;
nodes = (
"247 -7 OFFCURVE",
"263 62 OFFCURVE",
"272 124 CURVE SMOOTH",
"306 372 LINE SMOOTH",
"308 386 OFFCURVE",
"310 401 OFFCURVE",
"310 416 CURVE SMOOTH",
"310 462 OFFCURVE",
"291 503 OFFCURVE",
"200 503 CURVE SMOOTH",
"87 503 OFFCURVE",
"71 433 OFFCURVE",
"62 372 CURVE SMOOTH",
"56 328 LINE",
"72 328 LINE",
"78 369 LINE SMOOTH",
"86 428 OFFCURVE",
"100 487 OFFCURVE",
"198 487 CURVE SMOOTH",
"277 487 OFFCURVE",
"294 453 OFFCURVE",
"294 411 CURVE SMOOTH",
"294 398 OFFCURVE",
"292 383 OFFCURVE",
"290 369 CURVE SMOOTH",
"274 258 LINE",
"113 258 LINE",
"111 242 LINE",
"272 242 LINE",
"256 127 LINE SMOOTH",
"248 68 OFFCURVE",
"234 9 OFFCURVE",
"130 9 CURVE SMOOTH",
"56 9 OFFCURVE",
"40 42 OFFCURVE",
"40 84 CURVE SMOOTH",
"40 98 OFFCURVE",
"42 112 OFFCURVE",
"44 127 CURVE SMOOTH",
"50 167 LINE",
"34 167 LINE",
"28 124 LINE SMOOTH",
"26 109 OFFCURVE",
"24 94 OFFCURVE",
"24 79 CURVE SMOOTH",
"24 33 OFFCURVE",
"42 -7 OFFCURVE",
"128 -7 CURVE SMOOTH"
);
}
);
width = 339;
}
);
note = uni044D;
unicode = 044D;
},
{
color = 6;
glyphname = "tshe-cy";
lastChange = "2022-04-05 22:44:37 +0000";
layers = (
{
layerId = "9AA098C0-EDBC-463F-BC21-AFCD07A070D0";
paths = (
{
closed = 1;
nodes = (
"48 0 LINE",
"93 323 LINE",
"106 380 OFFCURVE",
"143 421 OFFCURVE",
"216 421 CURVE SMOOTH",
"289 421 OFFCURVE",
"306 386 OFFCURVE",
"306 344 CURVE SMOOTH",
"306 329 OFFCURVE",
"303 313 OFFCURVE",
"301 297 CURVE SMOOTH",
"260 0 LINE",
"276 0 LINE",
"319 306 LINE SMOOTH",
"321 320 OFFCURVE",
"323 335 OFFCURVE",
"323 349 CURVE SMOOTH",
"323 396 OFFCURVE",
"305 437 OFFCURVE",
"218 437 CURVE SMOOTH",
"155 437 OFFCURVE",
"120 410 OFFCURVE",
"101 379 CURVE",
"122 532 LINE",
"238 532 LINE",
"241 548 LINE",
"58 548 LINE",
"55 532 LINE",
"106 532 LINE",
"32 0 LINE"
);
},
{
closed = 1;
nodes = (
"123 535 LINE",
"136 630 LINE",
"120 630 LINE",
"107 535 LINE"
);
}
);
width = 351;
}
);
leftKerningGroup = uni0431;
note = uni045B;
unicode = 045B;
},
